M48
; DRILL file {KiCad (6.0.0)} date Sat Jan 15 11:29:05 2022
; FORMAT={-:-/ absolute / metric / decimal}
; #@! TF.CreationDate,2022-01-15T11:29:05+07:00
; #@! TF.GenerationSoftware,Kicad,Pcbnew,(6.0.0)
; #@! TF.FileFunction,Plated,1,2,PTH
FMAT,2
METRIC
; #@! TA.AperFunction,Plated,PTH,ViaDrill
T1C0.300
; #@! TA.AperFunction,Plated,PTH,ViaDrill
T2C0.305
; #@! TA.AperFunction,Plated,PTH,ViaDrill
T3C0.400
; #@! TA.AperFunction,Plated,PTH,ComponentDrill
T4C0.600
; #@! TA.AperFunction,Plated,PTH,ComponentDrill
T5C2.200
%
G90
G05
T1
X78.513Y-66.023
X80.632Y-63.233
X81.812Y-66.54
X83.602Y-65.853
X84.462Y-65.893
X85.453Y-65.793
X86.412Y-61.983
X86.412Y-62.653
X86.442Y-64.433
X87.046Y-63.909
T2
X72.552Y-65.239
X73.992Y-65.853
X74.742Y-66.593
X75.513Y-65.833
X76.242Y-66.273
X77.453Y-65.239
T3
X68.552Y-65.463
X88.362Y-62.003
T5
X93.233Y-62.853
T4
X70.703Y-59.443G85X70.703Y-58.843
G05
X70.703Y-63.893G85X70.703Y-62.793
G05
X79.302Y-59.443G85X79.302Y-58.843
G05
X79.302Y-63.893G85X79.302Y-62.793
G05
T0
M30
