G04 #@! TF.GenerationSoftware,KiCad,Pcbnew,(6.0.0)*
G04 #@! TF.CreationDate,2022-01-15T11:28:59+07:00*
G04 #@! TF.ProjectId,Unified-Daughterboard,556e6966-6965-4642-9d44-617567687465,C3*
G04 #@! TF.SameCoordinates,Original*
G04 #@! TF.FileFunction,Copper,L2,Bot*
G04 #@! TF.FilePolarity,Positive*
%FSLAX46Y46*%
G04 Gerber Fmt 4.6, Leading zero omitted, Abs format (unit mm)*
G04 Created by KiCad (PCBNEW (6.0.0)) date 2022-01-15 11:28:59*
%MOMM*%
%LPD*%
G01*
G04 APERTURE LIST*
G04 Aperture macros list*
%AMFreePoly0*
4,1,13,0.003288,0.773876,0.085012,0.773493,0.085387,0.594886,0.085763,0.416278,0.764682,0.416278,0.764682,0.287592,0.085751,0.287592,0.085751,0.034657,0.813494,0.034657,0.813494,-0.094029,-0.078435,-0.094029,-0.078435,0.774258,0.003288,0.773876,0.003288,0.773876,$1*%
%AMFreePoly1*
4,1,56,0.801419,0.625552,0.437177,0.625180,0.072936,0.624807,0.072558,0.492053,0.072181,0.359299,0.764440,0.359299,0.764440,0.230613,0.072197,0.230613,0.072197,0.014657,0.801419,0.014657,0.801419,-0.114029,-0.091989,-0.114029,-0.091989,0.319116,-0.091987,0.350411,-0.091978,0.385353,-0.091963,0.419426,-0.091941,0.452515,-0.091914,0.484502,-0.091882,0.515272,-0.091844,0.544709,
-0.091802,0.572696,-0.091755,0.599118,-0.091703,0.623859,-0.091647,0.646802,-0.091588,0.667831,-0.091524,0.686831,-0.091458,0.703685,-0.091388,0.718277,-0.091316,0.730491,-0.091241,0.740211,-0.091164,0.747321,-0.091084,0.751705,-0.091003,0.753247,-0.090950,0.753260,-0.088934,0.753340,-0.084093,0.753417,-0.076541,0.753493,-0.066393,0.753567,-0.053764,0.753638,-0.038766,0.753707,
-0.021516,0.753772,-0.002127,0.753834,0.019286,0.753893,0.042608,0.753947,0.067726,0.753998,0.094525,0.754045,0.122891,0.754087,0.152708,0.754124,0.183864,0.754156,0.216242,0.754183,0.249730,0.754204,0.284211,0.754220,0.319573,0.754230,0.355701,0.754233,0.801419,0.754233,0.801419,0.625552,0.801419,0.625552,$1*%
%AMFreePoly2*
4,1,5,0.082346,-0.294029,-0.081840,-0.294029,-0.081840,0.574233,0.082346,0.574233,0.082346,-0.294029,0.082346,-0.294029,$1*%
%AMFreePoly3*
4,1,62,0.068747,0.406986,0.068748,0.389825,0.068756,0.358871,0.068770,0.328777,0.068792,0.299675,0.068820,0.271694,0.068854,0.244966,0.068893,0.219624,0.068938,0.195796,0.068988,0.173616,0.069043,0.153214,0.069102,0.134721,0.069166,0.118268,0.069233,0.103986,0.069303,0.092007,0.069376,0.082462,0.069452,0.075481,0.069531,0.071197,0.069611,0.069739,0.070388,0.070253,
0.073417,0.072395,0.078610,0.076119,0.085842,0.081333,0.094985,0.087945,0.105914,0.095864,0.118502,0.104998,0.132622,0.115254,0.148149,0.126541,0.164954,0.138767,0.182913,0.151840,0.201899,0.165668,0.221784,0.180160,0.242443,0.195223,0.263750,0.210765,0.284385,0.225822,0.307606,0.242766,0.332747,0.261110,0.359569,0.280681,0.387834,0.301305,0.417304,0.322808,
0.447742,0.345017,0.478909,0.367758,0.510567,0.390857,0.542480,0.414142,0.574407,0.437438,0.606113,0.460572,0.637358,0.483369,0.667905,0.505658,0.697516,0.527263,0.725953,0.548012,0.994882,0.744233,1.074570,0.744233,1.074570,-0.124029,0.931099,-0.124029,0.930726,0.197717,0.930353,0.519464,0.499180,0.197759,0.068007,-0.123947,-0.074731,-0.124029,-0.074731,0.744233,
0.068747,0.744233,0.068747,0.406986,0.068747,0.406986,$1*%
%AMFreePoly4*
4,1,181,0.313898,0.744212,0.329394,0.744211,0.370812,0.744199,0.410509,0.744176,0.448409,0.744143,0.484433,0.744099,0.518505,0.744046,0.550548,0.743982,0.580483,0.743909,0.608234,0.743827,0.633723,0.743735,0.656872,0.743635,0.677605,0.743527,0.695844,0.743410,0.711511,0.743285,0.724530,0.743153,0.734822,0.743013,0.742311,0.742866,0.746919,0.742712,0.765300,0.741620,
0.792054,0.739291,0.816538,0.736161,0.839122,0.732172,0.860175,0.727264,0.880066,0.721378,0.899954,0.714129,0.922318,0.703905,0.942262,0.692199,0.959866,0.678908,0.975210,0.663926,0.988374,0.647150,0.999436,0.628476,1.008478,0.607800,1.015577,0.585016,1.020814,0.560023,1.024268,0.532714,1.024308,0.532253,1.024561,0.528022,1.024784,0.521829,1.024977,0.513591,
1.025141,0.503226,1.025275,0.490650,1.025381,0.475780,1.025458,0.458533,1.025508,0.438826,1.025529,0.416576,1.025524,0.391701,1.025492,0.364116,1.025433,0.333739,1.025349,0.300487,1.025318,0.289715,1.025233,0.261007,1.025149,0.235055,1.025064,0.211710,1.024976,0.190822,1.024882,0.172242,1.024782,0.155820,1.024672,0.141407,1.024552,0.128854,1.024418,0.118010,
1.024270,0.108727,1.024104,0.100855,1.023919,0.094244,1.023713,0.088745,1.023484,0.084209,1.023230,0.080485,1.022949,0.077425,1.022638,0.074879,1.022297,0.072698,1.021170,0.066444,1.016388,0.043784,1.010876,0.023626,1.004491,0.005648,0.997090,-0.010475,0.988530,-0.025063,0.978668,-0.038440,0.967359,-0.050927,0.957464,-0.060150,0.940664,-0.073051,0.921860,-0.084428,
0.900958,-0.094314,0.877866,-0.102741,0.852488,-0.109741,0.824732,-0.115348,0.794505,-0.119594,0.761711,-0.122511,0.760380,-0.122580,0.755247,-0.122731,0.747246,-0.122876,0.736436,-0.123012,0.722881,-0.123141,0.706643,-0.123262,0.687783,-0.123374,0.666363,-0.123478,0.642445,-0.123573,0.616092,-0.123660,0.587364,-0.123737,0.556324,-0.123805,0.523033,-0.123864,0.487554,-0.123913,
0.449948,-0.123952,0.410278,-0.123980,0.368605,-0.123999,0.324991,-0.124007,-0.089541,-0.124029,-0.089541,0.615547,0.074645,0.615547,0.074645,0.004595,0.413740,0.005035,0.433090,0.005060,0.469832,0.005104,0.503793,0.005146,0.535091,0.005186,0.563843,0.005230,0.590167,0.005279,0.614183,0.005337,0.636007,0.005407,0.655758,0.005492,0.673554,0.005595,0.689512,0.005720,
0.703752,0.005870,0.716391,0.006047,0.727547,0.006255,0.737338,0.006496,0.745882,0.006775,0.753297,0.007094,0.759702,0.007457,0.765214,0.007865,0.769951,0.008324,0.774032,0.008835,0.777575,0.009401,0.780697,0.010027,0.783516,0.010715,0.786151,0.011468,0.788720,0.012289,0.791341,0.013182,0.794132,0.014149,0.797210,0.015194,0.801711,0.016743,0.810985,0.020469,
0.818680,0.024594,0.825753,0.029682,0.833165,0.036295,0.838456,0.041941,0.846530,0.053656,0.852863,0.067553,0.857536,0.083791,0.860814,0.098583,0.860814,0.524579,0.857544,0.539296,0.854239,0.551617,0.849523,0.563370,0.843457,0.573443,0.835723,0.582459,0.829369,0.588175,0.819304,0.595087,0.807602,0.600851,0.794019,0.605547,0.778308,0.609255,0.760224,0.612057,
0.739524,0.614032,0.738586,0.614088,0.733673,0.614263,0.725895,0.614428,0.715324,0.614582,0.702033,0.614726,0.686092,0.614860,0.667574,0.614982,0.646549,0.615093,0.623091,0.615192,0.597269,0.615280,0.569156,0.615355,0.538823,0.615417,0.506343,0.615466,0.471786,0.615502,0.435225,0.615525,0.396730,0.615534,0.074645,0.615547,-0.089541,0.615547,-0.089541,0.744233,
0.313898,0.744212,0.313898,0.744212,$1*%
%AMFreePoly5*
4,1,34,0.084421,-0.184029,-0.079765,-0.184029,-0.079765,0.249116,-0.079762,0.280411,-0.079753,0.315353,-0.079738,0.349426,-0.079717,0.382515,-0.079690,0.414502,-0.079657,0.445272,-0.079620,0.474709,-0.079577,0.502696,-0.079530,0.529118,-0.079478,0.553859,-0.079423,0.576802,-0.079363,0.597831,-0.079300,0.616831,-0.079233,0.633685,-0.079164,0.648277,-0.079091,0.660491,-0.079016,0.670211,
-0.078939,0.677321,-0.078860,0.681705,-0.078779,0.683247,-0.078157,0.683357,-0.074910,0.683536,-0.069138,0.683701,-0.061112,0.683850,-0.051103,0.683979,-0.039385,0.684085,-0.026228,0.684165,-0.011904,0.684215,0.003314,0.684233,0.084421,0.684233,0.084421,-0.184029,0.084421,-0.184029,$1*%
%AMFreePoly6*
4,1,223,0.533046,0.464006,0.560050,0.463987,0.586556,0.463959,0.612387,0.463920,0.637369,0.463872,0.661326,0.463814,0.684081,0.463747,0.705460,0.463669,0.725286,0.463582,0.743383,0.463485,0.759577,0.463378,0.773691,0.463261,0.785549,0.463134,0.794977,0.462998,0.801797,0.462851,0.805835,0.462694,0.809248,0.462474,0.830305,0.460737,0.849006,0.458433,0.865846,0.455443,
0.881320,0.451648,0.895924,0.446930,0.910155,0.441169,0.924506,0.434247,0.925882,0.433527,0.943719,0.422490,0.959403,0.409438,0.972880,0.394443,0.984093,0.377575,0.992987,0.358905,0.999505,0.338505,1.000264,0.335510,1.001227,0.331773,1.002118,0.328305,1.002938,0.324986,1.003692,0.321698,1.004382,0.318320,1.005011,0.314732,1.005582,0.310816,1.006098,0.306452,
1.006562,0.301521,1.006978,0.295902,1.007348,0.289476,1.007675,0.282124,1.007962,0.273726,1.008212,0.264163,1.008429,0.253315,1.008615,0.241063,1.008774,0.227287,1.008908,0.211867,1.009020,0.194684,1.009113,0.175619,1.009192,0.154552,1.009257,0.131363,1.009313,0.105933,1.009362,0.078142,1.009408,0.047871,1.009454,0.015001,1.009502,-0.020589,1.009556,-0.059017,
1.010053,-0.404029,0.844293,-0.404029,0.844293,-0.067094,0.844292,-0.034112,0.844287,0.001018,0.844278,0.033401,0.844263,0.063151,0.844243,0.090381,0.844216,0.115203,0.844182,0.137732,0.844139,0.158080,0.844088,0.176361,0.844027,0.192687,0.843956,0.207172,0.843874,0.219928,0.843780,0.231069,0.843673,0.240709,0.843553,0.248960,0.843419,0.255935,0.843270,0.261748,
0.843106,0.266511,0.842926,0.270338,0.842728,0.273342,0.842513,0.275636,0.842279,0.277334,0.842026,0.278547,0.841693,0.279782,0.836778,0.292623,0.829625,0.303717,0.820189,0.313093,0.808426,0.320781,0.794289,0.326811,0.777734,0.331215,0.758715,0.334021,0.757371,0.334117,0.752564,0.334299,0.745076,0.334468,0.735089,0.334626,0.722784,0.334772,0.708343,0.334906,
0.691949,0.335028,0.673782,0.335138,0.654026,0.335236,0.632862,0.335322,0.610471,0.335397,0.587037,0.335459,0.562740,0.335509,0.537763,0.335548,0.512288,0.335574,0.486496,0.335589,0.460570,0.335592,0.434691,0.335583,0.409041,0.335562,0.383803,0.335529,0.359158,0.335484,0.335288,0.335427,0.312375,0.335358,0.290601,0.335278,0.270149,0.335185,0.251199,0.335081,
0.233933,0.334964,0.218535,0.334836,0.205185,0.334696,0.194065,0.334544,0.185359,0.334380,0.179246,0.334204,0.175910,0.334016,0.159412,0.331646,0.142509,0.327411,0.128049,0.321571,0.115997,0.314107,0.106317,0.305001,0.098977,0.294237,0.098866,0.294030,0.097893,0.292277,0.096994,0.290699,0.096166,0.289178,0.095405,0.287598,0.094709,0.285845,0.094075,0.283801,
0.093500,0.281351,0.092981,0.278379,0.092515,0.274769,0.092100,0.270405,0.091732,0.265170,0.091408,0.258949,0.091127,0.251626,0.090884,0.243085,0.090677,0.233209,0.090503,0.221883,0.090360,0.208991,0.090244,0.194417,0.090152,0.178044,0.090082,0.159757,0.090030,0.139440,0.089995,0.116977,0.089972,0.092251,0.089959,0.065147,0.089953,0.035549,0.089952,0.003341,
0.089952,-0.031594,0.089951,-0.069371,0.089925,-0.404029,-0.074260,-0.404029,-0.074233,-0.064934,-0.074233,-0.056895,-0.074227,-0.019475,-0.074217,0.015124,-0.074202,0.047016,-0.074181,0.076313,-0.074153,0.103130,-0.074119,0.127580,-0.074076,0.149778,-0.074025,0.169835,-0.073965,0.187867,-0.073894,0.203987,-0.073813,0.218309,-0.073720,0.230945,-0.073615,0.242011,-0.073498,0.251618,
-0.073366,0.259882,-0.073220,0.266916,-0.073060,0.272833,-0.072883,0.277748,-0.072690,0.281773,-0.072480,0.285022,-0.072252,0.287609,-0.072005,0.289648,-0.070903,0.296724,-0.065671,0.320281,-0.058291,0.341867,-0.048721,0.361574,-0.036916,0.379497,-0.022834,0.395730,-0.016870,0.401474,-0.003985,0.412081,0.010583,0.421761,0.027473,0.430958,0.034325,0.434254,0.056097,0.443200,
0.079213,0.450434,0.103987,0.456031,0.130734,0.460065,0.159766,0.462612,0.162074,0.462714,0.168001,0.462866,0.176592,0.463008,0.187672,0.463141,0.201065,0.463265,0.216596,0.463380,0.234088,0.463485,0.253366,0.463581,0.274255,0.463667,0.296578,0.463744,0.320160,0.463811,0.344824,0.463869,0.370397,0.463917,0.396701,0.463956,0.423561,0.463985,0.450801,0.464005,
0.478246,0.464015,0.505719,0.464015,0.533046,0.464006,0.533046,0.464006,$1*%
%AMFreePoly7*
4,1,184,0.894083,0.285396,0.162643,0.284604,0.148215,0.280620,0.140689,0.278330,0.125966,0.272283,0.113823,0.264855,0.104221,0.256019,0.097122,0.245749,0.096154,0.243975,0.095065,0.242029,0.094077,0.240196,0.093185,0.238338,0.092383,0.236315,0.091667,0.233986,0.091032,0.231212,0.090474,0.227854,0.089987,0.223772,0.089566,0.218826,0.089207,0.212877,0.088905,0.205785,
0.088655,0.197410,0.088453,0.187613,0.088293,0.176254,0.088170,0.163194,0.088081,0.148292,0.088019,0.131409,0.087981,0.112407,0.087960,0.091143,0.087954,0.067481,0.087956,0.041279,0.087962,0.012397,0.087967,-0.019302,0.087968,-0.035011,0.087970,-0.065453,0.087973,-0.093142,0.087983,-0.118217,0.088004,-0.140816,0.088041,-0.161079,0.088097,-0.179143,0.088177,-0.195148,
0.088286,-0.209231,0.088427,-0.221532,0.088606,-0.232189,0.088825,-0.241342,0.089091,-0.249127,0.089407,-0.255685,0.089777,-0.261153,0.090206,-0.265671,0.090698,-0.269377,0.091257,-0.272409,0.091889,-0.274907,0.092597,-0.277009,0.093385,-0.278853,0.094258,-0.280578,0.095220,-0.282323,0.096276,-0.284226,0.102003,-0.292642,0.111022,-0.301664,0.122093,-0.309466,0.134767,-0.315738,
0.148591,-0.320169,0.149299,-0.320338,0.151761,-0.320894,0.154316,-0.321409,0.157079,-0.321885,0.160163,-0.322323,0.163683,-0.322725,0.167755,-0.323092,0.172493,-0.323425,0.178011,-0.323727,0.184424,-0.323999,0.191847,-0.324243,0.200394,-0.324459,0.210180,-0.324651,0.221320,-0.324818,0.233927,-0.324964,0.248118,-0.325088,0.264006,-0.325194,0.281706,-0.325282,0.301333,-0.325354,
0.323001,-0.325412,0.346825,-0.325457,0.372919,-0.325491,0.401399,-0.325515,0.432379,-0.325531,0.465973,-0.325540,0.502296,-0.325545,0.541462,-0.325546,0.894083,-0.325546,0.894083,-0.454326,0.523926,-0.453788,0.487637,-0.453732,0.447892,-0.453663,0.410961,-0.453591,0.376767,-0.453514,0.345233,-0.453431,0.316282,-0.453344,0.289836,-0.453250,0.265818,-0.453149,0.244150,-0.453042,
0.224755,-0.452928,0.207556,-0.452805,0.192475,-0.452675,0.179434,-0.452535,0.168358,-0.452386,0.159167,-0.452228,0.151784,-0.452059,0.146134,-0.451880,0.142136,-0.451690,0.139716,-0.451488,0.129032,-0.450053,0.100521,-0.445150,0.074518,-0.438966,0.050879,-0.431444,0.029459,-0.422527,0.010114,-0.412157,-0.007300,-0.400278,-0.022926,-0.386832,-0.030704,-0.378898,-0.042344,-0.364820,
-0.052076,-0.349726,-0.060136,-0.333172,-0.066762,-0.314711,-0.072189,-0.293898,-0.075501,-0.278953,-0.075501,-0.000861,-0.075498,0.030031,-0.075491,0.058179,-0.075478,0.083719,-0.075459,0.106786,-0.075432,0.127516,-0.075396,0.146044,-0.075348,0.162506,-0.075289,0.177038,-0.075216,0.189776,-0.075129,0.200854,-0.075025,0.210410,-0.074904,0.218577,-0.074764,0.225492,-0.074604,0.231291,
-0.074422,0.236108,-0.074218,0.240081,-0.073989,0.243343,-0.073735,0.246032,-0.073454,0.248282,-0.073144,0.250229,-0.072805,0.252009,-0.071402,0.258470,-0.064639,0.281934,-0.055649,0.303459,-0.044427,0.323062,-0.043823,0.323961,-0.037047,0.332809,-0.028538,0.342284,-0.019054,0.351632,-0.009353,0.360104,-0.000191,0.366948,0.019103,0.378489,0.041682,0.389062,0.066269,0.397774,
0.092960,0.404651,0.121848,0.409723,0.153028,0.413017,0.153298,0.413029,0.156133,0.413074,0.161763,0.413121,0.170059,0.413168,0.180892,0.413216,0.194134,0.413263,0.209656,0.413311,0.227328,0.413358,0.247024,0.413404,0.268613,0.413449,0.291966,0.413493,0.316956,0.413536,0.343454,0.413577,0.371330,0.413616,0.400456,0.413653,0.430703,0.413687,0.461942,0.413718,
0.494046,0.413747,0.526884,0.413772,0.894083,0.414030,0.894083,0.285396,0.894083,0.285396,$1*%
%AMFreePoly8*
4,1,250,-0.066911,0.474026,-0.029886,0.474008,0.004963,0.473974,0.037575,0.473927,0.067891,0.473865,0.095849,0.473788,0.121390,0.473699,0.144453,0.473596,0.164979,0.473479,0.182908,0.473350,0.198179,0.473209,0.210732,0.473055,0.220507,0.472889,0.227444,0.472711,0.231483,0.472522,0.237137,0.472068,0.265071,0.469006,0.290460,0.464759,0.313456,0.459297,0.334210,0.452591,
0.334816,0.452364,0.358101,0.442428,0.378810,0.431054,0.396964,0.418223,0.412579,0.403920,0.425675,0.388126,0.436271,0.370825,0.444385,0.352000,0.446185,0.346852,0.448098,0.341211,0.449720,0.336013,0.451078,0.330975,0.452198,0.325813,0.453106,0.320243,0.453827,0.313983,0.454388,0.306749,0.454815,0.298257,0.455134,0.288225,0.455370,0.276368,0.455550,0.262402,
0.455699,0.246046,0.455845,0.227015,0.455901,0.219124,0.456011,0.199114,0.456045,0.181718,0.455990,0.166684,0.455834,0.153757,0.455565,0.142686,0.455170,0.133217,0.454638,0.125097,0.453956,0.118075,0.453111,0.111896,0.452092,0.106308,0.450886,0.101058,0.449481,0.095893,0.448048,0.091184,0.443513,0.079144,0.437945,0.068650,0.430795,0.058772,0.421513,0.048579,
0.408658,0.036859,0.391868,0.024655,0.374014,0.014706,0.355658,0.007361,0.352150,0.006203,0.348261,0.004834,0.346233,0.004003,0.346162,0.003934,0.347190,0.003066,0.350370,0.001668,0.355107,0.000007,0.367310,-0.004652,0.383421,-0.013403,0.397960,-0.024494,0.410787,-0.037750,0.421759,-0.052993,0.430735,-0.070047,0.437575,-0.088735,0.442136,-0.108879,0.442139,-0.108898,
0.442861,-0.115151,0.443453,-0.123868,0.443917,-0.134561,0.444252,-0.146738,0.444456,-0.159912,0.444531,-0.173593,0.444476,-0.187292,0.444290,-0.200519,0.443972,-0.212784,0.443524,-0.223600,0.442943,-0.232475,0.442231,-0.238921,0.442093,-0.239803,0.437360,-0.262045,0.430475,-0.282284,0.421412,-0.300576,0.410142,-0.316976,0.396639,-0.331537,0.395515,-0.332578,0.379667,-0.345468,
0.361931,-0.356757,0.342202,-0.366479,0.320374,-0.374669,0.296342,-0.381360,0.269999,-0.386589,0.241240,-0.390390,0.209960,-0.392797,0.206929,-0.392927,0.199447,-0.393130,0.189048,-0.393313,0.175759,-0.393475,0.159607,-0.393616,0.140617,-0.393736,0.118817,-0.393835,0.094232,-0.393912,0.066889,-0.393969,0.036814,-0.394003,0.004034,-0.394017,-0.031425,-0.394008,-0.069537,-0.393978,
-0.110275,-0.393927,-0.400928,-0.393493,-0.401314,-0.329560,-0.401699,-0.265627,-0.095869,-0.265175,-0.089214,-0.265166,-0.054206,-0.265112,-0.022011,-0.265060,0.007495,-0.265008,0.034436,-0.264954,0.058934,-0.264898,0.081114,-0.264838,0.101099,-0.264773,0.119012,-0.264703,0.134977,-0.264625,0.149117,-0.264538,0.161556,-0.264442,0.172416,-0.264335,0.181822,-0.264216,0.189898,-0.264083,
0.196765,-0.263937,0.202549,-0.263774,0.207372,-0.263595,0.211358,-0.263398,0.214630,-0.263182,0.217312,-0.262945,0.219527,-0.262687,0.221398,-0.262406,0.223050,-0.262101,0.235632,-0.259124,0.246579,-0.255351,0.255535,-0.250693,0.262986,-0.244896,0.269417,-0.237704,0.270432,-0.236357,0.272710,-0.233097,0.274566,-0.229844,0.276047,-0.226267,0.277201,-0.222038,0.278074,-0.216826,
0.278713,-0.210304,0.279165,-0.202140,0.279478,-0.192007,0.279698,-0.179573,0.279873,-0.164511,0.279893,-0.162473,0.280015,-0.147592,0.280035,-0.135283,0.279921,-0.125202,0.279642,-0.117006,0.279164,-0.110352,0.278455,-0.104896,0.277483,-0.100294,0.276214,-0.096204,0.274618,-0.092282,0.272661,-0.088185,0.268629,-0.081430,0.262300,-0.074348,0.254177,-0.068520,0.243885,-0.063686,
0.231049,-0.059589,0.218836,-0.056317,-0.363950,-0.054767,-0.364720,0.073087,-0.078859,0.073598,-0.050795,0.073647,-0.018414,0.073702,0.011242,0.073755,0.038304,0.073808,0.062901,0.073865,0.085163,0.073930,0.105220,0.074005,0.123202,0.074095,0.139238,0.074203,0.153457,0.074332,0.165991,0.074485,0.176968,0.074668,0.186519,0.074882,0.194773,0.075131,0.201859,0.075419,
0.207909,0.075749,0.213050,0.076125,0.217414,0.076549,0.221130,0.077027,0.224328,0.077561,0.227137,0.078154,0.229687,0.078810,0.232109,0.079533,0.234531,0.080326,0.237084,0.081192,0.239897,0.082135,0.242024,0.082851,0.256147,0.088622,0.267622,0.095389,0.276633,0.103349,0.283362,0.112695,0.287993,0.123624,0.290709,0.136330,0.290791,0.136997,0.291226,0.142773,
0.291546,0.151397,0.291751,0.162775,0.291838,0.176815,0.291807,0.193423,0.291656,0.212506,0.291540,0.223211,0.291345,0.238241,0.291110,0.250811,0.290801,0.261230,0.290384,0.269806,0.289826,0.276847,0.289093,0.282660,0.288151,0.287554,0.286966,0.291836,0.285505,0.295814,0.283733,0.299797,0.281618,0.304092,0.281130,0.305037,0.274850,0.314468,0.266565,0.322593,
0.256059,0.329555,0.243116,0.335501,0.227520,0.340576,0.212920,0.344604,-0.094004,0.345344,-0.400928,0.346083,-0.401314,0.410057,-0.401699,0.474030,-0.095055,0.474030,-0.066911,0.474026,-0.066911,0.474026,$1*%
G04 Aperture macros list end*
G04 #@! TA.AperFunction,ComponentPad*
%ADD10C,3.500001*%
G04 #@! TD*
G04 #@! TA.AperFunction,ComponentPad*
%ADD11O,1.100000X2.200000*%
G04 #@! TD*
G04 #@! TA.AperFunction,ComponentPad*
%ADD12O,1.300000X1.900000*%
G04 #@! TD*
G04 #@! TA.AperFunction,SMDPad,CuDef*
%ADD13FreePoly0,180.000000*%
G04 #@! TD*
G04 #@! TA.AperFunction,SMDPad,CuDef*
%ADD14FreePoly1,180.000000*%
G04 #@! TD*
G04 #@! TA.AperFunction,SMDPad,CuDef*
%ADD15FreePoly2,180.000000*%
G04 #@! TD*
G04 #@! TA.AperFunction,SMDPad,CuDef*
%ADD16FreePoly3,180.000000*%
G04 #@! TD*
G04 #@! TA.AperFunction,SMDPad,CuDef*
%ADD17FreePoly4,180.000000*%
G04 #@! TD*
G04 #@! TA.AperFunction,SMDPad,CuDef*
%ADD18FreePoly5,180.000000*%
G04 #@! TD*
G04 #@! TA.AperFunction,SMDPad,CuDef*
%ADD19FreePoly6,180.000000*%
G04 #@! TD*
G04 #@! TA.AperFunction,SMDPad,CuDef*
%ADD20FreePoly7,180.000000*%
G04 #@! TD*
G04 #@! TA.AperFunction,SMDPad,CuDef*
%ADD21FreePoly8,180.000000*%
G04 #@! TD*
G04 #@! TA.AperFunction,ViaPad*
%ADD22C,0.800000*%
G04 #@! TD*
G04 #@! TA.AperFunction,ViaPad*
%ADD23C,0.450000*%
G04 #@! TD*
G04 #@! TA.AperFunction,ViaPad*
%ADD24C,0.508000*%
G04 #@! TD*
G04 #@! TA.AperFunction,Conductor*
%ADD25C,0.152400*%
G04 #@! TD*
G04 #@! TA.AperFunction,Conductor*
%ADD26C,0.254000*%
G04 #@! TD*
G04 #@! TA.AperFunction,Conductor*
%ADD27C,0.200000*%
G04 #@! TD*
G04 #@! TA.AperFunction,Conductor*
%ADD28C,0.508000*%
G04 #@! TD*
G04 APERTURE END LIST*
D10*
X93232500Y-62853000D03*
D11*
X70702500Y-63343000D03*
D12*
X79302500Y-59143000D03*
D11*
X79302500Y-63343000D03*
D12*
X70702500Y-59143000D03*
D13*
X75212500Y-57510000D03*
D14*
X73882500Y-57530000D03*
D15*
X74222500Y-57710000D03*
D16*
X76862500Y-57540000D03*
D17*
X72852500Y-57540000D03*
D18*
X75542500Y-57600000D03*
D19*
X78102500Y-57820000D03*
D20*
X75902500Y-59410000D03*
D21*
X74482500Y-59350000D03*
D22*
X68552500Y-65463000D03*
D23*
X85452500Y-65793000D03*
D22*
X88362500Y-62003000D03*
D23*
X80632500Y-63233000D03*
X78512500Y-66023000D03*
X73992500Y-65853000D03*
X86442500Y-64433000D03*
X86412500Y-62653000D03*
D24*
X75512500Y-65833000D03*
D23*
X81812500Y-66540300D03*
X84462500Y-65893000D03*
D24*
X74742500Y-66593000D03*
D23*
X87046000Y-63909000D03*
X76242500Y-66273000D03*
X83602500Y-65853000D03*
X86412500Y-61983000D03*
D24*
X72552500Y-65239000D03*
X77452500Y-65239000D03*
D25*
X84112500Y-67133000D02*
X85452500Y-65793000D01*
X68552500Y-65463000D02*
X70222500Y-67133000D01*
X70222500Y-67133000D02*
X84112500Y-67133000D01*
D26*
X88532500Y-62173000D02*
X90632500Y-62173000D01*
X88362500Y-62003000D02*
X88532500Y-62173000D01*
X90632500Y-62173000D02*
X91492500Y-61313000D01*
X91492500Y-61313000D02*
X93522500Y-61313000D01*
X80632500Y-63233000D02*
X80632500Y-65743000D01*
X80352500Y-66023000D02*
X78512500Y-66023000D01*
X80392500Y-65983000D02*
X80352500Y-66023000D01*
X80632500Y-65743000D02*
X80392500Y-65983000D01*
D25*
X75492500Y-65853000D02*
X75512500Y-65833000D01*
D27*
X86412500Y-62663000D02*
X86392500Y-62683000D01*
D25*
X83795200Y-66540300D02*
X84382500Y-65953000D01*
D26*
X86392500Y-64383000D02*
X86392500Y-62683000D01*
X86392500Y-62683000D02*
X86382500Y-62673000D01*
D25*
X84442500Y-65893000D02*
X84462500Y-65893000D01*
X73992500Y-65853000D02*
X75492500Y-65853000D01*
D26*
X86442500Y-64433000D02*
X86392500Y-64383000D01*
D27*
X86412500Y-62653000D02*
X86412500Y-62663000D01*
D25*
X84382500Y-65953000D02*
X84442500Y-65893000D01*
X81812500Y-66540300D02*
X83795200Y-66540300D01*
X83602500Y-65853000D02*
X81492500Y-65853000D01*
X76242500Y-66273000D02*
X75922500Y-66593000D01*
D27*
X86412500Y-61983000D02*
X86642500Y-61983000D01*
D25*
X75922500Y-66593000D02*
X74742500Y-66593000D01*
D27*
X86642500Y-61983000D02*
X87046000Y-62386500D01*
D25*
X81492500Y-65853000D02*
X80742500Y-66603000D01*
D27*
X87046000Y-62386500D02*
X87046000Y-63909000D01*
D25*
X80742500Y-66603000D02*
X76572500Y-66603000D01*
X76572500Y-66603000D02*
X76242500Y-66273000D01*
D28*
X72552500Y-65239000D02*
X77452500Y-65239000D01*
G04 #@! TA.AperFunction,Conductor*
G36*
X85339417Y-57835854D02*
G01*
X85387726Y-57853520D01*
X85413377Y-57898108D01*
X85414500Y-57911053D01*
X85414500Y-65309050D01*
X85396907Y-65357388D01*
X85351064Y-65383324D01*
X85333866Y-65386048D01*
X85326784Y-65387169D01*
X85326783Y-65387169D01*
X85320938Y-65388095D01*
X85315667Y-65390781D01*
X85315666Y-65390781D01*
X85242259Y-65428184D01*
X85202255Y-65448567D01*
X85108067Y-65542755D01*
X85105379Y-65548031D01*
X85105378Y-65548032D01*
X85102971Y-65552757D01*
X85047595Y-65661438D01*
X85026758Y-65793000D01*
X85027684Y-65798847D01*
X85034675Y-65842990D01*
X85024859Y-65893485D01*
X85013575Y-65907927D01*
X85011780Y-65909722D01*
X84965160Y-65931462D01*
X84915473Y-65918148D01*
X84885968Y-65876011D01*
X84884332Y-65868312D01*
X84868331Y-65767285D01*
X84867405Y-65761438D01*
X84818902Y-65666246D01*
X84809622Y-65648032D01*
X84809621Y-65648031D01*
X84806933Y-65642755D01*
X84712745Y-65548567D01*
X84701339Y-65542755D01*
X84642464Y-65512757D01*
X84594062Y-65488095D01*
X84462500Y-65467258D01*
X84330938Y-65488095D01*
X84282536Y-65512757D01*
X84223662Y-65542755D01*
X84212255Y-65548567D01*
X84118067Y-65642755D01*
X84109695Y-65659186D01*
X84072076Y-65694268D01*
X84020706Y-65696962D01*
X83979624Y-65666005D01*
X83975688Y-65659188D01*
X83949623Y-65608034D01*
X83949622Y-65608033D01*
X83946933Y-65602755D01*
X83852745Y-65508567D01*
X83825850Y-65494863D01*
X83772900Y-65467884D01*
X83734062Y-65448095D01*
X83602500Y-65427258D01*
X83470938Y-65448095D01*
X83432100Y-65467884D01*
X83379151Y-65494863D01*
X83352255Y-65508567D01*
X83258948Y-65601874D01*
X83212328Y-65623614D01*
X83205774Y-65623900D01*
X81500460Y-65623900D01*
X81496525Y-65623797D01*
X81490884Y-65623501D01*
X81455860Y-65621666D01*
X81448480Y-65624499D01*
X81432761Y-65630533D01*
X81421447Y-65633885D01*
X81397235Y-65639031D01*
X81390842Y-65643676D01*
X81390840Y-65643677D01*
X81390248Y-65644107D01*
X81372998Y-65653473D01*
X81372316Y-65653735D01*
X81372315Y-65653736D01*
X81364936Y-65656568D01*
X81347440Y-65674064D01*
X81338468Y-65681728D01*
X81318442Y-65696278D01*
X81314490Y-65703123D01*
X81314124Y-65703757D01*
X81302173Y-65719331D01*
X80669629Y-66351874D01*
X80623009Y-66373614D01*
X80616455Y-66373900D01*
X80582027Y-66373900D01*
X80533689Y-66356307D01*
X80507969Y-66311758D01*
X80516902Y-66261100D01*
X80533924Y-66243582D01*
X80532717Y-66242250D01*
X80537860Y-66237587D01*
X80543771Y-66233943D01*
X80560926Y-66211383D01*
X80567611Y-66203727D01*
X80608826Y-66162512D01*
X80794664Y-65976675D01*
X80798280Y-65973553D01*
X80802274Y-65971601D01*
X80833835Y-65937578D01*
X80835792Y-65935547D01*
X80848826Y-65922513D01*
X80850786Y-65919656D01*
X80852284Y-65917853D01*
X80854989Y-65914773D01*
X80868466Y-65900246D01*
X80868468Y-65900244D01*
X80873187Y-65895156D01*
X80877862Y-65883436D01*
X80885695Y-65868768D01*
X80892832Y-65858364D01*
X80894435Y-65851610D01*
X80894436Y-65851607D01*
X80898847Y-65833015D01*
X80902166Y-65822517D01*
X80911825Y-65798308D01*
X80912400Y-65792444D01*
X80912400Y-65784707D01*
X80914432Y-65767343D01*
X80915305Y-65763663D01*
X80916908Y-65756910D01*
X80913087Y-65728834D01*
X80912400Y-65718693D01*
X80912400Y-63578926D01*
X80929993Y-63530588D01*
X80934426Y-63525752D01*
X80976933Y-63483245D01*
X81037405Y-63364562D01*
X81058242Y-63233000D01*
X81037405Y-63101438D01*
X80976933Y-62982755D01*
X80882745Y-62888567D01*
X80764062Y-62828095D01*
X80632500Y-62807258D01*
X80500938Y-62828095D01*
X80382255Y-62888567D01*
X80288067Y-62982755D01*
X80227595Y-63101438D01*
X80206758Y-63233000D01*
X80227595Y-63364562D01*
X80288067Y-63483245D01*
X80330574Y-63525752D01*
X80352314Y-63572372D01*
X80352600Y-63578926D01*
X80352600Y-65595914D01*
X80335007Y-65644252D01*
X80330574Y-65649088D01*
X80258588Y-65721074D01*
X80211968Y-65742814D01*
X80205414Y-65743100D01*
X78858426Y-65743100D01*
X78810088Y-65725507D01*
X78805252Y-65721074D01*
X78762745Y-65678567D01*
X78753908Y-65674064D01*
X78695113Y-65644107D01*
X78644062Y-65618095D01*
X78576131Y-65607336D01*
X78518347Y-65598184D01*
X78512500Y-65597258D01*
X78506653Y-65598184D01*
X78448869Y-65607336D01*
X78380938Y-65618095D01*
X78329887Y-65644107D01*
X78271093Y-65674064D01*
X78262255Y-65678567D01*
X78168067Y-65772755D01*
X78165379Y-65778031D01*
X78165378Y-65778032D01*
X78157578Y-65793340D01*
X78107595Y-65891438D01*
X78086758Y-66023000D01*
X78107595Y-66154562D01*
X78161879Y-66261100D01*
X78163642Y-66264560D01*
X78169911Y-66315616D01*
X78141895Y-66358757D01*
X78096638Y-66373900D01*
X76742739Y-66373900D01*
X76694401Y-66356307D01*
X76668681Y-66311758D01*
X76668465Y-66286937D01*
X76669746Y-66278848D01*
X76669746Y-66278846D01*
X76670672Y-66273000D01*
X76663611Y-66228415D01*
X76650642Y-66146535D01*
X76649716Y-66140688D01*
X76588898Y-66021327D01*
X76494173Y-65926602D01*
X76477894Y-65918307D01*
X76419806Y-65888710D01*
X76374812Y-65865784D01*
X76242500Y-65844828D01*
X76110188Y-65865784D01*
X76091769Y-65875169D01*
X76049086Y-65896917D01*
X75998030Y-65903186D01*
X75954889Y-65875169D01*
X75940774Y-65832984D01*
X75940672Y-65833000D01*
X75940576Y-65832393D01*
X75940576Y-65832392D01*
X75924812Y-65732864D01*
X75934627Y-65682369D01*
X75974603Y-65649997D01*
X75999086Y-65645900D01*
X77312275Y-65645900D01*
X77324039Y-65646826D01*
X77445132Y-65666005D01*
X77452500Y-65667172D01*
X77459869Y-65666005D01*
X77521996Y-65656165D01*
X77584812Y-65646216D01*
X77670709Y-65602449D01*
X77698896Y-65588087D01*
X77698897Y-65588086D01*
X77704173Y-65585398D01*
X77798898Y-65490673D01*
X77859716Y-65371312D01*
X77880672Y-65239000D01*
X77859716Y-65106688D01*
X77798898Y-64987327D01*
X77704173Y-64892602D01*
X77584812Y-64831784D01*
X77452500Y-64810828D01*
X77446653Y-64811754D01*
X77324039Y-64831174D01*
X77312275Y-64832100D01*
X72692725Y-64832100D01*
X72680961Y-64831174D01*
X72558347Y-64811754D01*
X72552500Y-64810828D01*
X72420188Y-64831784D01*
X72300827Y-64892602D01*
X72206102Y-64987327D01*
X72145284Y-65106688D01*
X72124328Y-65239000D01*
X72145284Y-65371312D01*
X72206102Y-65490673D01*
X72300827Y-65585398D01*
X72306103Y-65588086D01*
X72306104Y-65588087D01*
X72334291Y-65602449D01*
X72420188Y-65646216D01*
X72483004Y-65656165D01*
X72545132Y-65666005D01*
X72552500Y-65667172D01*
X72559869Y-65666005D01*
X72680961Y-65646826D01*
X72692725Y-65645900D01*
X73509082Y-65645900D01*
X73557420Y-65663493D01*
X73583140Y-65708042D01*
X73583356Y-65732861D01*
X73564328Y-65853000D01*
X73585284Y-65985312D01*
X73646102Y-66104673D01*
X73740827Y-66199398D01*
X73746103Y-66202086D01*
X73746104Y-66202087D01*
X73778791Y-66218742D01*
X73860188Y-66260216D01*
X73866035Y-66261142D01*
X73977827Y-66278848D01*
X73992500Y-66281172D01*
X74007174Y-66278848D01*
X74118965Y-66261142D01*
X74124812Y-66260216D01*
X74206209Y-66218742D01*
X74238896Y-66202087D01*
X74238897Y-66202086D01*
X74244173Y-66199398D01*
X74338898Y-66104673D01*
X74341008Y-66106783D01*
X74374240Y-66084343D01*
X74392469Y-66082100D01*
X74500449Y-66082100D01*
X74548787Y-66099693D01*
X74574507Y-66144242D01*
X74565574Y-66194900D01*
X74534589Y-66224304D01*
X74508475Y-66237610D01*
X74490827Y-66246602D01*
X74396102Y-66341327D01*
X74393414Y-66346603D01*
X74393413Y-66346604D01*
X74384600Y-66363900D01*
X74335284Y-66460688D01*
X74314328Y-66593000D01*
X74335284Y-66725312D01*
X74359040Y-66771936D01*
X74370568Y-66794560D01*
X74376837Y-66845616D01*
X74348821Y-66888757D01*
X74303564Y-66903900D01*
X70348544Y-66903900D01*
X70300206Y-66886307D01*
X70295370Y-66881874D01*
X69694668Y-66281172D01*
X69106097Y-65692600D01*
X69084358Y-65645982D01*
X69088839Y-65616874D01*
X69088007Y-65616651D01*
X69089283Y-65611890D01*
X69091169Y-65607336D01*
X69110171Y-65463000D01*
X69091169Y-65318664D01*
X69035457Y-65184165D01*
X69032461Y-65180261D01*
X69032459Y-65180257D01*
X68949831Y-65072574D01*
X68946833Y-65068667D01*
X68831336Y-64980043D01*
X68771458Y-64955241D01*
X68701390Y-64926217D01*
X68701388Y-64926216D01*
X68696836Y-64924331D01*
X68552500Y-64905329D01*
X68408164Y-64924331D01*
X68403612Y-64926216D01*
X68403610Y-64926217D01*
X68333868Y-64955106D01*
X68273665Y-64980043D01*
X68269761Y-64983039D01*
X68269757Y-64983041D01*
X68162074Y-65065669D01*
X68158167Y-65068667D01*
X68155169Y-65072574D01*
X68072541Y-65180257D01*
X68072539Y-65180261D01*
X68069543Y-65184165D01*
X68013831Y-65318664D01*
X67994829Y-65463000D01*
X68013831Y-65607336D01*
X68015716Y-65611888D01*
X68015717Y-65611890D01*
X68031502Y-65649997D01*
X68069543Y-65741835D01*
X68072539Y-65745739D01*
X68072541Y-65745743D01*
X68139496Y-65833000D01*
X68158167Y-65857333D01*
X68162074Y-65860331D01*
X68172475Y-65868312D01*
X68273664Y-65945957D01*
X68316183Y-65963569D01*
X68403610Y-65999783D01*
X68403612Y-65999784D01*
X68408164Y-66001669D01*
X68552500Y-66020671D01*
X68557384Y-66020028D01*
X68691953Y-66002312D01*
X68691954Y-66002312D01*
X68696836Y-66001669D01*
X68701386Y-65999784D01*
X68706149Y-65998508D01*
X68706553Y-66000016D01*
X68751543Y-65998053D01*
X68782102Y-66016598D01*
X70054861Y-67289357D01*
X70057571Y-67292212D01*
X70084830Y-67322486D01*
X70092049Y-67325700D01*
X70097293Y-67328035D01*
X70134294Y-67363770D01*
X70139670Y-67414928D01*
X70110904Y-67457572D01*
X70066815Y-67471932D01*
X63899807Y-67480888D01*
X63851446Y-67463366D01*
X63825661Y-67418855D01*
X63824500Y-67405689D01*
X63824500Y-62792000D01*
X71532034Y-62792000D01*
X71551813Y-62942236D01*
X71609802Y-63082233D01*
X71702049Y-63202451D01*
X71822267Y-63294698D01*
X71962264Y-63352687D01*
X71967142Y-63353329D01*
X71967145Y-63353330D01*
X72072347Y-63367180D01*
X72072352Y-63367180D01*
X72074780Y-63367500D01*
X72150220Y-63367500D01*
X72152648Y-63367180D01*
X72152653Y-63367180D01*
X72257855Y-63353330D01*
X72257858Y-63353329D01*
X72262736Y-63352687D01*
X72402733Y-63294698D01*
X72522951Y-63202451D01*
X72615198Y-63082233D01*
X72673187Y-62942236D01*
X72692966Y-62792000D01*
X77312034Y-62792000D01*
X77331813Y-62942236D01*
X77389802Y-63082233D01*
X77482049Y-63202451D01*
X77602267Y-63294698D01*
X77742264Y-63352687D01*
X77747142Y-63353329D01*
X77747145Y-63353330D01*
X77852347Y-63367180D01*
X77852352Y-63367180D01*
X77854780Y-63367500D01*
X77930220Y-63367500D01*
X77932648Y-63367180D01*
X77932653Y-63367180D01*
X78037855Y-63353330D01*
X78037858Y-63353329D01*
X78042736Y-63352687D01*
X78182733Y-63294698D01*
X78302951Y-63202451D01*
X78395198Y-63082233D01*
X78453187Y-62942236D01*
X78472966Y-62792000D01*
X78453187Y-62641764D01*
X78395198Y-62501767D01*
X78302951Y-62381549D01*
X78182733Y-62289302D01*
X78042736Y-62231313D01*
X78037858Y-62230671D01*
X78037855Y-62230670D01*
X77932653Y-62216820D01*
X77932648Y-62216820D01*
X77930220Y-62216500D01*
X77854780Y-62216500D01*
X77852352Y-62216820D01*
X77852347Y-62216820D01*
X77747145Y-62230670D01*
X77747142Y-62230671D01*
X77742264Y-62231313D01*
X77602267Y-62289302D01*
X77482049Y-62381549D01*
X77389802Y-62501767D01*
X77331813Y-62641764D01*
X77312034Y-62792000D01*
X72692966Y-62792000D01*
X72673187Y-62641764D01*
X72615198Y-62501767D01*
X72522951Y-62381549D01*
X72402733Y-62289302D01*
X72262736Y-62231313D01*
X72257858Y-62230671D01*
X72257855Y-62230670D01*
X72152653Y-62216820D01*
X72152648Y-62216820D01*
X72150220Y-62216500D01*
X72074780Y-62216500D01*
X72072352Y-62216820D01*
X72072347Y-62216820D01*
X71967145Y-62230670D01*
X71967142Y-62230671D01*
X71962264Y-62231313D01*
X71822267Y-62289302D01*
X71702049Y-62381549D01*
X71609802Y-62501767D01*
X71551813Y-62641764D01*
X71532034Y-62792000D01*
X63824500Y-62792000D01*
X63824500Y-57955842D01*
X63842093Y-57907504D01*
X63886642Y-57881784D01*
X63899648Y-57880642D01*
X67797950Y-57877936D01*
X71237992Y-57875549D01*
X71286341Y-57893109D01*
X71312091Y-57937639D01*
X71313243Y-57950762D01*
X71313242Y-57956473D01*
X71313242Y-57957061D01*
X71313263Y-57979311D01*
X71313265Y-57980129D01*
X71313315Y-57999836D01*
X71313318Y-58000827D01*
X71313395Y-58018074D01*
X71313403Y-58019442D01*
X71313509Y-58034312D01*
X71313525Y-58036124D01*
X71313659Y-58048700D01*
X71313694Y-58051353D01*
X71313858Y-58061718D01*
X71313935Y-58065623D01*
X71314128Y-58073861D01*
X71314320Y-58080316D01*
X71314543Y-58086509D01*
X71314550Y-58086661D01*
X71314553Y-58086728D01*
X71314736Y-58090543D01*
X71315126Y-58098687D01*
X71315140Y-58098916D01*
X71315142Y-58098960D01*
X71315317Y-58101881D01*
X71315379Y-58102918D01*
X71315398Y-58103176D01*
X71316346Y-58116110D01*
X71316386Y-58116661D01*
X71316426Y-58117122D01*
X71318563Y-58137176D01*
X71322017Y-58164485D01*
X71328877Y-58205381D01*
X71332986Y-58224989D01*
X71333766Y-58228711D01*
X71334114Y-58230374D01*
X71346450Y-58277837D01*
X71353549Y-58300621D01*
X71353907Y-58301581D01*
X71353911Y-58301592D01*
X71372972Y-58352671D01*
X71373334Y-58353641D01*
X71382376Y-58374317D01*
X71411065Y-58430305D01*
X71422127Y-58448979D01*
X71422823Y-58449996D01*
X71444069Y-58481046D01*
X71459971Y-58504287D01*
X71460727Y-58505250D01*
X71460734Y-58505260D01*
X71472367Y-58520085D01*
X71472376Y-58520095D01*
X71473135Y-58521063D01*
X71518391Y-58571497D01*
X71533735Y-58586479D01*
X71583086Y-58628905D01*
X71600690Y-58642196D01*
X71650192Y-58675250D01*
X71670136Y-58686956D01*
X71670955Y-58687382D01*
X71670971Y-58687391D01*
X71715738Y-58710684D01*
X71716586Y-58711125D01*
X71738950Y-58721349D01*
X71776618Y-58736795D01*
X71777277Y-58737035D01*
X71777292Y-58737041D01*
X71793367Y-58742900D01*
X71796506Y-58744044D01*
X71826663Y-58753992D01*
X71827247Y-58754165D01*
X71827254Y-58754167D01*
X71846039Y-58759726D01*
X71846063Y-58759733D01*
X71846554Y-58759878D01*
X71847069Y-58760014D01*
X71847083Y-58760018D01*
X71849725Y-58760716D01*
X71875689Y-58767577D01*
X71876236Y-58767705D01*
X71876258Y-58767710D01*
X71887402Y-58770307D01*
X71896742Y-58772485D01*
X71924021Y-58778070D01*
X71924520Y-58778158D01*
X71924535Y-58778161D01*
X71931957Y-58779472D01*
X71946605Y-58782059D01*
X71946991Y-58782118D01*
X71947029Y-58782124D01*
X71970330Y-58785669D01*
X71970351Y-58785672D01*
X71970818Y-58785743D01*
X71971250Y-58785798D01*
X71971284Y-58785803D01*
X71982673Y-58787258D01*
X71995302Y-58788873D01*
X72015893Y-58791084D01*
X72021775Y-58791596D01*
X72042415Y-58793393D01*
X72042441Y-58793395D01*
X72042647Y-58793413D01*
X72056734Y-58794445D01*
X72075115Y-58795537D01*
X72088422Y-58796154D01*
X72088563Y-58796159D01*
X72088618Y-58796161D01*
X72090912Y-58796237D01*
X72093030Y-58796308D01*
X72095381Y-58796370D01*
X72099986Y-58796493D01*
X72100107Y-58796496D01*
X72100232Y-58796498D01*
X72100291Y-58796500D01*
X72107596Y-58796643D01*
X72110690Y-58796694D01*
X72120982Y-58796834D01*
X72122734Y-58796856D01*
X72122762Y-58796856D01*
X72135781Y-58796988D01*
X72135950Y-58796990D01*
X72135983Y-58796990D01*
X72136890Y-58796998D01*
X72152557Y-58797123D01*
X72153361Y-58797128D01*
X72153361Y-58797129D01*
X72153375Y-58797128D01*
X72168560Y-58797225D01*
X72171597Y-58797245D01*
X72171600Y-58797245D01*
X72172219Y-58797249D01*
X72192952Y-58797357D01*
X72193407Y-58797359D01*
X72193409Y-58797359D01*
X72193675Y-58797360D01*
X72216472Y-58797459D01*
X72216558Y-58797459D01*
X72216923Y-58797461D01*
X72242412Y-58797553D01*
X72242748Y-58797554D01*
X72270499Y-58797636D01*
X72270764Y-58797636D01*
X72300699Y-58797709D01*
X72300926Y-58797710D01*
X72332969Y-58797774D01*
X72333365Y-58797774D01*
X72367067Y-58797827D01*
X72367315Y-58797827D01*
X72367440Y-58797828D01*
X72403464Y-58797872D01*
X72403644Y-58797872D01*
X72441544Y-58797905D01*
X72441693Y-58797905D01*
X72481390Y-58797928D01*
X72481539Y-58797928D01*
X72522957Y-58797940D01*
X72523073Y-58797940D01*
X72538569Y-58797941D01*
X72538575Y-58797941D01*
X72940686Y-58797962D01*
X72942014Y-58797962D01*
X72943326Y-58797868D01*
X72943332Y-58797868D01*
X73011139Y-58793020D01*
X73011140Y-58793020D01*
X73015152Y-58792733D01*
X73016600Y-58792308D01*
X73038971Y-58791908D01*
X73063067Y-58795372D01*
X73081081Y-58797962D01*
X73496327Y-58797962D01*
X73544665Y-58815555D01*
X73570385Y-58860104D01*
X73566015Y-58899732D01*
X73566586Y-58899947D01*
X73566137Y-58901137D01*
X73565668Y-58902265D01*
X73558783Y-58922504D01*
X73542662Y-58981030D01*
X73537929Y-59003272D01*
X73532853Y-59030784D01*
X73532715Y-59031666D01*
X73529646Y-59054678D01*
X73528934Y-59061124D01*
X73526925Y-59083966D01*
X73526344Y-59092841D01*
X73525687Y-59105140D01*
X73525683Y-59105242D01*
X73525680Y-59105297D01*
X73525239Y-59115956D01*
X73524972Y-59123901D01*
X73524654Y-59136166D01*
X73524650Y-59136357D01*
X73524532Y-59142258D01*
X73524346Y-59155485D01*
X73524345Y-59155609D01*
X73524299Y-59160645D01*
X73524299Y-59160736D01*
X73524244Y-59174249D01*
X73524244Y-59174344D01*
X73524248Y-59179223D01*
X73524323Y-59192904D01*
X73524377Y-59198042D01*
X73524581Y-59211216D01*
X73524713Y-59217390D01*
X73525048Y-59229567D01*
X73525337Y-59237710D01*
X73525801Y-59248403D01*
X73526499Y-59260941D01*
X73527091Y-59269658D01*
X73529301Y-59293775D01*
X73530023Y-59300028D01*
X73530072Y-59300387D01*
X73530082Y-59300466D01*
X73531584Y-59311456D01*
X73530366Y-59338480D01*
X73529720Y-59341293D01*
X73525013Y-59364147D01*
X73523994Y-59369735D01*
X73520397Y-59392290D01*
X73519552Y-59398469D01*
X73519525Y-59398697D01*
X73519519Y-59398747D01*
X73518299Y-59409189D01*
X73517221Y-59418414D01*
X73516539Y-59425436D01*
X73515232Y-59441511D01*
X73514700Y-59449631D01*
X73514047Y-59461805D01*
X73513652Y-59471274D01*
X73513358Y-59480207D01*
X73513089Y-59491278D01*
X73512974Y-59497558D01*
X73512818Y-59510485D01*
X73512784Y-59514805D01*
X73512729Y-59529839D01*
X73512727Y-59532722D01*
X73512727Y-59532869D01*
X73512738Y-59538514D01*
X73512761Y-59550118D01*
X73512768Y-59551938D01*
X73512878Y-59571948D01*
X73512883Y-59572770D01*
X73512939Y-59580661D01*
X73512941Y-59580956D01*
X73513087Y-59599987D01*
X73513093Y-59600726D01*
X73513242Y-59617082D01*
X73513264Y-59619023D01*
X73513444Y-59632989D01*
X73513503Y-59636591D01*
X73513504Y-59636663D01*
X73513739Y-59648448D01*
X73513890Y-59654297D01*
X73513897Y-59654552D01*
X73514213Y-59664498D01*
X73514216Y-59664584D01*
X73514262Y-59665695D01*
X73514604Y-59674056D01*
X73515031Y-59682548D01*
X73515921Y-59696470D01*
X73516482Y-59703704D01*
X73516508Y-59703972D01*
X73516511Y-59704009D01*
X73516570Y-59704622D01*
X73518318Y-59722764D01*
X73519039Y-59729024D01*
X73522358Y-59752898D01*
X73523266Y-59758468D01*
X73528254Y-59784742D01*
X73529374Y-59789904D01*
X73535397Y-59814679D01*
X73536755Y-59819717D01*
X73536845Y-59820028D01*
X73536851Y-59820048D01*
X73541266Y-59835235D01*
X73542372Y-59839041D01*
X73543994Y-59844239D01*
X73547888Y-59856200D01*
X73547936Y-59856342D01*
X73547956Y-59856402D01*
X73549796Y-59861827D01*
X73549801Y-59861841D01*
X73551375Y-59866412D01*
X73553175Y-59871560D01*
X73566343Y-59905344D01*
X73574457Y-59924169D01*
X73608135Y-59989136D01*
X73618731Y-60006437D01*
X73661360Y-60066036D01*
X73674456Y-60081830D01*
X73687890Y-60095943D01*
X73722040Y-60131820D01*
X73722049Y-60131829D01*
X73722923Y-60132747D01*
X73738538Y-60147050D01*
X73739447Y-60147783D01*
X73739452Y-60147787D01*
X73782048Y-60182121D01*
X73789024Y-60187744D01*
X73789992Y-60188428D01*
X73806327Y-60199974D01*
X73806338Y-60199982D01*
X73807178Y-60200575D01*
X73808069Y-60201132D01*
X73855467Y-60230767D01*
X73855479Y-60230774D01*
X73856381Y-60231338D01*
X73857322Y-60231855D01*
X73857324Y-60231856D01*
X73876292Y-60242274D01*
X73876301Y-60242279D01*
X73877090Y-60242712D01*
X73898827Y-60253287D01*
X73921943Y-60264533D01*
X73921952Y-60264537D01*
X73922774Y-60264937D01*
X73923614Y-60265295D01*
X73923624Y-60265300D01*
X73938486Y-60271641D01*
X73946059Y-60274873D01*
X73967476Y-60283449D01*
X73968082Y-60283676D01*
X73968487Y-60283817D01*
X73968492Y-60283819D01*
X73989916Y-60291288D01*
X73989947Y-60291298D01*
X73990336Y-60291434D01*
X73990763Y-60291572D01*
X73990775Y-60291576D01*
X74010374Y-60297909D01*
X74010390Y-60297914D01*
X74011090Y-60298140D01*
X74031513Y-60303856D01*
X74049617Y-60308923D01*
X74049637Y-60308928D01*
X74050326Y-60309121D01*
X74051021Y-60309286D01*
X74072715Y-60314439D01*
X74072725Y-60314441D01*
X74073322Y-60314583D01*
X74073947Y-60314709D01*
X74073950Y-60314710D01*
X74106634Y-60321317D01*
X74106645Y-60321319D01*
X74107283Y-60321448D01*
X74107940Y-60321558D01*
X74107946Y-60321559D01*
X74132103Y-60325600D01*
X74132115Y-60325602D01*
X74132672Y-60325695D01*
X74161452Y-60329676D01*
X74161946Y-60329730D01*
X74161977Y-60329734D01*
X74180454Y-60331759D01*
X74189386Y-60332738D01*
X74196269Y-60333392D01*
X74203955Y-60334122D01*
X74204020Y-60334128D01*
X74204244Y-60334149D01*
X74204443Y-60334165D01*
X74204500Y-60334170D01*
X74209622Y-60334581D01*
X74209640Y-60334582D01*
X74209898Y-60334603D01*
X74210186Y-60334621D01*
X74210182Y-60334621D01*
X74226669Y-60335668D01*
X74226698Y-60335670D01*
X74227004Y-60335689D01*
X74231043Y-60335878D01*
X74231075Y-60335879D01*
X74231115Y-60335881D01*
X74241706Y-60336265D01*
X74241740Y-60336266D01*
X74241878Y-60336271D01*
X74248815Y-60336449D01*
X74253270Y-60336544D01*
X74263045Y-60336710D01*
X74265466Y-60336745D01*
X74278019Y-60336899D01*
X74279578Y-60336916D01*
X74294849Y-60337057D01*
X74295896Y-60337066D01*
X74313825Y-60337195D01*
X74314593Y-60337200D01*
X74335119Y-60337317D01*
X74335753Y-60337320D01*
X74358816Y-60337423D01*
X74359320Y-60337425D01*
X74384861Y-60337514D01*
X74385049Y-60337515D01*
X74385236Y-60337515D01*
X74413194Y-60337592D01*
X74413558Y-60337593D01*
X74443874Y-60337655D01*
X74444185Y-60337655D01*
X74476797Y-60337702D01*
X74477032Y-60337703D01*
X74477036Y-60337703D01*
X74511885Y-60337737D01*
X74512136Y-60337737D01*
X74549161Y-60337755D01*
X74549338Y-60337755D01*
X74577482Y-60337759D01*
X74884199Y-60337759D01*
X74957954Y-60332261D01*
X74974192Y-60332811D01*
X74986564Y-60334581D01*
X75006121Y-60337379D01*
X75006123Y-60337379D01*
X75008778Y-60337759D01*
X75375977Y-60337501D01*
X75376007Y-60337501D01*
X75408845Y-60337476D01*
X75408918Y-60337476D01*
X75441022Y-60337447D01*
X75441068Y-60337447D01*
X75472307Y-60337416D01*
X75472374Y-60337416D01*
X75502621Y-60337382D01*
X75502697Y-60337382D01*
X75531823Y-60337345D01*
X75531876Y-60337344D01*
X75531938Y-60337344D01*
X75559765Y-60337305D01*
X75559841Y-60337305D01*
X75586339Y-60337264D01*
X75586428Y-60337264D01*
X75611418Y-60337221D01*
X75611502Y-60337221D01*
X75634855Y-60337177D01*
X75634958Y-60337177D01*
X75656547Y-60337132D01*
X75656676Y-60337132D01*
X75676372Y-60337086D01*
X75676514Y-60337085D01*
X75676692Y-60337085D01*
X75693983Y-60337039D01*
X75694210Y-60337038D01*
X75694433Y-60337038D01*
X75709955Y-60336990D01*
X75710040Y-60336990D01*
X75710189Y-60337043D01*
X75710189Y-60336989D01*
X75723431Y-60336942D01*
X75723884Y-60336940D01*
X75734717Y-60336892D01*
X75735351Y-60336889D01*
X75743647Y-60336842D01*
X75745026Y-60336832D01*
X75750656Y-60336785D01*
X75754520Y-60336738D01*
X75757355Y-60336693D01*
X75762296Y-60336544D01*
X75771727Y-60336260D01*
X75771765Y-60336258D01*
X75772012Y-60336251D01*
X75772282Y-60336239D01*
X75772836Y-60336197D01*
X75772844Y-60336197D01*
X75802889Y-60333945D01*
X75802914Y-60333943D01*
X75803444Y-60333903D01*
X75803999Y-60333844D01*
X75804003Y-60333844D01*
X75834004Y-60330675D01*
X75834032Y-60330672D01*
X75834624Y-60330609D01*
X75841766Y-60329606D01*
X75844204Y-60329264D01*
X75869491Y-60325712D01*
X75870129Y-60325600D01*
X75897651Y-60320768D01*
X75897660Y-60320766D01*
X75898379Y-60320640D01*
X75899084Y-60320488D01*
X75899097Y-60320485D01*
X75937007Y-60312287D01*
X75937029Y-60312282D01*
X75937717Y-60312133D01*
X75938397Y-60311958D01*
X75938413Y-60311954D01*
X75963606Y-60305463D01*
X75963621Y-60305459D01*
X75964408Y-60305256D01*
X75965188Y-60305018D01*
X75965198Y-60305015D01*
X76007019Y-60292245D01*
X76007038Y-60292239D01*
X76007810Y-60292003D01*
X76008595Y-60291725D01*
X76031543Y-60283594D01*
X76031557Y-60283589D01*
X76032397Y-60283291D01*
X76033238Y-60282946D01*
X76033246Y-60282943D01*
X76077825Y-60264659D01*
X76077830Y-60264657D01*
X76078678Y-60264309D01*
X76090820Y-60258623D01*
X76100378Y-60254148D01*
X76100391Y-60254142D01*
X76101257Y-60253736D01*
X76102083Y-60253297D01*
X76102103Y-60253287D01*
X76146268Y-60229813D01*
X76147113Y-60229364D01*
X76147934Y-60228873D01*
X76165585Y-60218315D01*
X76165594Y-60218310D01*
X76166407Y-60217823D01*
X76210137Y-60188523D01*
X76219299Y-60181679D01*
X76249776Y-60157048D01*
X76259477Y-60148576D01*
X76260328Y-60147787D01*
X76281749Y-60127909D01*
X76281756Y-60127902D01*
X76282182Y-60127507D01*
X76291666Y-60118159D01*
X76313261Y-60095538D01*
X76321770Y-60086063D01*
X76347412Y-60055161D01*
X76354188Y-60046313D01*
X76372747Y-60020457D01*
X76373351Y-60019558D01*
X76382203Y-60005306D01*
X76392426Y-59988845D01*
X76392428Y-59988842D01*
X76392770Y-59988291D01*
X76403992Y-59968688D01*
X76432194Y-59911446D01*
X76441184Y-59889921D01*
X76447428Y-59872164D01*
X76460414Y-59835235D01*
X76460418Y-59835223D01*
X76460773Y-59834213D01*
X76464856Y-59820048D01*
X76467356Y-59811375D01*
X76467362Y-59811351D01*
X76467536Y-59810749D01*
X76475931Y-59777485D01*
X76477334Y-59771024D01*
X76479963Y-59758121D01*
X76480302Y-59756341D01*
X76482983Y-59741007D01*
X76483293Y-59739060D01*
X76485723Y-59721946D01*
X76486004Y-59719696D01*
X76487687Y-59704343D01*
X76487941Y-59701654D01*
X76488957Y-59689319D01*
X76489186Y-59686057D01*
X76489771Y-59676425D01*
X76489975Y-59672452D01*
X76490285Y-59665504D01*
X76490467Y-59660687D01*
X76490638Y-59655460D01*
X76490798Y-59649661D01*
X76490888Y-59645891D01*
X76491028Y-59638976D01*
X76491077Y-59636187D01*
X76491198Y-59628020D01*
X76491224Y-59626001D01*
X76491328Y-59616445D01*
X76491342Y-59614888D01*
X76491429Y-59603810D01*
X76491437Y-59602720D01*
X76491510Y-59589982D01*
X76491514Y-59589124D01*
X76491573Y-59574592D01*
X76491575Y-59574004D01*
X76491623Y-59557542D01*
X76491624Y-59557042D01*
X76491634Y-59551938D01*
X76491660Y-59538596D01*
X76491660Y-59538514D01*
X76491661Y-59538185D01*
X76491688Y-59517455D01*
X76491688Y-59517209D01*
X76491707Y-59494142D01*
X76491707Y-59493980D01*
X76491720Y-59468440D01*
X76491720Y-59468307D01*
X76491727Y-59440159D01*
X76491727Y-59440081D01*
X76491730Y-59409189D01*
X76491730Y-59131047D01*
X76487548Y-59092841D01*
X76479784Y-59021930D01*
X76479783Y-59021926D01*
X76479561Y-59019895D01*
X76476249Y-59004950D01*
X76471797Y-58986481D01*
X76470098Y-58979963D01*
X76466577Y-58966463D01*
X76466370Y-58965668D01*
X76452790Y-58921742D01*
X76446164Y-58903281D01*
X76424526Y-58851938D01*
X76416466Y-58835384D01*
X76402824Y-58811160D01*
X76394435Y-58760408D01*
X76420630Y-58716138D01*
X76469153Y-58699063D01*
X76509003Y-58710996D01*
X76511945Y-58712887D01*
X76516010Y-58716409D01*
X76649019Y-58777152D01*
X76695854Y-58783886D01*
X76791093Y-58797580D01*
X76791099Y-58797580D01*
X76793753Y-58797962D01*
X76937231Y-58797962D01*
X77010342Y-58792733D01*
X77063059Y-58777254D01*
X77072265Y-58774551D01*
X77111355Y-58773667D01*
X77112331Y-58773906D01*
X77114288Y-58774386D01*
X77114855Y-58774506D01*
X77114878Y-58774511D01*
X77126581Y-58776982D01*
X77146844Y-58781261D01*
X77147441Y-58781367D01*
X77163198Y-58784165D01*
X77163218Y-58784168D01*
X77163684Y-58784251D01*
X77174013Y-58785803D01*
X77190149Y-58788228D01*
X77190174Y-58788231D01*
X77190677Y-58788307D01*
X77200203Y-58789481D01*
X77209004Y-58790565D01*
X77209012Y-58790566D01*
X77209378Y-58790611D01*
X77209732Y-58790647D01*
X77209755Y-58790650D01*
X77229550Y-58792685D01*
X77229573Y-58792687D01*
X77229961Y-58792727D01*
X77251018Y-58794464D01*
X77251111Y-58794471D01*
X77251163Y-58794475D01*
X77256623Y-58794876D01*
X77260206Y-58795139D01*
X77260387Y-58795151D01*
X77260435Y-58795154D01*
X77262093Y-58795261D01*
X77263619Y-58795359D01*
X77269695Y-58795673D01*
X77276505Y-58796025D01*
X77276560Y-58796027D01*
X77276706Y-58796035D01*
X77276880Y-58796042D01*
X77276930Y-58796044D01*
X77278746Y-58796114D01*
X77280744Y-58796192D01*
X77289633Y-58796461D01*
X77296453Y-58796608D01*
X77299244Y-58796658D01*
X77300000Y-58796672D01*
X77300011Y-58796672D01*
X77300113Y-58796674D01*
X77309541Y-58796810D01*
X77311449Y-58796834D01*
X77323307Y-58796961D01*
X77324551Y-58796972D01*
X77338665Y-58797089D01*
X77339529Y-58797096D01*
X77355723Y-58797203D01*
X77356363Y-58797207D01*
X77374435Y-58797304D01*
X77374460Y-58797304D01*
X77374770Y-58797305D01*
X77374949Y-58797306D01*
X77374960Y-58797306D01*
X77375260Y-58797307D01*
X77394721Y-58797393D01*
X77394786Y-58797393D01*
X77395166Y-58797395D01*
X77416545Y-58797473D01*
X77416767Y-58797474D01*
X77416906Y-58797474D01*
X77439661Y-58797541D01*
X77439930Y-58797541D01*
X77463887Y-58797599D01*
X77463887Y-58797628D01*
X77464144Y-58797606D01*
X77464144Y-58797600D01*
X77489126Y-58797648D01*
X77489337Y-58797648D01*
X77515168Y-58797687D01*
X77515386Y-58797688D01*
X77515401Y-58797688D01*
X77541907Y-58797716D01*
X77542089Y-58797716D01*
X77569093Y-58797735D01*
X77569285Y-58797735D01*
X77596612Y-58797744D01*
X77624441Y-58797744D01*
X77651886Y-58797734D01*
X77652076Y-58797734D01*
X77679316Y-58797714D01*
X77679494Y-58797714D01*
X77706354Y-58797685D01*
X77706561Y-58797684D01*
X77706625Y-58797684D01*
X77732460Y-58797646D01*
X77732865Y-58797645D01*
X77733067Y-58797645D01*
X77758640Y-58797597D01*
X77758884Y-58797597D01*
X77783548Y-58797539D01*
X77783569Y-58797539D01*
X77783800Y-58797622D01*
X77783800Y-58797538D01*
X77807382Y-58797471D01*
X77807694Y-58797470D01*
X77830017Y-58797393D01*
X77830111Y-58797393D01*
X77830360Y-58797392D01*
X77851249Y-58797306D01*
X77851692Y-58797304D01*
X77870970Y-58797208D01*
X77871496Y-58797205D01*
X77888988Y-58797100D01*
X77889708Y-58797095D01*
X77905239Y-58796980D01*
X77906191Y-58796972D01*
X77919584Y-58796848D01*
X77920994Y-58796833D01*
X77932074Y-58796700D01*
X77934398Y-58796667D01*
X77942989Y-58796525D01*
X77947268Y-58796434D01*
X77947481Y-58796430D01*
X77947490Y-58796430D01*
X77947669Y-58796426D01*
X77949645Y-58796375D01*
X77953298Y-58796282D01*
X77953371Y-58796280D01*
X77953596Y-58796274D01*
X77953851Y-58796265D01*
X77953887Y-58796264D01*
X77960730Y-58796025D01*
X77963108Y-58795942D01*
X77963260Y-58795935D01*
X77963320Y-58795933D01*
X77965061Y-58795856D01*
X77965089Y-58795854D01*
X77965416Y-58795840D01*
X77965754Y-58795818D01*
X77965785Y-58795816D01*
X77987237Y-58794401D01*
X77987239Y-58794401D01*
X77987631Y-58794375D01*
X77987996Y-58794343D01*
X77988035Y-58794340D01*
X78016036Y-58791883D01*
X78016663Y-58791828D01*
X78041909Y-58788820D01*
X78047785Y-58788120D01*
X78047792Y-58788119D01*
X78048380Y-58788049D01*
X78048966Y-58787961D01*
X78048978Y-58787959D01*
X78064502Y-58785618D01*
X78075127Y-58784015D01*
X78075793Y-58783890D01*
X78075815Y-58783886D01*
X78111071Y-58777254D01*
X78111089Y-58777250D01*
X78111723Y-58777131D01*
X78123320Y-58774511D01*
X78135737Y-58771706D01*
X78135751Y-58771703D01*
X78136497Y-58771534D01*
X78176718Y-58760716D01*
X78177417Y-58760497D01*
X78177442Y-58760490D01*
X78199051Y-58753727D01*
X78199050Y-58753727D01*
X78199834Y-58753482D01*
X78241652Y-58738379D01*
X78242380Y-58738080D01*
X78242390Y-58738076D01*
X78262906Y-58729646D01*
X78262915Y-58729642D01*
X78263424Y-58729433D01*
X78290868Y-58717207D01*
X78297720Y-58713911D01*
X78320703Y-58702135D01*
X78321092Y-58701923D01*
X78321117Y-58701910D01*
X78336889Y-58693322D01*
X78336911Y-58693309D01*
X78337593Y-58692938D01*
X78376232Y-58669643D01*
X78390800Y-58659963D01*
X78432990Y-58628707D01*
X78445875Y-58618100D01*
X78475742Y-58591496D01*
X78481706Y-58585752D01*
X78482284Y-58585143D01*
X78482299Y-58585128D01*
X78512805Y-58552991D01*
X78513395Y-58552370D01*
X78527477Y-58536137D01*
X78538901Y-58521063D01*
X78552383Y-58503272D01*
X78568445Y-58482077D01*
X78580250Y-58464154D01*
X78580846Y-58463106D01*
X78580853Y-58463095D01*
X78612740Y-58407047D01*
X78612741Y-58407045D01*
X78613343Y-58405987D01*
X78622913Y-58386280D01*
X78646895Y-58328060D01*
X78654275Y-58306474D01*
X78669680Y-58251666D01*
X78674912Y-58228109D01*
X78681013Y-58195778D01*
X78682115Y-58188702D01*
X78684506Y-58171428D01*
X78684753Y-58169389D01*
X78685266Y-58164485D01*
X78686466Y-58153012D01*
X78686472Y-58152954D01*
X78686497Y-58152711D01*
X78686725Y-58150124D01*
X78687639Y-58138158D01*
X78687703Y-58137176D01*
X78687830Y-58135202D01*
X78687849Y-58134909D01*
X78688329Y-58126378D01*
X78688332Y-58126326D01*
X78688522Y-58122353D01*
X78688773Y-58116378D01*
X78688779Y-58116237D01*
X78688956Y-58111322D01*
X78689101Y-58106720D01*
X78689261Y-58100803D01*
X78689338Y-58097577D01*
X78689484Y-58090543D01*
X78689529Y-58088087D01*
X78689661Y-58079823D01*
X78689689Y-58077874D01*
X78689806Y-58068267D01*
X78689821Y-58066885D01*
X78689926Y-58055819D01*
X78689935Y-58054726D01*
X78690028Y-58042090D01*
X78690034Y-58041214D01*
X78690115Y-58026892D01*
X78690118Y-58026250D01*
X78690189Y-58010130D01*
X78690191Y-58009576D01*
X78690251Y-57991544D01*
X78690252Y-57991141D01*
X78690303Y-57971084D01*
X78690304Y-57970773D01*
X78690347Y-57948697D01*
X78690347Y-57948575D01*
X78690348Y-57948294D01*
X78690382Y-57923844D01*
X78690382Y-57923666D01*
X78690406Y-57900923D01*
X78708050Y-57852604D01*
X78752626Y-57826931D01*
X78765720Y-57825802D01*
X85339417Y-57835854D01*
G37*
G04 #@! TD.AperFunction*
M02*
