G04 #@! TF.GenerationSoftware,KiCad,Pcbnew,(6.0.0)*
G04 #@! TF.CreationDate,2022-01-15T11:29:00+07:00*
G04 #@! TF.ProjectId,Unified-Daughterboard,556e6966-6965-4642-9d44-617567687465,C3*
G04 #@! TF.SameCoordinates,Original*
G04 #@! TF.FileFunction,Soldermask,Top*
G04 #@! TF.FilePolarity,Negative*
%FSLAX46Y46*%
G04 Gerber Fmt 4.6, Leading zero omitted, Abs format (unit mm)*
G04 Created by KiCad (PCBNEW (6.0.0)) date 2022-01-15 11:29:00*
%MOMM*%
%LPD*%
G01*
G04 APERTURE LIST*
G04 Aperture macros list*
%AMRoundRect*
0 Rectangle with rounded corners*
0 $1 Rounding radius*
0 $2 $3 $4 $5 $6 $7 $8 $9 X,Y pos of 4 corners*
0 Add a 4 corners polygon primitive as box body*
4,1,4,$2,$3,$4,$5,$6,$7,$8,$9,$2,$3,0*
0 Add four circle primitives for the rounded corners*
1,1,$1+$1,$2,$3*
1,1,$1+$1,$4,$5*
1,1,$1+$1,$6,$7*
1,1,$1+$1,$8,$9*
0 Add four rect primitives between the rounded corners*
20,1,$1+$1,$2,$3,$4,$5,0*
20,1,$1+$1,$4,$5,$6,$7,0*
20,1,$1+$1,$6,$7,$8,$9,0*
20,1,$1+$1,$8,$9,$2,$3,0*%
G04 Aperture macros list end*
%ADD10C,3.602001*%
%ADD11RoundRect,0.051000X-0.250000X-0.450000X0.250000X-0.450000X0.250000X0.450000X-0.250000X0.450000X0*%
%ADD12RoundRect,0.176000X0.150000X0.000000X0.150000X0.000000X-0.150000X0.000000X-0.150000X0.000000X0*%
%ADD13RoundRect,0.051000X0.275000X-0.125000X0.275000X0.125000X-0.275000X0.125000X-0.275000X-0.125000X0*%
%ADD14RoundRect,0.051000X0.275000X-0.150000X0.275000X0.150000X-0.275000X0.150000X-0.275000X-0.150000X0*%
%ADD15RoundRect,0.301000X-0.250000X-0.350000X0.250000X-0.350000X0.250000X0.350000X-0.250000X0.350000X0*%
%ADD16RoundRect,0.301000X0.625000X-0.375000X0.625000X0.375000X-0.625000X0.375000X-0.625000X-0.375000X0*%
%ADD17RoundRect,0.051000X-0.600000X-0.900000X0.600000X-0.900000X0.600000X0.900000X-0.600000X0.900000X0*%
%ADD18RoundRect,0.051000X-0.300000X-0.775000X0.300000X-0.775000X0.300000X0.775000X-0.300000X0.775000X0*%
%ADD19RoundRect,0.301000X-0.625000X0.375000X-0.625000X-0.375000X0.625000X-0.375000X0.625000X0.375000X0*%
%ADD20C,0.752000*%
%ADD21RoundRect,0.201000X0.150000X0.575000X-0.150000X0.575000X-0.150000X-0.575000X0.150000X-0.575000X0*%
%ADD22RoundRect,0.126000X0.075000X0.650000X-0.075000X0.650000X-0.075000X-0.650000X0.075000X-0.650000X0*%
%ADD23O,1.202000X2.302000*%
%ADD24O,1.402000X2.002000*%
G04 APERTURE END LIST*
D10*
X93232500Y-62853000D03*
D11*
X67108750Y-59286750D03*
X68608750Y-59286750D03*
D12*
X85706250Y-64255500D03*
D13*
X85706250Y-63755500D03*
D14*
X85706250Y-63255500D03*
D13*
X85706250Y-62755500D03*
X85706250Y-62255500D03*
X84936250Y-62255500D03*
X84936250Y-62755500D03*
D14*
X84936250Y-63255500D03*
D13*
X84936250Y-63755500D03*
X84936250Y-64255500D03*
D15*
X84465000Y-60080500D03*
X87765000Y-60080500D03*
D16*
X88262500Y-64943000D03*
X88262500Y-62143000D03*
D10*
X55562500Y-62733000D03*
D17*
X59942500Y-66273000D03*
X65542500Y-66273000D03*
D18*
X61242500Y-62398000D03*
X62242500Y-62398000D03*
X63242500Y-62398000D03*
X64242500Y-62398000D03*
D19*
X82422500Y-61983000D03*
X82422500Y-64783000D03*
D11*
X81396250Y-59286750D03*
X82896250Y-59286750D03*
D20*
X77892500Y-62792000D03*
X72112500Y-62792000D03*
D21*
X78252500Y-64118000D03*
X77452500Y-64118000D03*
D22*
X76252500Y-64118000D03*
X75256500Y-64118000D03*
X74752500Y-64118000D03*
X73752500Y-64118000D03*
D21*
X71752500Y-64118000D03*
X72552500Y-64118000D03*
D22*
X73252500Y-64118000D03*
X74252500Y-64118000D03*
X75752500Y-64118000D03*
X76752500Y-64118000D03*
D23*
X70702500Y-63343000D03*
D24*
X79302500Y-59143000D03*
D23*
X79302500Y-63343000D03*
D24*
X70702500Y-59143000D03*
G36*
X75425192Y-63382459D02*
G01*
X75435925Y-63389630D01*
X75502288Y-63410411D01*
X75573089Y-63389621D01*
X75583808Y-63382459D01*
X75585804Y-63382328D01*
X75586915Y-63383991D01*
X75586582Y-63385233D01*
X75562976Y-63420561D01*
X75553500Y-63468199D01*
X75553500Y-64767801D01*
X75562976Y-64815439D01*
X75586582Y-64850767D01*
X75586713Y-64852763D01*
X75585050Y-64853874D01*
X75583808Y-64853541D01*
X75573075Y-64846370D01*
X75506712Y-64825589D01*
X75435911Y-64846379D01*
X75425192Y-64853541D01*
X75423196Y-64853672D01*
X75422085Y-64852009D01*
X75422418Y-64850767D01*
X75446024Y-64815439D01*
X75455500Y-64767801D01*
X75455500Y-63468199D01*
X75446024Y-63420561D01*
X75422418Y-63385233D01*
X75422287Y-63383237D01*
X75423950Y-63382126D01*
X75425192Y-63382459D01*
G37*
G36*
X73421193Y-63382460D02*
G01*
X73433925Y-63390967D01*
X73500289Y-63411747D01*
X73571089Y-63390958D01*
X73583807Y-63382460D01*
X73585803Y-63382329D01*
X73586914Y-63383992D01*
X73586581Y-63385234D01*
X73562976Y-63420561D01*
X73553500Y-63468199D01*
X73553500Y-64767801D01*
X73562976Y-64815439D01*
X73586581Y-64850766D01*
X73586712Y-64852762D01*
X73585049Y-64853873D01*
X73583807Y-64853540D01*
X73571075Y-64845033D01*
X73504711Y-64824253D01*
X73433911Y-64845042D01*
X73421193Y-64853540D01*
X73419197Y-64853671D01*
X73418086Y-64852008D01*
X73418419Y-64850766D01*
X73442024Y-64815439D01*
X73451500Y-64767801D01*
X73451500Y-63468199D01*
X73442024Y-63420561D01*
X73418419Y-63385234D01*
X73418288Y-63383238D01*
X73419951Y-63382127D01*
X73421193Y-63382460D01*
G37*
G36*
X75921193Y-63382460D02*
G01*
X75933925Y-63390967D01*
X76000289Y-63411747D01*
X76071089Y-63390958D01*
X76083807Y-63382460D01*
X76085803Y-63382329D01*
X76086914Y-63383992D01*
X76086581Y-63385234D01*
X76062976Y-63420561D01*
X76053500Y-63468199D01*
X76053500Y-64767801D01*
X76062976Y-64815439D01*
X76086581Y-64850766D01*
X76086712Y-64852762D01*
X76085049Y-64853873D01*
X76083807Y-64853540D01*
X76071075Y-64845033D01*
X76004711Y-64824253D01*
X75933911Y-64845042D01*
X75921193Y-64853540D01*
X75919197Y-64853671D01*
X75918086Y-64852008D01*
X75918419Y-64850766D01*
X75942024Y-64815439D01*
X75951500Y-64767801D01*
X75951500Y-63468199D01*
X75942024Y-63420561D01*
X75918419Y-63385234D01*
X75918288Y-63383238D01*
X75919951Y-63382127D01*
X75921193Y-63382460D01*
G37*
G36*
X74421193Y-63382460D02*
G01*
X74433925Y-63390967D01*
X74500289Y-63411747D01*
X74571089Y-63390958D01*
X74583807Y-63382460D01*
X74585803Y-63382329D01*
X74586914Y-63383992D01*
X74586581Y-63385234D01*
X74562976Y-63420561D01*
X74553500Y-63468199D01*
X74553500Y-64767801D01*
X74562976Y-64815439D01*
X74586581Y-64850766D01*
X74586712Y-64852762D01*
X74585049Y-64853873D01*
X74583807Y-64853540D01*
X74571075Y-64845033D01*
X74504711Y-64824253D01*
X74433911Y-64845042D01*
X74421193Y-64853540D01*
X74419197Y-64853671D01*
X74418086Y-64852008D01*
X74418419Y-64850766D01*
X74442024Y-64815439D01*
X74451500Y-64767801D01*
X74451500Y-63468199D01*
X74442024Y-63420561D01*
X74418419Y-63385234D01*
X74418288Y-63383238D01*
X74419951Y-63382127D01*
X74421193Y-63382460D01*
G37*
G36*
X74921192Y-63382460D02*
G01*
X74935925Y-63392303D01*
X75002289Y-63413083D01*
X75073089Y-63392294D01*
X75087808Y-63382459D01*
X75089804Y-63382328D01*
X75090915Y-63383991D01*
X75090582Y-63385233D01*
X75066976Y-63420561D01*
X75057500Y-63468199D01*
X75057500Y-64767801D01*
X75066976Y-64815439D01*
X75090582Y-64850766D01*
X75090713Y-64852762D01*
X75089050Y-64853873D01*
X75087808Y-64853540D01*
X75073075Y-64843697D01*
X75006711Y-64822917D01*
X74935911Y-64843706D01*
X74921192Y-64853541D01*
X74919196Y-64853672D01*
X74918085Y-64852009D01*
X74918418Y-64850767D01*
X74942024Y-64815439D01*
X74951500Y-64767801D01*
X74951500Y-63468199D01*
X74942024Y-63420561D01*
X74918418Y-63385234D01*
X74918287Y-63383238D01*
X74919950Y-63382127D01*
X74921192Y-63382460D01*
G37*
G36*
X73921193Y-63382460D02*
G01*
X73933925Y-63390967D01*
X74000289Y-63411747D01*
X74071089Y-63390958D01*
X74083807Y-63382460D01*
X74085803Y-63382329D01*
X74086914Y-63383992D01*
X74086581Y-63385234D01*
X74062976Y-63420561D01*
X74053500Y-63468199D01*
X74053500Y-64767801D01*
X74062976Y-64815439D01*
X74086581Y-64850766D01*
X74086712Y-64852762D01*
X74085049Y-64853873D01*
X74083807Y-64853540D01*
X74071075Y-64845033D01*
X74004711Y-64824253D01*
X73933911Y-64845042D01*
X73921193Y-64853540D01*
X73919197Y-64853671D01*
X73918086Y-64852008D01*
X73918419Y-64850766D01*
X73942024Y-64815439D01*
X73951500Y-64767801D01*
X73951500Y-63468199D01*
X73942024Y-63420561D01*
X73918419Y-63385234D01*
X73918288Y-63383238D01*
X73919951Y-63382127D01*
X73921193Y-63382460D01*
G37*
G36*
X76421193Y-63382460D02*
G01*
X76433925Y-63390967D01*
X76500289Y-63411747D01*
X76571089Y-63390958D01*
X76583807Y-63382460D01*
X76585803Y-63382329D01*
X76586914Y-63383992D01*
X76586581Y-63385234D01*
X76562976Y-63420561D01*
X76553500Y-63468199D01*
X76553500Y-64767801D01*
X76562976Y-64815439D01*
X76586581Y-64850766D01*
X76586712Y-64852762D01*
X76585049Y-64853873D01*
X76583807Y-64853540D01*
X76571075Y-64845033D01*
X76504711Y-64824253D01*
X76433911Y-64845042D01*
X76421193Y-64853540D01*
X76419197Y-64853671D01*
X76418086Y-64852008D01*
X76418419Y-64850766D01*
X76442024Y-64815439D01*
X76451500Y-64767801D01*
X76451500Y-63468199D01*
X76442024Y-63420561D01*
X76418419Y-63385234D01*
X76418288Y-63383238D01*
X76419951Y-63382127D01*
X76421193Y-63382460D01*
G37*
G36*
X76945527Y-63419931D02*
G01*
X76994369Y-63460749D01*
X77063057Y-63469376D01*
X77130620Y-63434800D01*
X77144854Y-63420566D01*
X77146786Y-63420048D01*
X77148200Y-63421462D01*
X77147931Y-63423091D01*
X77118685Y-63466860D01*
X77103500Y-63543199D01*
X77103500Y-64692801D01*
X77118685Y-64769140D01*
X77147931Y-64812909D01*
X77148062Y-64814905D01*
X77146399Y-64816016D01*
X77144854Y-64815434D01*
X77130601Y-64801181D01*
X77069552Y-64767847D01*
X77000498Y-64772785D01*
X76945435Y-64816353D01*
X76943456Y-64816644D01*
X76942215Y-64815076D01*
X76942232Y-64814395D01*
X76951500Y-64767801D01*
X76951500Y-63468199D01*
X76942282Y-63421856D01*
X76942925Y-63419962D01*
X76944887Y-63419572D01*
X76945527Y-63419931D01*
G37*
G36*
X73062785Y-63420924D02*
G01*
X73062768Y-63421605D01*
X73053500Y-63468199D01*
X73053500Y-64767801D01*
X73062718Y-64814144D01*
X73062075Y-64816038D01*
X73060113Y-64816428D01*
X73059473Y-64816069D01*
X73010631Y-64775251D01*
X72941943Y-64766624D01*
X72874380Y-64801200D01*
X72860146Y-64815434D01*
X72858214Y-64815952D01*
X72856800Y-64814538D01*
X72857069Y-64812909D01*
X72886315Y-64769140D01*
X72901500Y-64692801D01*
X72901500Y-63543199D01*
X72886315Y-63466860D01*
X72857069Y-63423091D01*
X72856938Y-63421095D01*
X72858601Y-63419984D01*
X72860146Y-63420566D01*
X72874399Y-63434819D01*
X72935448Y-63468153D01*
X73004502Y-63463215D01*
X73059565Y-63419647D01*
X73061544Y-63419356D01*
X73062785Y-63420924D01*
G37*
G36*
X72060146Y-63420566D02*
G01*
X72065323Y-63425743D01*
X72126372Y-63459077D01*
X72195531Y-63454131D01*
X72239628Y-63425792D01*
X72244854Y-63420566D01*
X72246786Y-63420048D01*
X72248200Y-63421462D01*
X72247931Y-63423091D01*
X72218685Y-63466860D01*
X72203500Y-63543199D01*
X72203500Y-64692801D01*
X72218685Y-64769140D01*
X72247931Y-64812909D01*
X72248062Y-64814905D01*
X72246399Y-64816016D01*
X72244854Y-64815434D01*
X72239677Y-64810257D01*
X72178628Y-64776923D01*
X72109469Y-64781869D01*
X72065372Y-64810208D01*
X72060146Y-64815434D01*
X72058214Y-64815952D01*
X72056800Y-64814538D01*
X72057069Y-64812909D01*
X72086315Y-64769140D01*
X72101500Y-64692801D01*
X72101500Y-63543199D01*
X72086315Y-63466860D01*
X72057069Y-63423091D01*
X72056938Y-63421095D01*
X72058601Y-63419984D01*
X72060146Y-63420566D01*
G37*
G36*
X77760146Y-63420566D02*
G01*
X77765323Y-63425743D01*
X77826372Y-63459077D01*
X77895531Y-63454131D01*
X77939628Y-63425792D01*
X77944854Y-63420566D01*
X77946786Y-63420048D01*
X77948200Y-63421462D01*
X77947931Y-63423091D01*
X77918685Y-63466860D01*
X77903500Y-63543199D01*
X77903500Y-64692801D01*
X77918685Y-64769140D01*
X77947931Y-64812909D01*
X77948062Y-64814905D01*
X77946399Y-64816016D01*
X77944854Y-64815434D01*
X77939677Y-64810257D01*
X77878628Y-64776923D01*
X77809469Y-64781869D01*
X77765372Y-64810208D01*
X77760146Y-64815434D01*
X77758214Y-64815952D01*
X77756800Y-64814538D01*
X77757069Y-64812909D01*
X77786315Y-64769140D01*
X77801500Y-64692801D01*
X77801500Y-63543199D01*
X77786315Y-63466860D01*
X77757069Y-63423091D01*
X77756938Y-63421095D01*
X77758601Y-63419984D01*
X77760146Y-63420566D01*
G37*
G36*
X85251910Y-62097993D02*
G01*
X85252674Y-62098503D01*
X85319038Y-62119284D01*
X85389840Y-62098494D01*
X85390590Y-62097993D01*
X85392585Y-62097862D01*
X85393697Y-62099525D01*
X85393364Y-62100767D01*
X85386017Y-62111762D01*
X85382250Y-62130699D01*
X85382250Y-62380301D01*
X85386017Y-62399238D01*
X85396630Y-62415120D01*
X85412512Y-62425733D01*
X85431449Y-62429500D01*
X85981051Y-62429500D01*
X85999988Y-62425733D01*
X86010983Y-62418386D01*
X86012979Y-62418255D01*
X86014090Y-62419918D01*
X86013757Y-62421160D01*
X86004541Y-62434952D01*
X86006281Y-62436115D01*
X86007166Y-62437909D01*
X86006705Y-62439060D01*
X85992172Y-62456452D01*
X85983546Y-62525170D01*
X86006332Y-62572788D01*
X86006178Y-62574782D01*
X86005639Y-62575314D01*
X86004541Y-62576048D01*
X86013757Y-62589840D01*
X86013888Y-62591836D01*
X86012225Y-62592947D01*
X86010983Y-62592614D01*
X85999988Y-62585267D01*
X85981051Y-62581500D01*
X85431449Y-62581500D01*
X85412512Y-62585267D01*
X85396630Y-62595880D01*
X85386017Y-62611762D01*
X85382250Y-62630699D01*
X85382250Y-62880301D01*
X85386017Y-62899238D01*
X85396630Y-62915120D01*
X85412512Y-62925733D01*
X85431449Y-62929500D01*
X85981051Y-62929500D01*
X85999988Y-62925733D01*
X86010983Y-62918386D01*
X86012979Y-62918255D01*
X86014090Y-62919918D01*
X86013757Y-62921160D01*
X86011576Y-62924425D01*
X85990796Y-62990789D01*
X86011585Y-63061589D01*
X86013757Y-63064840D01*
X86013888Y-63066836D01*
X86012225Y-63067947D01*
X86010983Y-63067614D01*
X85999988Y-63060267D01*
X85981051Y-63056500D01*
X85431449Y-63056500D01*
X85412512Y-63060267D01*
X85396630Y-63070880D01*
X85386017Y-63086762D01*
X85382250Y-63105699D01*
X85382250Y-63405301D01*
X85386017Y-63424238D01*
X85396630Y-63440120D01*
X85412512Y-63450733D01*
X85431449Y-63454500D01*
X85981051Y-63454500D01*
X85999988Y-63450733D01*
X86010983Y-63443386D01*
X86012979Y-63443255D01*
X86014090Y-63444918D01*
X86013757Y-63446160D01*
X86011576Y-63449425D01*
X85990796Y-63515789D01*
X86011585Y-63586589D01*
X86013757Y-63589840D01*
X86013888Y-63591836D01*
X86012225Y-63592947D01*
X86010983Y-63592614D01*
X85999988Y-63585267D01*
X85981051Y-63581500D01*
X85431449Y-63581500D01*
X85412512Y-63585267D01*
X85396630Y-63595880D01*
X85386017Y-63611762D01*
X85382250Y-63630699D01*
X85382250Y-63880301D01*
X85386017Y-63899238D01*
X85396630Y-63915120D01*
X85412512Y-63925733D01*
X85431449Y-63929500D01*
X85981051Y-63929500D01*
X85994220Y-63926881D01*
X85996114Y-63927524D01*
X85996504Y-63929486D01*
X85995721Y-63930506D01*
X85988730Y-63935177D01*
X85944123Y-63988553D01*
X85935496Y-64057239D01*
X85967827Y-64120346D01*
X85967727Y-64122344D01*
X85965947Y-64123255D01*
X85964936Y-64122921D01*
X85922823Y-64094782D01*
X85856051Y-64081500D01*
X85556449Y-64081500D01*
X85489677Y-64094782D01*
X85433241Y-64132491D01*
X85395532Y-64188927D01*
X85382290Y-64255500D01*
X85395532Y-64322073D01*
X85432030Y-64376697D01*
X85432161Y-64378693D01*
X85430498Y-64379804D01*
X85429410Y-64379564D01*
X85382365Y-64353929D01*
X85313316Y-64358927D01*
X85259640Y-64401436D01*
X85257661Y-64401727D01*
X85256419Y-64400159D01*
X85256436Y-64399478D01*
X85260250Y-64380301D01*
X85260250Y-64130699D01*
X85256483Y-64111762D01*
X85245870Y-64095880D01*
X85229988Y-64085267D01*
X85211051Y-64081500D01*
X84661449Y-64081500D01*
X84642512Y-64085267D01*
X84631517Y-64092614D01*
X84629521Y-64092745D01*
X84628410Y-64091082D01*
X84628743Y-64089840D01*
X84637959Y-64076048D01*
X84636219Y-64074885D01*
X84635334Y-64073091D01*
X84635795Y-64071940D01*
X84650328Y-64054548D01*
X84658954Y-63985830D01*
X84636168Y-63938212D01*
X84636322Y-63936218D01*
X84636861Y-63935686D01*
X84637959Y-63934952D01*
X84628743Y-63921160D01*
X84628612Y-63919164D01*
X84630275Y-63918053D01*
X84631517Y-63918386D01*
X84642512Y-63925733D01*
X84661449Y-63929500D01*
X85211051Y-63929500D01*
X85229988Y-63925733D01*
X85245870Y-63915120D01*
X85256483Y-63899238D01*
X85260250Y-63880301D01*
X85260250Y-63630699D01*
X85256483Y-63611762D01*
X85245870Y-63595880D01*
X85229988Y-63585267D01*
X85211051Y-63581500D01*
X84661449Y-63581500D01*
X84642512Y-63585267D01*
X84631517Y-63592614D01*
X84629521Y-63592745D01*
X84628410Y-63591082D01*
X84628743Y-63589840D01*
X84630924Y-63586575D01*
X84651704Y-63520211D01*
X84630915Y-63449411D01*
X84628743Y-63446160D01*
X84628612Y-63444164D01*
X84630275Y-63443053D01*
X84631517Y-63443386D01*
X84642512Y-63450733D01*
X84661449Y-63454500D01*
X85211051Y-63454500D01*
X85229988Y-63450733D01*
X85245870Y-63440120D01*
X85256483Y-63424238D01*
X85260250Y-63405301D01*
X85260250Y-63105699D01*
X85256483Y-63086762D01*
X85245870Y-63070880D01*
X85229988Y-63060267D01*
X85211051Y-63056500D01*
X84661449Y-63056500D01*
X84642512Y-63060267D01*
X84631517Y-63067614D01*
X84629521Y-63067745D01*
X84628410Y-63066082D01*
X84628743Y-63064840D01*
X84630924Y-63061575D01*
X84651704Y-62995211D01*
X84630915Y-62924411D01*
X84628743Y-62921160D01*
X84628612Y-62919164D01*
X84630275Y-62918053D01*
X84631517Y-62918386D01*
X84642512Y-62925733D01*
X84661449Y-62929500D01*
X85211051Y-62929500D01*
X85229988Y-62925733D01*
X85245870Y-62915120D01*
X85256483Y-62899238D01*
X85260250Y-62880301D01*
X85260250Y-62630699D01*
X85256483Y-62611762D01*
X85245870Y-62595880D01*
X85229988Y-62585267D01*
X85211051Y-62581500D01*
X84661449Y-62581500D01*
X84642512Y-62585267D01*
X84631517Y-62592614D01*
X84629521Y-62592745D01*
X84628410Y-62591082D01*
X84628743Y-62589840D01*
X84637959Y-62576048D01*
X84636219Y-62574885D01*
X84635334Y-62573091D01*
X84635795Y-62571940D01*
X84650328Y-62554548D01*
X84658954Y-62485830D01*
X84636168Y-62438212D01*
X84636322Y-62436218D01*
X84636861Y-62435686D01*
X84637959Y-62434952D01*
X84628743Y-62421160D01*
X84628612Y-62419164D01*
X84630275Y-62418053D01*
X84631517Y-62418386D01*
X84642512Y-62425733D01*
X84661449Y-62429500D01*
X85211051Y-62429500D01*
X85229988Y-62425733D01*
X85245870Y-62415120D01*
X85256483Y-62399238D01*
X85260250Y-62380301D01*
X85260250Y-62130699D01*
X85256483Y-62111762D01*
X85249136Y-62100767D01*
X85249005Y-62098771D01*
X85250668Y-62097660D01*
X85251910Y-62097993D01*
G37*
G36*
X78702743Y-63268335D02*
G01*
X78703500Y-63269902D01*
X78703500Y-63892868D01*
X78723928Y-64048028D01*
X78783765Y-64192490D01*
X78861065Y-64293228D01*
X78861326Y-64295211D01*
X78859739Y-64296429D01*
X78858103Y-64295898D01*
X78840709Y-64279421D01*
X78840411Y-64279066D01*
X78831518Y-64265501D01*
X78778539Y-64220434D01*
X78709899Y-64211202D01*
X78647164Y-64240546D01*
X78610169Y-64299280D01*
X78605481Y-64332977D01*
X78604252Y-64334554D01*
X78602271Y-64334279D01*
X78601500Y-64332701D01*
X78601500Y-63543199D01*
X78586315Y-63466860D01*
X78543186Y-63402314D01*
X78504332Y-63376352D01*
X78503447Y-63374558D01*
X78504558Y-63372895D01*
X78506288Y-63372876D01*
X78524261Y-63381257D01*
X78593027Y-63391701D01*
X78656253Y-63363430D01*
X78694239Y-63305341D01*
X78699521Y-63269610D01*
X78700764Y-63268042D01*
X78702743Y-63268335D01*
G37*
G36*
X71305419Y-63269339D02*
G01*
X71325096Y-63336354D01*
X71377439Y-63381709D01*
X71446138Y-63391586D01*
X71480614Y-63381315D01*
X71498713Y-63372875D01*
X71500705Y-63373050D01*
X71501550Y-63374862D01*
X71500669Y-63376351D01*
X71461814Y-63402314D01*
X71418685Y-63466860D01*
X71403500Y-63543199D01*
X71403500Y-64331121D01*
X71402500Y-64332853D01*
X71400500Y-64332853D01*
X71399581Y-64331684D01*
X71379905Y-64264672D01*
X71327562Y-64219317D01*
X71259009Y-64209460D01*
X71195808Y-64238323D01*
X71182716Y-64251544D01*
X71164571Y-64272903D01*
X71162688Y-64273575D01*
X71161163Y-64272281D01*
X71161460Y-64270390D01*
X71221235Y-64192490D01*
X71281072Y-64048028D01*
X71301500Y-63892868D01*
X71301500Y-63269902D01*
X71302500Y-63268170D01*
X71304500Y-63268170D01*
X71305419Y-63269339D01*
G37*
G36*
X71927297Y-63112189D02*
G01*
X71996937Y-63147672D01*
X72095259Y-63163245D01*
X72096813Y-63164503D01*
X72096500Y-63166479D01*
X72095474Y-63167149D01*
X72036798Y-63183216D01*
X71990493Y-63234717D01*
X71979382Y-63303080D01*
X72007095Y-63366828D01*
X72014402Y-63374822D01*
X72024934Y-63385354D01*
X72025452Y-63387286D01*
X72024038Y-63388700D01*
X72022409Y-63388431D01*
X71978640Y-63359185D01*
X71902301Y-63344000D01*
X71855963Y-63344000D01*
X71854231Y-63343000D01*
X71854231Y-63341000D01*
X71855400Y-63340081D01*
X71922415Y-63320404D01*
X71967770Y-63268061D01*
X71977627Y-63199507D01*
X71948789Y-63136364D01*
X71925067Y-63115472D01*
X71924428Y-63113577D01*
X71925750Y-63112076D01*
X71927297Y-63112189D01*
G37*
G36*
X78081491Y-63111381D02*
G01*
X78082399Y-63113163D01*
X78081886Y-63114398D01*
X78037401Y-63163655D01*
X78026138Y-63231991D01*
X78053608Y-63295568D01*
X78111207Y-63334280D01*
X78148434Y-63340023D01*
X78149993Y-63341276D01*
X78149688Y-63343252D01*
X78148129Y-63344000D01*
X78102699Y-63344000D01*
X78026360Y-63359185D01*
X77982591Y-63388431D01*
X77980595Y-63388562D01*
X77979484Y-63386899D01*
X77980066Y-63385354D01*
X77990024Y-63375396D01*
X78023358Y-63314347D01*
X78018418Y-63245265D01*
X77976930Y-63189844D01*
X77910265Y-63166975D01*
X77908951Y-63165467D01*
X77909600Y-63163575D01*
X77910601Y-63163108D01*
X78008063Y-63147672D01*
X78079494Y-63111276D01*
X78081491Y-63111381D01*
G37*
M02*
