%FSLAX45Y45*%
G04 Gerber Fmt 4.5, Leading zero omitted, Abs format (unit mm)*
G04 Created by KiCad (PCBNEW (6.0.0)) date 2022-01-15 11:29:06*
%MOMM*%
%LPD*%
G01*
G04 APERTURE LIST*
%TA.AperFunction,Profile*%
%ADD10C,0.150000*%
%TD*%
%ADD11C,0.200000*%
%ADD12C,0.065000*%
%ADD13C,0.220000*%
G04 APERTURE END LIST*
D10*
X5721250Y-6764300D02*
X9164250Y-6759300D01*
X5704250Y-5773300D02*
X7145250Y-5772300D01*
X9162250Y-6759300D02*
G75*
G03*
X9152250Y-5769300I-2970J495021D01*
G01*
X7850250Y-5767300D02*
X9158250Y-5769300D01*
X5711250Y-5775300D02*
G75*
G03*
X5719250Y-6763300I984J-494024D01*
G01*
X7853250Y-5767300D02*
G75*
G03*
X7737250Y-5654300I-103650J9638D01*
G01*
X7257454Y-5655287D02*
G75*
G03*
X7144454Y-5771287I-9638J-103650D01*
G01*
X7259250Y-5655287D02*
X7737250Y-5654300D01*
D11*
D12*
X7178750Y-6246700D02*
X7243750Y-6311700D01*
X7243750Y-6246700D02*
X7178750Y-6311700D01*
X7756750Y-6246700D02*
X7821750Y-6311700D01*
X7821750Y-6246700D02*
X7756750Y-6311700D01*
D13*
X5666250Y-6273300D02*
G75*
G03*
X5666250Y-6273300I-110000J0D01*
G01*
D11*
X5468327Y-7082276D02*
X5468327Y-6882276D01*
X5515946Y-6882276D01*
X5544518Y-6891800D01*
X5563565Y-6910848D01*
X5573089Y-6929895D01*
X5582613Y-6967990D01*
X5582613Y-6996562D01*
X5573089Y-7034657D01*
X5563565Y-7053705D01*
X5544518Y-7072752D01*
X5515946Y-7082276D01*
X5468327Y-7082276D01*
X5668327Y-7082276D02*
X5668327Y-6948943D01*
X5668327Y-6987038D02*
X5677851Y-6967990D01*
X5687375Y-6958467D01*
X5706422Y-6948943D01*
X5725470Y-6948943D01*
X5792137Y-7082276D02*
X5792137Y-6948943D01*
X5792137Y-6882276D02*
X5782613Y-6891800D01*
X5792137Y-6901324D01*
X5801660Y-6891800D01*
X5792137Y-6882276D01*
X5792137Y-6901324D01*
X5915946Y-7082276D02*
X5896899Y-7072752D01*
X5887375Y-7053705D01*
X5887375Y-6882276D01*
X6020708Y-7082276D02*
X6001660Y-7072752D01*
X5992137Y-7053705D01*
X5992137Y-6882276D01*
X6249280Y-7082276D02*
X6249280Y-6882276D01*
X6315946Y-7025133D01*
X6382613Y-6882276D01*
X6382613Y-7082276D01*
X6563565Y-7082276D02*
X6563565Y-6977514D01*
X6554041Y-6958467D01*
X6534994Y-6948943D01*
X6496899Y-6948943D01*
X6477851Y-6958467D01*
X6563565Y-7072752D02*
X6544518Y-7082276D01*
X6496899Y-7082276D01*
X6477851Y-7072752D01*
X6468327Y-7053705D01*
X6468327Y-7034657D01*
X6477851Y-7015609D01*
X6496899Y-7006086D01*
X6544518Y-7006086D01*
X6563565Y-6996562D01*
X6658803Y-6948943D02*
X6658803Y-7148943D01*
X6658803Y-6958467D02*
X6677851Y-6948943D01*
X6715946Y-6948943D01*
X6734994Y-6958467D01*
X6744518Y-6967990D01*
X6754041Y-6987038D01*
X6754041Y-7044181D01*
X6744518Y-7063228D01*
X6734994Y-7072752D01*
X6715946Y-7082276D01*
X6677851Y-7082276D01*
X6658803Y-7072752D01*
X6839756Y-7063228D02*
X6849280Y-7072752D01*
X6839756Y-7082276D01*
X6830232Y-7072752D01*
X6839756Y-7063228D01*
X6839756Y-7082276D01*
X6839756Y-6958467D02*
X6849280Y-6967990D01*
X6839756Y-6977514D01*
X6830232Y-6967990D01*
X6839756Y-6958467D01*
X6839756Y-6977514D01*
D12*
X5145708Y-7379300D02*
X5210708Y-7444300D01*
X5210708Y-7379300D02*
X5145708Y-7444300D01*
D11*
X5506422Y-7302276D02*
X5525470Y-7302276D01*
X5544518Y-7311800D01*
X5554042Y-7321324D01*
X5563565Y-7340371D01*
X5573089Y-7378467D01*
X5573089Y-7426086D01*
X5563565Y-7464181D01*
X5554042Y-7483228D01*
X5544518Y-7492752D01*
X5525470Y-7502276D01*
X5506422Y-7502276D01*
X5487375Y-7492752D01*
X5477851Y-7483228D01*
X5468327Y-7464181D01*
X5458803Y-7426086D01*
X5458803Y-7378467D01*
X5468327Y-7340371D01*
X5477851Y-7321324D01*
X5487375Y-7311800D01*
X5506422Y-7302276D01*
X5658803Y-7483228D02*
X5668327Y-7492752D01*
X5658803Y-7502276D01*
X5649280Y-7492752D01*
X5658803Y-7483228D01*
X5658803Y-7502276D01*
X5839756Y-7302276D02*
X5801660Y-7302276D01*
X5782613Y-7311800D01*
X5773089Y-7321324D01*
X5754041Y-7349895D01*
X5744518Y-7387990D01*
X5744518Y-7464181D01*
X5754041Y-7483228D01*
X5763565Y-7492752D01*
X5782613Y-7502276D01*
X5820708Y-7502276D01*
X5839756Y-7492752D01*
X5849280Y-7483228D01*
X5858803Y-7464181D01*
X5858803Y-7416562D01*
X5849280Y-7397514D01*
X5839756Y-7387990D01*
X5820708Y-7378467D01*
X5782613Y-7378467D01*
X5763565Y-7387990D01*
X5754041Y-7397514D01*
X5744518Y-7416562D01*
X6039756Y-7302276D02*
X5944518Y-7302276D01*
X5934994Y-7397514D01*
X5944518Y-7387990D01*
X5963565Y-7378467D01*
X6011184Y-7378467D01*
X6030232Y-7387990D01*
X6039756Y-7397514D01*
X6049280Y-7416562D01*
X6049280Y-7464181D01*
X6039756Y-7483228D01*
X6030232Y-7492752D01*
X6011184Y-7502276D01*
X5963565Y-7502276D01*
X5944518Y-7492752D01*
X5934994Y-7483228D01*
X6173089Y-7302276D02*
X6192137Y-7302276D01*
X6211184Y-7311800D01*
X6220708Y-7321324D01*
X6230232Y-7340371D01*
X6239756Y-7378467D01*
X6239756Y-7426086D01*
X6230232Y-7464181D01*
X6220708Y-7483228D01*
X6211184Y-7492752D01*
X6192137Y-7502276D01*
X6173089Y-7502276D01*
X6154041Y-7492752D01*
X6144518Y-7483228D01*
X6134994Y-7464181D01*
X6125470Y-7426086D01*
X6125470Y-7378467D01*
X6134994Y-7340371D01*
X6144518Y-7321324D01*
X6154041Y-7311800D01*
X6173089Y-7302276D01*
X6325470Y-7502276D02*
X6325470Y-7368943D01*
X6325470Y-7387990D02*
X6334994Y-7378467D01*
X6354041Y-7368943D01*
X6382613Y-7368943D01*
X6401660Y-7378467D01*
X6411184Y-7397514D01*
X6411184Y-7502276D01*
X6411184Y-7397514D02*
X6420708Y-7378467D01*
X6439756Y-7368943D01*
X6468327Y-7368943D01*
X6487375Y-7378467D01*
X6496899Y-7397514D01*
X6496899Y-7502276D01*
X6592137Y-7502276D02*
X6592137Y-7368943D01*
X6592137Y-7387990D02*
X6601660Y-7378467D01*
X6620708Y-7368943D01*
X6649280Y-7368943D01*
X6668327Y-7378467D01*
X6677851Y-7397514D01*
X6677851Y-7502276D01*
X6677851Y-7397514D02*
X6687375Y-7378467D01*
X6706422Y-7368943D01*
X6734994Y-7368943D01*
X6754041Y-7378467D01*
X6763565Y-7397514D01*
X6763565Y-7502276D01*
X7154041Y-7292752D02*
X6982613Y-7549895D01*
X7411184Y-7302276D02*
X7430232Y-7302276D01*
X7449280Y-7311800D01*
X7458803Y-7321324D01*
X7468327Y-7340371D01*
X7477851Y-7378467D01*
X7477851Y-7426086D01*
X7468327Y-7464181D01*
X7458803Y-7483228D01*
X7449280Y-7492752D01*
X7430232Y-7502276D01*
X7411184Y-7502276D01*
X7392137Y-7492752D01*
X7382613Y-7483228D01*
X7373089Y-7464181D01*
X7363565Y-7426086D01*
X7363565Y-7378467D01*
X7373089Y-7340371D01*
X7382613Y-7321324D01*
X7392137Y-7311800D01*
X7411184Y-7302276D01*
X7563565Y-7483228D02*
X7573089Y-7492752D01*
X7563565Y-7502276D01*
X7554041Y-7492752D01*
X7563565Y-7483228D01*
X7563565Y-7502276D01*
X7696899Y-7302276D02*
X7715946Y-7302276D01*
X7734994Y-7311800D01*
X7744518Y-7321324D01*
X7754041Y-7340371D01*
X7763565Y-7378467D01*
X7763565Y-7426086D01*
X7754041Y-7464181D01*
X7744518Y-7483228D01*
X7734994Y-7492752D01*
X7715946Y-7502276D01*
X7696899Y-7502276D01*
X7677851Y-7492752D01*
X7668327Y-7483228D01*
X7658803Y-7464181D01*
X7649280Y-7426086D01*
X7649280Y-7378467D01*
X7658803Y-7340371D01*
X7668327Y-7321324D01*
X7677851Y-7311800D01*
X7696899Y-7302276D01*
X7839756Y-7321324D02*
X7849280Y-7311800D01*
X7868327Y-7302276D01*
X7915946Y-7302276D01*
X7934994Y-7311800D01*
X7944518Y-7321324D01*
X7954041Y-7340371D01*
X7954041Y-7359419D01*
X7944518Y-7387990D01*
X7830232Y-7502276D01*
X7954041Y-7502276D01*
X8134994Y-7302276D02*
X8039756Y-7302276D01*
X8030232Y-7397514D01*
X8039756Y-7387990D01*
X8058803Y-7378467D01*
X8106422Y-7378467D01*
X8125470Y-7387990D01*
X8134994Y-7397514D01*
X8144518Y-7416562D01*
X8144518Y-7464181D01*
X8134994Y-7483228D01*
X8125470Y-7492752D01*
X8106422Y-7502276D01*
X8058803Y-7502276D01*
X8039756Y-7492752D01*
X8030232Y-7483228D01*
X8315946Y-7302276D02*
X8277851Y-7302276D01*
X8258803Y-7311800D01*
X8249280Y-7321324D01*
X8230232Y-7349895D01*
X8220708Y-7387990D01*
X8220708Y-7464181D01*
X8230232Y-7483228D01*
X8239756Y-7492752D01*
X8258803Y-7502276D01*
X8296899Y-7502276D01*
X8315946Y-7492752D01*
X8325470Y-7483228D01*
X8334994Y-7464181D01*
X8334994Y-7416562D01*
X8325470Y-7397514D01*
X8315946Y-7387990D01*
X8296899Y-7378467D01*
X8258803Y-7378467D01*
X8239756Y-7387990D01*
X8230232Y-7397514D01*
X8220708Y-7416562D01*
X8411184Y-7302276D02*
X8411184Y-7340371D01*
X8487375Y-7302276D02*
X8487375Y-7340371D01*
X8782613Y-7578467D02*
X8773089Y-7568943D01*
X8754042Y-7540371D01*
X8744518Y-7521324D01*
X8734994Y-7492752D01*
X8725470Y-7445133D01*
X8725470Y-7407038D01*
X8734994Y-7359419D01*
X8744518Y-7330848D01*
X8754042Y-7311800D01*
X8773089Y-7283228D01*
X8782613Y-7273705D01*
X8849280Y-7321324D02*
X8858803Y-7311800D01*
X8877851Y-7302276D01*
X8925470Y-7302276D01*
X8944518Y-7311800D01*
X8954042Y-7321324D01*
X8963565Y-7340371D01*
X8963565Y-7359419D01*
X8954042Y-7387990D01*
X8839756Y-7502276D01*
X8963565Y-7502276D01*
X9201661Y-7502276D02*
X9201661Y-7302276D01*
X9287375Y-7502276D02*
X9287375Y-7397514D01*
X9277851Y-7378467D01*
X9258803Y-7368943D01*
X9230232Y-7368943D01*
X9211184Y-7378467D01*
X9201661Y-7387990D01*
X9411184Y-7502276D02*
X9392137Y-7492752D01*
X9382613Y-7483228D01*
X9373089Y-7464181D01*
X9373089Y-7407038D01*
X9382613Y-7387990D01*
X9392137Y-7378467D01*
X9411184Y-7368943D01*
X9439756Y-7368943D01*
X9458803Y-7378467D01*
X9468327Y-7387990D01*
X9477851Y-7407038D01*
X9477851Y-7464181D01*
X9468327Y-7483228D01*
X9458803Y-7492752D01*
X9439756Y-7502276D01*
X9411184Y-7502276D01*
X9592137Y-7502276D02*
X9573089Y-7492752D01*
X9563565Y-7473705D01*
X9563565Y-7302276D01*
X9744518Y-7492752D02*
X9725470Y-7502276D01*
X9687375Y-7502276D01*
X9668327Y-7492752D01*
X9658803Y-7473705D01*
X9658803Y-7397514D01*
X9668327Y-7378467D01*
X9687375Y-7368943D01*
X9725470Y-7368943D01*
X9744518Y-7378467D01*
X9754042Y-7397514D01*
X9754042Y-7416562D01*
X9658803Y-7435609D01*
X9830232Y-7492752D02*
X9849280Y-7502276D01*
X9887375Y-7502276D01*
X9906422Y-7492752D01*
X9915946Y-7473705D01*
X9915946Y-7464181D01*
X9906422Y-7445133D01*
X9887375Y-7435609D01*
X9858803Y-7435609D01*
X9839756Y-7426086D01*
X9830232Y-7407038D01*
X9830232Y-7397514D01*
X9839756Y-7378467D01*
X9858803Y-7368943D01*
X9887375Y-7368943D01*
X9906422Y-7378467D01*
X9982613Y-7578467D02*
X9992137Y-7568943D01*
X10011184Y-7540371D01*
X10020708Y-7521324D01*
X10030232Y-7492752D01*
X10039756Y-7445133D01*
X10039756Y-7407038D01*
X10030232Y-7359419D01*
X10020708Y-7330848D01*
X10011184Y-7311800D01*
X9992137Y-7283228D01*
X9982613Y-7273705D01*
X10344518Y-7578467D02*
X10334994Y-7568943D01*
X10315946Y-7540371D01*
X10306422Y-7521324D01*
X10296899Y-7492752D01*
X10287375Y-7445133D01*
X10287375Y-7407038D01*
X10296899Y-7359419D01*
X10306422Y-7330848D01*
X10315946Y-7311800D01*
X10334994Y-7283228D01*
X10344518Y-7273705D01*
X10420708Y-7368943D02*
X10420708Y-7502276D01*
X10420708Y-7387990D02*
X10430232Y-7378467D01*
X10449280Y-7368943D01*
X10477851Y-7368943D01*
X10496899Y-7378467D01*
X10506422Y-7397514D01*
X10506422Y-7502276D01*
X10630232Y-7502276D02*
X10611184Y-7492752D01*
X10601661Y-7483228D01*
X10592137Y-7464181D01*
X10592137Y-7407038D01*
X10601661Y-7387990D01*
X10611184Y-7378467D01*
X10630232Y-7368943D01*
X10658803Y-7368943D01*
X10677851Y-7378467D01*
X10687375Y-7387990D01*
X10696899Y-7407038D01*
X10696899Y-7464181D01*
X10687375Y-7483228D01*
X10677851Y-7492752D01*
X10658803Y-7502276D01*
X10630232Y-7502276D01*
X10754042Y-7368943D02*
X10830232Y-7368943D01*
X10782613Y-7302276D02*
X10782613Y-7473705D01*
X10792137Y-7492752D01*
X10811184Y-7502276D01*
X10830232Y-7502276D01*
X11049280Y-7368943D02*
X11049280Y-7568943D01*
X11049280Y-7378467D02*
X11068327Y-7368943D01*
X11106422Y-7368943D01*
X11125470Y-7378467D01*
X11134994Y-7387990D01*
X11144518Y-7407038D01*
X11144518Y-7464181D01*
X11134994Y-7483228D01*
X11125470Y-7492752D01*
X11106422Y-7502276D01*
X11068327Y-7502276D01*
X11049280Y-7492752D01*
X11258803Y-7502276D02*
X11239756Y-7492752D01*
X11230232Y-7473705D01*
X11230232Y-7302276D01*
X11420708Y-7502276D02*
X11420708Y-7397514D01*
X11411184Y-7378467D01*
X11392137Y-7368943D01*
X11354041Y-7368943D01*
X11334994Y-7378467D01*
X11420708Y-7492752D02*
X11401660Y-7502276D01*
X11354041Y-7502276D01*
X11334994Y-7492752D01*
X11325470Y-7473705D01*
X11325470Y-7454657D01*
X11334994Y-7435609D01*
X11354041Y-7426086D01*
X11401660Y-7426086D01*
X11420708Y-7416562D01*
X11487375Y-7368943D02*
X11563565Y-7368943D01*
X11515946Y-7302276D02*
X11515946Y-7473705D01*
X11525470Y-7492752D01*
X11544518Y-7502276D01*
X11563565Y-7502276D01*
X11706422Y-7492752D02*
X11687375Y-7502276D01*
X11649280Y-7502276D01*
X11630232Y-7492752D01*
X11620708Y-7473705D01*
X11620708Y-7397514D01*
X11630232Y-7378467D01*
X11649280Y-7368943D01*
X11687375Y-7368943D01*
X11706422Y-7378467D01*
X11715946Y-7397514D01*
X11715946Y-7416562D01*
X11620708Y-7435609D01*
X11887375Y-7502276D02*
X11887375Y-7302276D01*
X11887375Y-7492752D02*
X11868327Y-7502276D01*
X11830232Y-7502276D01*
X11811184Y-7492752D01*
X11801660Y-7483228D01*
X11792137Y-7464181D01*
X11792137Y-7407038D01*
X11801660Y-7387990D01*
X11811184Y-7378467D01*
X11830232Y-7368943D01*
X11868327Y-7368943D01*
X11887375Y-7378467D01*
X11963565Y-7578467D02*
X11973089Y-7568943D01*
X11992137Y-7540371D01*
X12001660Y-7521324D01*
X12011184Y-7492752D01*
X12020708Y-7445133D01*
X12020708Y-7407038D01*
X12011184Y-7359419D01*
X12001660Y-7330848D01*
X11992137Y-7311800D01*
X11973089Y-7283228D01*
X11963565Y-7273705D01*
X5210708Y-7675800D02*
G75*
G03*
X5210708Y-7675800I-100000J0D01*
G01*
X5458803Y-7585324D02*
X5468327Y-7575800D01*
X5487375Y-7566276D01*
X5534994Y-7566276D01*
X5554042Y-7575800D01*
X5563565Y-7585324D01*
X5573089Y-7604371D01*
X5573089Y-7623419D01*
X5563565Y-7651990D01*
X5449280Y-7766276D01*
X5573089Y-7766276D01*
X5658803Y-7747228D02*
X5668327Y-7756752D01*
X5658803Y-7766276D01*
X5649280Y-7756752D01*
X5658803Y-7747228D01*
X5658803Y-7766276D01*
X5744518Y-7585324D02*
X5754041Y-7575800D01*
X5773089Y-7566276D01*
X5820708Y-7566276D01*
X5839756Y-7575800D01*
X5849280Y-7585324D01*
X5858803Y-7604371D01*
X5858803Y-7623419D01*
X5849280Y-7651990D01*
X5734994Y-7766276D01*
X5858803Y-7766276D01*
X5982613Y-7566276D02*
X6001660Y-7566276D01*
X6020708Y-7575800D01*
X6030232Y-7585324D01*
X6039756Y-7604371D01*
X6049280Y-7642467D01*
X6049280Y-7690086D01*
X6039756Y-7728181D01*
X6030232Y-7747228D01*
X6020708Y-7756752D01*
X6001660Y-7766276D01*
X5982613Y-7766276D01*
X5963565Y-7756752D01*
X5954041Y-7747228D01*
X5944518Y-7728181D01*
X5934994Y-7690086D01*
X5934994Y-7642467D01*
X5944518Y-7604371D01*
X5954041Y-7585324D01*
X5963565Y-7575800D01*
X5982613Y-7566276D01*
X6173089Y-7566276D02*
X6192137Y-7566276D01*
X6211184Y-7575800D01*
X6220708Y-7585324D01*
X6230232Y-7604371D01*
X6239756Y-7642467D01*
X6239756Y-7690086D01*
X6230232Y-7728181D01*
X6220708Y-7747228D01*
X6211184Y-7756752D01*
X6192137Y-7766276D01*
X6173089Y-7766276D01*
X6154041Y-7756752D01*
X6144518Y-7747228D01*
X6134994Y-7728181D01*
X6125470Y-7690086D01*
X6125470Y-7642467D01*
X6134994Y-7604371D01*
X6144518Y-7585324D01*
X6154041Y-7575800D01*
X6173089Y-7566276D01*
X6325470Y-7766276D02*
X6325470Y-7632943D01*
X6325470Y-7651990D02*
X6334994Y-7642467D01*
X6354041Y-7632943D01*
X6382613Y-7632943D01*
X6401660Y-7642467D01*
X6411184Y-7661514D01*
X6411184Y-7766276D01*
X6411184Y-7661514D02*
X6420708Y-7642467D01*
X6439756Y-7632943D01*
X6468327Y-7632943D01*
X6487375Y-7642467D01*
X6496899Y-7661514D01*
X6496899Y-7766276D01*
X6592137Y-7766276D02*
X6592137Y-7632943D01*
X6592137Y-7651990D02*
X6601660Y-7642467D01*
X6620708Y-7632943D01*
X6649280Y-7632943D01*
X6668327Y-7642467D01*
X6677851Y-7661514D01*
X6677851Y-7766276D01*
X6677851Y-7661514D02*
X6687375Y-7642467D01*
X6706422Y-7632943D01*
X6734994Y-7632943D01*
X6754041Y-7642467D01*
X6763565Y-7661514D01*
X6763565Y-7766276D01*
X7154041Y-7556752D02*
X6982613Y-7813895D01*
X7411184Y-7566276D02*
X7430232Y-7566276D01*
X7449280Y-7575800D01*
X7458803Y-7585324D01*
X7468327Y-7604371D01*
X7477851Y-7642467D01*
X7477851Y-7690086D01*
X7468327Y-7728181D01*
X7458803Y-7747228D01*
X7449280Y-7756752D01*
X7430232Y-7766276D01*
X7411184Y-7766276D01*
X7392137Y-7756752D01*
X7382613Y-7747228D01*
X7373089Y-7728181D01*
X7363565Y-7690086D01*
X7363565Y-7642467D01*
X7373089Y-7604371D01*
X7382613Y-7585324D01*
X7392137Y-7575800D01*
X7411184Y-7566276D01*
X7563565Y-7747228D02*
X7573089Y-7756752D01*
X7563565Y-7766276D01*
X7554041Y-7756752D01*
X7563565Y-7747228D01*
X7563565Y-7766276D01*
X7696899Y-7566276D02*
X7715946Y-7566276D01*
X7734994Y-7575800D01*
X7744518Y-7585324D01*
X7754041Y-7604371D01*
X7763565Y-7642467D01*
X7763565Y-7690086D01*
X7754041Y-7728181D01*
X7744518Y-7747228D01*
X7734994Y-7756752D01*
X7715946Y-7766276D01*
X7696899Y-7766276D01*
X7677851Y-7756752D01*
X7668327Y-7747228D01*
X7658803Y-7728181D01*
X7649280Y-7690086D01*
X7649280Y-7642467D01*
X7658803Y-7604371D01*
X7668327Y-7585324D01*
X7677851Y-7575800D01*
X7696899Y-7566276D01*
X7877851Y-7651990D02*
X7858803Y-7642467D01*
X7849280Y-7632943D01*
X7839756Y-7613895D01*
X7839756Y-7604371D01*
X7849280Y-7585324D01*
X7858803Y-7575800D01*
X7877851Y-7566276D01*
X7915946Y-7566276D01*
X7934994Y-7575800D01*
X7944518Y-7585324D01*
X7954041Y-7604371D01*
X7954041Y-7613895D01*
X7944518Y-7632943D01*
X7934994Y-7642467D01*
X7915946Y-7651990D01*
X7877851Y-7651990D01*
X7858803Y-7661514D01*
X7849280Y-7671038D01*
X7839756Y-7690086D01*
X7839756Y-7728181D01*
X7849280Y-7747228D01*
X7858803Y-7756752D01*
X7877851Y-7766276D01*
X7915946Y-7766276D01*
X7934994Y-7756752D01*
X7944518Y-7747228D01*
X7954041Y-7728181D01*
X7954041Y-7690086D01*
X7944518Y-7671038D01*
X7934994Y-7661514D01*
X7915946Y-7651990D01*
X8125470Y-7566276D02*
X8087375Y-7566276D01*
X8068327Y-7575800D01*
X8058803Y-7585324D01*
X8039756Y-7613895D01*
X8030232Y-7651990D01*
X8030232Y-7728181D01*
X8039756Y-7747228D01*
X8049280Y-7756752D01*
X8068327Y-7766276D01*
X8106422Y-7766276D01*
X8125470Y-7756752D01*
X8134994Y-7747228D01*
X8144518Y-7728181D01*
X8144518Y-7680562D01*
X8134994Y-7661514D01*
X8125470Y-7651990D01*
X8106422Y-7642467D01*
X8068327Y-7642467D01*
X8049280Y-7651990D01*
X8039756Y-7661514D01*
X8030232Y-7680562D01*
X8315946Y-7566276D02*
X8277851Y-7566276D01*
X8258803Y-7575800D01*
X8249280Y-7585324D01*
X8230232Y-7613895D01*
X8220708Y-7651990D01*
X8220708Y-7728181D01*
X8230232Y-7747228D01*
X8239756Y-7756752D01*
X8258803Y-7766276D01*
X8296899Y-7766276D01*
X8315946Y-7756752D01*
X8325470Y-7747228D01*
X8334994Y-7728181D01*
X8334994Y-7680562D01*
X8325470Y-7661514D01*
X8315946Y-7651990D01*
X8296899Y-7642467D01*
X8258803Y-7642467D01*
X8239756Y-7651990D01*
X8230232Y-7661514D01*
X8220708Y-7680562D01*
X8411184Y-7566276D02*
X8411184Y-7604371D01*
X8487375Y-7566276D02*
X8487375Y-7604371D01*
X8782613Y-7842467D02*
X8773089Y-7832943D01*
X8754042Y-7804371D01*
X8744518Y-7785324D01*
X8734994Y-7756752D01*
X8725470Y-7709133D01*
X8725470Y-7671038D01*
X8734994Y-7623419D01*
X8744518Y-7594848D01*
X8754042Y-7575800D01*
X8773089Y-7547228D01*
X8782613Y-7537705D01*
X8963565Y-7766276D02*
X8849280Y-7766276D01*
X8906422Y-7766276D02*
X8906422Y-7566276D01*
X8887375Y-7594848D01*
X8868327Y-7613895D01*
X8849280Y-7623419D01*
X9201661Y-7766276D02*
X9201661Y-7566276D01*
X9287375Y-7766276D02*
X9287375Y-7661514D01*
X9277851Y-7642467D01*
X9258803Y-7632943D01*
X9230232Y-7632943D01*
X9211184Y-7642467D01*
X9201661Y-7651990D01*
X9411184Y-7766276D02*
X9392137Y-7756752D01*
X9382613Y-7747228D01*
X9373089Y-7728181D01*
X9373089Y-7671038D01*
X9382613Y-7651990D01*
X9392137Y-7642467D01*
X9411184Y-7632943D01*
X9439756Y-7632943D01*
X9458803Y-7642467D01*
X9468327Y-7651990D01*
X9477851Y-7671038D01*
X9477851Y-7728181D01*
X9468327Y-7747228D01*
X9458803Y-7756752D01*
X9439756Y-7766276D01*
X9411184Y-7766276D01*
X9592137Y-7766276D02*
X9573089Y-7756752D01*
X9563565Y-7737705D01*
X9563565Y-7566276D01*
X9744518Y-7756752D02*
X9725470Y-7766276D01*
X9687375Y-7766276D01*
X9668327Y-7756752D01*
X9658803Y-7737705D01*
X9658803Y-7661514D01*
X9668327Y-7642467D01*
X9687375Y-7632943D01*
X9725470Y-7632943D01*
X9744518Y-7642467D01*
X9754042Y-7661514D01*
X9754042Y-7680562D01*
X9658803Y-7699609D01*
X9820708Y-7842467D02*
X9830232Y-7832943D01*
X9849280Y-7804371D01*
X9858803Y-7785324D01*
X9868327Y-7756752D01*
X9877851Y-7709133D01*
X9877851Y-7671038D01*
X9868327Y-7623419D01*
X9858803Y-7594848D01*
X9849280Y-7575800D01*
X9830232Y-7547228D01*
X9820708Y-7537705D01*
X10182613Y-7842467D02*
X10173089Y-7832943D01*
X10154042Y-7804371D01*
X10144518Y-7785324D01*
X10134994Y-7756752D01*
X10125470Y-7709133D01*
X10125470Y-7671038D01*
X10134994Y-7623419D01*
X10144518Y-7594848D01*
X10154042Y-7575800D01*
X10173089Y-7547228D01*
X10182613Y-7537705D01*
X10258803Y-7632943D02*
X10258803Y-7766276D01*
X10258803Y-7651990D02*
X10268327Y-7642467D01*
X10287375Y-7632943D01*
X10315946Y-7632943D01*
X10334994Y-7642467D01*
X10344518Y-7661514D01*
X10344518Y-7766276D01*
X10468327Y-7766276D02*
X10449280Y-7756752D01*
X10439756Y-7747228D01*
X10430232Y-7728181D01*
X10430232Y-7671038D01*
X10439756Y-7651990D01*
X10449280Y-7642467D01*
X10468327Y-7632943D01*
X10496899Y-7632943D01*
X10515946Y-7642467D01*
X10525470Y-7651990D01*
X10534994Y-7671038D01*
X10534994Y-7728181D01*
X10525470Y-7747228D01*
X10515946Y-7756752D01*
X10496899Y-7766276D01*
X10468327Y-7766276D01*
X10592137Y-7632943D02*
X10668327Y-7632943D01*
X10620708Y-7566276D02*
X10620708Y-7737705D01*
X10630232Y-7756752D01*
X10649280Y-7766276D01*
X10668327Y-7766276D01*
X10887375Y-7632943D02*
X10887375Y-7832943D01*
X10887375Y-7642467D02*
X10906422Y-7632943D01*
X10944518Y-7632943D01*
X10963565Y-7642467D01*
X10973089Y-7651990D01*
X10982613Y-7671038D01*
X10982613Y-7728181D01*
X10973089Y-7747228D01*
X10963565Y-7756752D01*
X10944518Y-7766276D01*
X10906422Y-7766276D01*
X10887375Y-7756752D01*
X11096899Y-7766276D02*
X11077851Y-7756752D01*
X11068327Y-7737705D01*
X11068327Y-7566276D01*
X11258803Y-7766276D02*
X11258803Y-7661514D01*
X11249280Y-7642467D01*
X11230232Y-7632943D01*
X11192137Y-7632943D01*
X11173089Y-7642467D01*
X11258803Y-7756752D02*
X11239756Y-7766276D01*
X11192137Y-7766276D01*
X11173089Y-7756752D01*
X11163565Y-7737705D01*
X11163565Y-7718657D01*
X11173089Y-7699609D01*
X11192137Y-7690086D01*
X11239756Y-7690086D01*
X11258803Y-7680562D01*
X11325470Y-7632943D02*
X11401660Y-7632943D01*
X11354041Y-7566276D02*
X11354041Y-7737705D01*
X11363565Y-7756752D01*
X11382613Y-7766276D01*
X11401660Y-7766276D01*
X11544518Y-7756752D02*
X11525470Y-7766276D01*
X11487375Y-7766276D01*
X11468327Y-7756752D01*
X11458803Y-7737705D01*
X11458803Y-7661514D01*
X11468327Y-7642467D01*
X11487375Y-7632943D01*
X11525470Y-7632943D01*
X11544518Y-7642467D01*
X11554041Y-7661514D01*
X11554041Y-7680562D01*
X11458803Y-7699609D01*
X11725470Y-7766276D02*
X11725470Y-7566276D01*
X11725470Y-7756752D02*
X11706422Y-7766276D01*
X11668327Y-7766276D01*
X11649280Y-7756752D01*
X11639756Y-7747228D01*
X11630232Y-7728181D01*
X11630232Y-7671038D01*
X11639756Y-7651990D01*
X11649280Y-7642467D01*
X11668327Y-7632943D01*
X11706422Y-7632943D01*
X11725470Y-7642467D01*
X11801660Y-7842467D02*
X11811184Y-7832943D01*
X11830232Y-7804371D01*
X11839756Y-7785324D01*
X11849280Y-7756752D01*
X11858803Y-7709133D01*
X11858803Y-7671038D01*
X11849280Y-7623419D01*
X11839756Y-7594848D01*
X11830232Y-7575800D01*
X11811184Y-7547228D01*
X11801660Y-7537705D01*
M02*
