G04 #@! TF.GenerationSoftware,KiCad,Pcbnew,(6.0.0)*
G04 #@! TF.CreationDate,2022-01-15T11:29:00+07:00*
G04 #@! TF.ProjectId,Unified-Daughterboard,556e6966-6965-4642-9d44-617567687465,C3*
G04 #@! TF.SameCoordinates,Original*
G04 #@! TF.FileFunction,Legend,Top*
G04 #@! TF.FilePolarity,Positive*
%FSLAX46Y46*%
G04 Gerber Fmt 4.6, Leading zero omitted, Abs format (unit mm)*
G04 Created by KiCad (PCBNEW (6.0.0)) date 2022-01-15 11:29:00*
%MOMM*%
%LPD*%
G01*
G04 APERTURE LIST*
G04 Aperture macros list*
%AMRoundRect*
0 Rectangle with rounded corners*
0 $1 Rounding radius*
0 $2 $3 $4 $5 $6 $7 $8 $9 X,Y pos of 4 corners*
0 Add a 4 corners polygon primitive as box body*
4,1,4,$2,$3,$4,$5,$6,$7,$8,$9,$2,$3,0*
0 Add four circle primitives for the rounded corners*
1,1,$1+$1,$2,$3*
1,1,$1+$1,$4,$5*
1,1,$1+$1,$6,$7*
1,1,$1+$1,$8,$9*
0 Add four rect primitives between the rounded corners*
20,1,$1+$1,$2,$3,$4,$5,0*
20,1,$1+$1,$4,$5,$6,$7,0*
20,1,$1+$1,$6,$7,$8,$9,0*
20,1,$1+$1,$8,$9,$2,$3,0*%
G04 Aperture macros list end*
%ADD10C,0.250000*%
%ADD11C,0.127000*%
%ADD12C,0.150000*%
%ADD13C,0.200000*%
%ADD14C,0.152400*%
%ADD15C,0.120000*%
%ADD16C,0.400000*%
%ADD17C,0.101600*%
%ADD18C,0.100000*%
%ADD19C,3.602001*%
%ADD20RoundRect,0.051000X-0.250000X-0.450000X0.250000X-0.450000X0.250000X0.450000X-0.250000X0.450000X0*%
%ADD21RoundRect,0.176000X0.150000X0.000000X0.150000X0.000000X-0.150000X0.000000X-0.150000X0.000000X0*%
%ADD22RoundRect,0.051000X0.275000X-0.125000X0.275000X0.125000X-0.275000X0.125000X-0.275000X-0.125000X0*%
%ADD23RoundRect,0.051000X0.275000X-0.150000X0.275000X0.150000X-0.275000X0.150000X-0.275000X-0.150000X0*%
%ADD24RoundRect,0.301000X-0.250000X-0.350000X0.250000X-0.350000X0.250000X0.350000X-0.250000X0.350000X0*%
%ADD25RoundRect,0.301000X0.625000X-0.375000X0.625000X0.375000X-0.625000X0.375000X-0.625000X-0.375000X0*%
%ADD26RoundRect,0.051000X-0.600000X-0.900000X0.600000X-0.900000X0.600000X0.900000X-0.600000X0.900000X0*%
%ADD27RoundRect,0.051000X-0.300000X-0.775000X0.300000X-0.775000X0.300000X0.775000X-0.300000X0.775000X0*%
%ADD28RoundRect,0.301000X-0.625000X0.375000X-0.625000X-0.375000X0.625000X-0.375000X0.625000X0.375000X0*%
%ADD29C,0.752000*%
%ADD30RoundRect,0.201000X0.150000X0.575000X-0.150000X0.575000X-0.150000X-0.575000X0.150000X-0.575000X0*%
%ADD31RoundRect,0.126000X0.075000X0.650000X-0.075000X0.650000X-0.075000X-0.650000X0.075000X-0.650000X0*%
%ADD32O,1.202000X2.302000*%
%ADD33O,1.402000X2.002000*%
G04 APERTURE END LIST*
D10*
X57611636Y-59825380D02*
X57736636Y-58825380D01*
X58671160Y-59730142D02*
X58617589Y-59777761D01*
X58468779Y-59825380D01*
X58373541Y-59825380D01*
X58236636Y-59777761D01*
X58153303Y-59682523D01*
X58117589Y-59587285D01*
X58093779Y-59396809D01*
X58111636Y-59253952D01*
X58183065Y-59063476D01*
X58242589Y-58968238D01*
X58349732Y-58873000D01*
X58498541Y-58825380D01*
X58593779Y-58825380D01*
X58730684Y-58873000D01*
X58772351Y-58920619D01*
X59087827Y-59825380D02*
X59212827Y-58825380D01*
X59575922Y-59730142D02*
X59617589Y-59777761D01*
X59564017Y-59825380D01*
X59522351Y-59777761D01*
X59575922Y-59730142D01*
X59564017Y-59825380D01*
X60040208Y-59825380D02*
X60165208Y-58825380D01*
X60403303Y-58825380D01*
X60540208Y-58873000D01*
X60623541Y-58968238D01*
X60659255Y-59063476D01*
X60683065Y-59253952D01*
X60665208Y-59396809D01*
X60593779Y-59587285D01*
X60534255Y-59682523D01*
X60427113Y-59777761D01*
X60278303Y-59825380D01*
X60040208Y-59825380D01*
X61439017Y-59301571D02*
X61575922Y-59349190D01*
X61617589Y-59396809D01*
X61653303Y-59492047D01*
X61635446Y-59634904D01*
X61575922Y-59730142D01*
X61522351Y-59777761D01*
X61421160Y-59825380D01*
X61040208Y-59825380D01*
X61165208Y-58825380D01*
X61498541Y-58825380D01*
X61587827Y-58873000D01*
X61629494Y-58920619D01*
X61665208Y-59015857D01*
X61653303Y-59111095D01*
X61593779Y-59206333D01*
X61540208Y-59253952D01*
X61439017Y-59301571D01*
X61105684Y-59301571D01*
D11*
X66472030Y-59638116D02*
X66193840Y-59832850D01*
X66472030Y-59971945D02*
X65887830Y-59971945D01*
X65887830Y-59749392D01*
X65915650Y-59693754D01*
X65943469Y-59665935D01*
X65999107Y-59638116D01*
X66082564Y-59638116D01*
X66138202Y-59665935D01*
X66166021Y-59693754D01*
X66193840Y-59749392D01*
X66193840Y-59971945D01*
X65943469Y-59415564D02*
X65915650Y-59387745D01*
X65887830Y-59332107D01*
X65887830Y-59193011D01*
X65915650Y-59137373D01*
X65943469Y-59109554D01*
X65999107Y-59081735D01*
X66054745Y-59081735D01*
X66138202Y-59109554D01*
X66472030Y-59443383D01*
X66472030Y-59081735D01*
D12*
X84864107Y-61199728D02*
X84864107Y-61685442D01*
X84892678Y-61742585D01*
X84921250Y-61771157D01*
X84978392Y-61799728D01*
X85092678Y-61799728D01*
X85149821Y-61771157D01*
X85178392Y-61742585D01*
X85206964Y-61685442D01*
X85206964Y-61199728D01*
X85806964Y-61799728D02*
X85464107Y-61799728D01*
X85635535Y-61799728D02*
X85635535Y-61199728D01*
X85578392Y-61285442D01*
X85521250Y-61342585D01*
X85464107Y-61371157D01*
D13*
X85524523Y-58791404D02*
X85524523Y-57991404D01*
X85715000Y-57991404D01*
X85829285Y-58029500D01*
X85905476Y-58105690D01*
X85943571Y-58181880D01*
X85981666Y-58334261D01*
X85981666Y-58448547D01*
X85943571Y-58600928D01*
X85905476Y-58677119D01*
X85829285Y-58753309D01*
X85715000Y-58791404D01*
X85524523Y-58791404D01*
X86743571Y-58791404D02*
X86286428Y-58791404D01*
X86515000Y-58791404D02*
X86515000Y-57991404D01*
X86438809Y-58105690D01*
X86362619Y-58181880D01*
X86286428Y-58219976D01*
D14*
X88135500Y-60951714D02*
X87772642Y-60951714D01*
X87772642Y-60189714D01*
X88788642Y-60951714D02*
X88353214Y-60951714D01*
X88570928Y-60951714D02*
X88570928Y-60189714D01*
X88498357Y-60298571D01*
X88425785Y-60371142D01*
X88353214Y-60407428D01*
D12*
X62413166Y-65436380D02*
X62413166Y-66150666D01*
X62365547Y-66293523D01*
X62270309Y-66388761D01*
X62127452Y-66436380D01*
X62032214Y-66436380D01*
X62841738Y-65531619D02*
X62889357Y-65484000D01*
X62984595Y-65436380D01*
X63222690Y-65436380D01*
X63317928Y-65484000D01*
X63365547Y-65531619D01*
X63413166Y-65626857D01*
X63413166Y-65722095D01*
X63365547Y-65864952D01*
X62794119Y-66436380D01*
X63413166Y-66436380D01*
D11*
X82210833Y-63337642D02*
X81999166Y-63337642D01*
X81999166Y-63670261D02*
X81999166Y-63035261D01*
X82301547Y-63035261D01*
X82876071Y-63670261D02*
X82513214Y-63670261D01*
X82694642Y-63670261D02*
X82694642Y-63035261D01*
X82634166Y-63125976D01*
X82573690Y-63186452D01*
X82513214Y-63216690D01*
X80782511Y-58884583D02*
X80480130Y-59096250D01*
X80782511Y-59247440D02*
X80147511Y-59247440D01*
X80147511Y-59005535D01*
X80177750Y-58945059D01*
X80207988Y-58914821D01*
X80268464Y-58884583D01*
X80359178Y-58884583D01*
X80419654Y-58914821D01*
X80449892Y-58945059D01*
X80480130Y-59005535D01*
X80480130Y-59247440D01*
X80782511Y-58279821D02*
X80782511Y-58642678D01*
X80782511Y-58461250D02*
X80147511Y-58461250D01*
X80238226Y-58521726D01*
X80298702Y-58582202D01*
X80328940Y-58642678D01*
D12*
X74669166Y-59295380D02*
X74669166Y-60009666D01*
X74621547Y-60152523D01*
X74526309Y-60247761D01*
X74383452Y-60295380D01*
X74288214Y-60295380D01*
X75669166Y-60295380D02*
X75097738Y-60295380D01*
X75383452Y-60295380D02*
X75383452Y-59295380D01*
X75288214Y-59438238D01*
X75192976Y-59533476D01*
X75097738Y-59581095D01*
D15*
X68358750Y-59966750D02*
X67358750Y-59966750D01*
X67358750Y-58606750D02*
X68358750Y-58606750D01*
D16*
X85721250Y-64755500D02*
G75*
G03*
X85721250Y-64755500I0J0D01*
G01*
D15*
X86115000Y-60715500D02*
X86115000Y-59445500D01*
D17*
X83765000Y-58930500D02*
X84715000Y-58930500D01*
X88465000Y-58930500D02*
X87515000Y-58930500D01*
D15*
X86115000Y-59445500D02*
X86369000Y-59445500D01*
D17*
X88465000Y-58930500D02*
X88465000Y-61230500D01*
X88465000Y-61230500D02*
X87515000Y-61230500D01*
X83765000Y-61230500D02*
X84715000Y-61230500D01*
X83765000Y-61230500D02*
X83765000Y-58930500D01*
D15*
X86115000Y-60715500D02*
X85861000Y-60715500D01*
D18*
X86115000Y-60080500D02*
X86826000Y-59480500D01*
X86826000Y-59480500D02*
X86826000Y-60680500D01*
X86826000Y-60680500D02*
X86115000Y-60080500D01*
G36*
X86826000Y-60680500D02*
G01*
X86115000Y-60080500D01*
X86826000Y-59480500D01*
X86826000Y-60680500D01*
G37*
X86826000Y-60680500D02*
X86115000Y-60080500D01*
X86826000Y-59480500D01*
X86826000Y-60680500D01*
X86115000Y-60080500D02*
X85404000Y-60680500D01*
X85404000Y-60680500D02*
X85404000Y-59480500D01*
X85404000Y-59480500D02*
X86115000Y-60080500D01*
G36*
X86115000Y-60080500D02*
G01*
X85404000Y-60680500D01*
X85404000Y-59480500D01*
X86115000Y-60080500D01*
G37*
X86115000Y-60080500D02*
X85404000Y-60680500D01*
X85404000Y-59480500D01*
X86115000Y-60080500D01*
D15*
X89172500Y-64145064D02*
X89172500Y-62940936D01*
X87352500Y-64145064D02*
X87352500Y-62940936D01*
D12*
X64742500Y-66973000D02*
X60742500Y-66973000D01*
X64742500Y-62773000D02*
X65742500Y-62773000D01*
X65742500Y-62773000D02*
X65742500Y-65173000D01*
X59742500Y-65173000D02*
X59742500Y-62773000D01*
X59742500Y-62773000D02*
X60742500Y-62773000D01*
D15*
X81512500Y-62780936D02*
X81512500Y-63985064D01*
X83332500Y-62780936D02*
X83332500Y-63985064D01*
X81646250Y-58606750D02*
X82646250Y-58606750D01*
X82646250Y-59966750D02*
X81646250Y-59966750D01*
%LPC*%
D19*
X93232500Y-62853000D03*
D20*
X67108750Y-59286750D03*
X68608750Y-59286750D03*
D21*
X85706250Y-64255500D03*
D22*
X85706250Y-63755500D03*
D23*
X85706250Y-63255500D03*
D22*
X85706250Y-62755500D03*
X85706250Y-62255500D03*
X84936250Y-62255500D03*
X84936250Y-62755500D03*
D23*
X84936250Y-63255500D03*
D22*
X84936250Y-63755500D03*
X84936250Y-64255500D03*
D24*
X84465000Y-60080500D03*
X87765000Y-60080500D03*
D25*
X88262500Y-64943000D03*
X88262500Y-62143000D03*
D19*
X55562500Y-62733000D03*
D26*
X59942500Y-66273000D03*
X65542500Y-66273000D03*
D27*
X61242500Y-62398000D03*
X62242500Y-62398000D03*
X63242500Y-62398000D03*
X64242500Y-62398000D03*
D28*
X82422500Y-61983000D03*
X82422500Y-64783000D03*
D20*
X81396250Y-59286750D03*
X82896250Y-59286750D03*
D29*
X77892500Y-62792000D03*
X72112500Y-62792000D03*
D30*
X78252500Y-64118000D03*
X77452500Y-64118000D03*
D31*
X76252500Y-64118000D03*
X75256500Y-64118000D03*
X74752500Y-64118000D03*
X73752500Y-64118000D03*
D30*
X71752500Y-64118000D03*
X72552500Y-64118000D03*
D31*
X73252500Y-64118000D03*
X74252500Y-64118000D03*
X75752500Y-64118000D03*
X76752500Y-64118000D03*
D32*
X70702500Y-63343000D03*
D33*
X79302500Y-59143000D03*
D32*
X79302500Y-63343000D03*
D33*
X70702500Y-59143000D03*
M02*
