%FSLAX45Y45*%
G04 Gerber Fmt 4.5, Leading zero omitted, Abs format (unit mm)*
G04 Created by KiCad (PCBNEW (6.0.0)) date 2022-01-15 11:29:06*
%MOMM*%
%LPD*%
G01*
G04 APERTURE LIST*
%TA.AperFunction,Profile*%
%ADD10C,0.150000*%
%TD*%
%ADD11C,0.200000*%
%ADD12C,0.030000*%
%ADD13C,0.030480*%
%ADD14C,0.040000*%
%ADD15C,0.060000*%
%ADD16C,0.220000*%
G04 APERTURE END LIST*
D10*
X5721250Y-6764300D02*
X9164250Y-6759300D01*
X5704250Y-5773300D02*
X7145250Y-5772300D01*
X9162250Y-6759300D02*
G75*
G03*
X9152250Y-5769300I-2970J495021D01*
G01*
X7850250Y-5767300D02*
X9158250Y-5769300D01*
X5711250Y-5775300D02*
G75*
G03*
X5719250Y-6763300I984J-494024D01*
G01*
X7853250Y-5767300D02*
G75*
G03*
X7737250Y-5654300I-103650J9638D01*
G01*
X7257454Y-5655287D02*
G75*
G03*
X7144454Y-5771287I-9638J-103650D01*
G01*
X7259250Y-5655287D02*
X7737250Y-5654300D01*
D11*
D12*
X7836250Y-6587300D02*
X7866250Y-6617300D01*
X7866250Y-6587300D02*
X7836250Y-6617300D01*
X8048250Y-6308300D02*
X8078250Y-6338300D01*
X8078250Y-6308300D02*
X8048250Y-6338300D01*
X8166250Y-6639030D02*
X8196250Y-6669030D01*
X8196250Y-6639030D02*
X8166250Y-6669030D01*
X8345250Y-6570300D02*
X8375250Y-6600300D01*
X8375250Y-6570300D02*
X8345250Y-6600300D01*
X8431250Y-6574300D02*
X8461250Y-6604300D01*
X8461250Y-6574300D02*
X8431250Y-6604300D01*
X8530250Y-6564300D02*
X8560250Y-6594300D01*
X8560250Y-6564300D02*
X8530250Y-6594300D01*
X8626250Y-6183300D02*
X8656250Y-6213300D01*
X8656250Y-6183300D02*
X8626250Y-6213300D01*
X8626250Y-6250300D02*
X8656250Y-6280300D01*
X8656250Y-6250300D02*
X8626250Y-6280300D01*
X8629250Y-6428300D02*
X8659250Y-6458300D01*
X8659250Y-6428300D02*
X8629250Y-6458300D01*
X8689600Y-6375900D02*
X8719600Y-6405900D01*
X8719600Y-6375900D02*
X8689600Y-6405900D01*
D13*
X7270490Y-6523900D02*
G75*
G03*
X7270490Y-6523900I-15240J0D01*
G01*
X7414490Y-6585300D02*
G75*
G03*
X7414490Y-6585300I-15240J0D01*
G01*
X7489490Y-6659300D02*
G75*
G03*
X7489490Y-6659300I-15240J0D01*
G01*
X7566490Y-6583300D02*
G75*
G03*
X7566490Y-6583300I-15240J0D01*
G01*
X7639490Y-6627300D02*
G75*
G03*
X7639490Y-6627300I-15240J0D01*
G01*
X7760490Y-6523900D02*
G75*
G03*
X7760490Y-6523900I-15240J0D01*
G01*
D14*
X6855250Y-6526300D02*
X6855250Y-6566300D01*
X6835250Y-6546300D02*
X6875250Y-6546300D01*
X8836250Y-6180300D02*
X8836250Y-6220300D01*
X8816250Y-6200300D02*
X8856250Y-6200300D01*
D15*
X7091463Y-5935513D02*
X7091463Y-5893087D01*
X7049037Y-5893087D01*
X7049037Y-5935513D01*
X7091463Y-5935513D01*
D11*
X7090250Y-5944300D02*
X7090250Y-5884300D01*
X7050250Y-5944300D02*
X7050250Y-5884300D01*
X7090250Y-5884300D02*
G75*
G03*
X7050250Y-5884300I-20000J0D01*
G01*
X7050250Y-5944300D02*
G75*
G03*
X7090250Y-5944300I20000J0D01*
G01*
D15*
X7091463Y-6355513D02*
X7091463Y-6313087D01*
X7049037Y-6313087D01*
X7049037Y-6355513D01*
X7091463Y-6355513D01*
D11*
X7090250Y-6389300D02*
X7090250Y-6279300D01*
X7050250Y-6389300D02*
X7050250Y-6279300D01*
X7090250Y-6279300D02*
G75*
G03*
X7050250Y-6279300I-20000J0D01*
G01*
X7050250Y-6389300D02*
G75*
G03*
X7090250Y-6389300I20000J0D01*
G01*
D15*
X7951463Y-5935513D02*
X7951463Y-5893087D01*
X7909037Y-5893087D01*
X7909037Y-5935513D01*
X7951463Y-5935513D01*
D11*
X7950250Y-5944300D02*
X7950250Y-5884300D01*
X7910250Y-5944300D02*
X7910250Y-5884300D01*
X7950250Y-5884300D02*
G75*
G03*
X7910250Y-5884300I-20000J0D01*
G01*
X7910250Y-5944300D02*
G75*
G03*
X7950250Y-5944300I20000J0D01*
G01*
D15*
X7951463Y-6355513D02*
X7951463Y-6313087D01*
X7909037Y-6313087D01*
X7909037Y-6355513D01*
X7951463Y-6355513D01*
D11*
X7950250Y-6389300D02*
X7950250Y-6279300D01*
X7910250Y-6389300D02*
X7910250Y-6279300D01*
X7950250Y-6279300D02*
G75*
G03*
X7910250Y-6279300I-20000J0D01*
G01*
X7910250Y-6389300D02*
G75*
G03*
X7950250Y-6389300I20000J0D01*
G01*
D16*
X9323250Y-6395300D02*
X9433250Y-6285300D01*
X9323250Y-6175300D01*
X9213250Y-6285300D01*
X9323250Y-6395300D01*
D11*
X5468327Y-7082276D02*
X5468327Y-6882276D01*
X5515946Y-6882276D01*
X5544518Y-6891800D01*
X5563565Y-6910848D01*
X5573089Y-6929895D01*
X5582613Y-6967990D01*
X5582613Y-6996562D01*
X5573089Y-7034657D01*
X5563565Y-7053705D01*
X5544518Y-7072752D01*
X5515946Y-7082276D01*
X5468327Y-7082276D01*
X5668327Y-7082276D02*
X5668327Y-6948943D01*
X5668327Y-6987038D02*
X5677851Y-6967990D01*
X5687375Y-6958467D01*
X5706422Y-6948943D01*
X5725470Y-6948943D01*
X5792137Y-7082276D02*
X5792137Y-6948943D01*
X5792137Y-6882276D02*
X5782613Y-6891800D01*
X5792137Y-6901324D01*
X5801660Y-6891800D01*
X5792137Y-6882276D01*
X5792137Y-6901324D01*
X5915946Y-7082276D02*
X5896899Y-7072752D01*
X5887375Y-7053705D01*
X5887375Y-6882276D01*
X6020708Y-7082276D02*
X6001660Y-7072752D01*
X5992137Y-7053705D01*
X5992137Y-6882276D01*
X6249280Y-7082276D02*
X6249280Y-6882276D01*
X6315946Y-7025133D01*
X6382613Y-6882276D01*
X6382613Y-7082276D01*
X6563565Y-7082276D02*
X6563565Y-6977514D01*
X6554041Y-6958467D01*
X6534994Y-6948943D01*
X6496899Y-6948943D01*
X6477851Y-6958467D01*
X6563565Y-7072752D02*
X6544518Y-7082276D01*
X6496899Y-7082276D01*
X6477851Y-7072752D01*
X6468327Y-7053705D01*
X6468327Y-7034657D01*
X6477851Y-7015609D01*
X6496899Y-7006086D01*
X6544518Y-7006086D01*
X6563565Y-6996562D01*
X6658803Y-6948943D02*
X6658803Y-7148943D01*
X6658803Y-6958467D02*
X6677851Y-6948943D01*
X6715946Y-6948943D01*
X6734994Y-6958467D01*
X6744518Y-6967990D01*
X6754041Y-6987038D01*
X6754041Y-7044181D01*
X6744518Y-7063228D01*
X6734994Y-7072752D01*
X6715946Y-7082276D01*
X6677851Y-7082276D01*
X6658803Y-7072752D01*
X6839756Y-7063228D02*
X6849280Y-7072752D01*
X6839756Y-7082276D01*
X6830232Y-7072752D01*
X6839756Y-7063228D01*
X6839756Y-7082276D01*
X6839756Y-6958467D02*
X6849280Y-6967990D01*
X6839756Y-6977514D01*
X6830232Y-6967990D01*
X6839756Y-6958467D01*
X6839756Y-6977514D01*
D12*
X5180708Y-7396800D02*
X5210708Y-7426800D01*
X5210708Y-7396800D02*
X5180708Y-7426800D01*
D11*
X5506422Y-7302276D02*
X5525470Y-7302276D01*
X5544518Y-7311800D01*
X5554042Y-7321324D01*
X5563565Y-7340371D01*
X5573089Y-7378467D01*
X5573089Y-7426086D01*
X5563565Y-7464181D01*
X5554042Y-7483228D01*
X5544518Y-7492752D01*
X5525470Y-7502276D01*
X5506422Y-7502276D01*
X5487375Y-7492752D01*
X5477851Y-7483228D01*
X5468327Y-7464181D01*
X5458803Y-7426086D01*
X5458803Y-7378467D01*
X5468327Y-7340371D01*
X5477851Y-7321324D01*
X5487375Y-7311800D01*
X5506422Y-7302276D01*
X5658803Y-7483228D02*
X5668327Y-7492752D01*
X5658803Y-7502276D01*
X5649280Y-7492752D01*
X5658803Y-7483228D01*
X5658803Y-7502276D01*
X5734994Y-7302276D02*
X5858803Y-7302276D01*
X5792137Y-7378467D01*
X5820708Y-7378467D01*
X5839756Y-7387990D01*
X5849280Y-7397514D01*
X5858803Y-7416562D01*
X5858803Y-7464181D01*
X5849280Y-7483228D01*
X5839756Y-7492752D01*
X5820708Y-7502276D01*
X5763565Y-7502276D01*
X5744518Y-7492752D01*
X5734994Y-7483228D01*
X5982613Y-7302276D02*
X6001660Y-7302276D01*
X6020708Y-7311800D01*
X6030232Y-7321324D01*
X6039756Y-7340371D01*
X6049280Y-7378467D01*
X6049280Y-7426086D01*
X6039756Y-7464181D01*
X6030232Y-7483228D01*
X6020708Y-7492752D01*
X6001660Y-7502276D01*
X5982613Y-7502276D01*
X5963565Y-7492752D01*
X5954041Y-7483228D01*
X5944518Y-7464181D01*
X5934994Y-7426086D01*
X5934994Y-7378467D01*
X5944518Y-7340371D01*
X5954041Y-7321324D01*
X5963565Y-7311800D01*
X5982613Y-7302276D01*
X6173089Y-7302276D02*
X6192137Y-7302276D01*
X6211184Y-7311800D01*
X6220708Y-7321324D01*
X6230232Y-7340371D01*
X6239756Y-7378467D01*
X6239756Y-7426086D01*
X6230232Y-7464181D01*
X6220708Y-7483228D01*
X6211184Y-7492752D01*
X6192137Y-7502276D01*
X6173089Y-7502276D01*
X6154041Y-7492752D01*
X6144518Y-7483228D01*
X6134994Y-7464181D01*
X6125470Y-7426086D01*
X6125470Y-7378467D01*
X6134994Y-7340371D01*
X6144518Y-7321324D01*
X6154041Y-7311800D01*
X6173089Y-7302276D01*
X6325470Y-7502276D02*
X6325470Y-7368943D01*
X6325470Y-7387990D02*
X6334994Y-7378467D01*
X6354041Y-7368943D01*
X6382613Y-7368943D01*
X6401660Y-7378467D01*
X6411184Y-7397514D01*
X6411184Y-7502276D01*
X6411184Y-7397514D02*
X6420708Y-7378467D01*
X6439756Y-7368943D01*
X6468327Y-7368943D01*
X6487375Y-7378467D01*
X6496899Y-7397514D01*
X6496899Y-7502276D01*
X6592137Y-7502276D02*
X6592137Y-7368943D01*
X6592137Y-7387990D02*
X6601660Y-7378467D01*
X6620708Y-7368943D01*
X6649280Y-7368943D01*
X6668327Y-7378467D01*
X6677851Y-7397514D01*
X6677851Y-7502276D01*
X6677851Y-7397514D02*
X6687375Y-7378467D01*
X6706422Y-7368943D01*
X6734994Y-7368943D01*
X6754041Y-7378467D01*
X6763565Y-7397514D01*
X6763565Y-7502276D01*
X7154041Y-7292752D02*
X6982613Y-7549895D01*
X7411184Y-7302276D02*
X7430232Y-7302276D01*
X7449280Y-7311800D01*
X7458803Y-7321324D01*
X7468327Y-7340371D01*
X7477851Y-7378467D01*
X7477851Y-7426086D01*
X7468327Y-7464181D01*
X7458803Y-7483228D01*
X7449280Y-7492752D01*
X7430232Y-7502276D01*
X7411184Y-7502276D01*
X7392137Y-7492752D01*
X7382613Y-7483228D01*
X7373089Y-7464181D01*
X7363565Y-7426086D01*
X7363565Y-7378467D01*
X7373089Y-7340371D01*
X7382613Y-7321324D01*
X7392137Y-7311800D01*
X7411184Y-7302276D01*
X7563565Y-7483228D02*
X7573089Y-7492752D01*
X7563565Y-7502276D01*
X7554041Y-7492752D01*
X7563565Y-7483228D01*
X7563565Y-7502276D01*
X7696899Y-7302276D02*
X7715946Y-7302276D01*
X7734994Y-7311800D01*
X7744518Y-7321324D01*
X7754041Y-7340371D01*
X7763565Y-7378467D01*
X7763565Y-7426086D01*
X7754041Y-7464181D01*
X7744518Y-7483228D01*
X7734994Y-7492752D01*
X7715946Y-7502276D01*
X7696899Y-7502276D01*
X7677851Y-7492752D01*
X7668327Y-7483228D01*
X7658803Y-7464181D01*
X7649280Y-7426086D01*
X7649280Y-7378467D01*
X7658803Y-7340371D01*
X7668327Y-7321324D01*
X7677851Y-7311800D01*
X7696899Y-7302276D01*
X7954041Y-7502276D02*
X7839756Y-7502276D01*
X7896899Y-7502276D02*
X7896899Y-7302276D01*
X7877851Y-7330848D01*
X7858803Y-7349895D01*
X7839756Y-7359419D01*
X8144518Y-7502276D02*
X8030232Y-7502276D01*
X8087375Y-7502276D02*
X8087375Y-7302276D01*
X8068327Y-7330848D01*
X8049280Y-7349895D01*
X8030232Y-7359419D01*
X8258803Y-7387990D02*
X8239756Y-7378467D01*
X8230232Y-7368943D01*
X8220708Y-7349895D01*
X8220708Y-7340371D01*
X8230232Y-7321324D01*
X8239756Y-7311800D01*
X8258803Y-7302276D01*
X8296899Y-7302276D01*
X8315946Y-7311800D01*
X8325470Y-7321324D01*
X8334994Y-7340371D01*
X8334994Y-7349895D01*
X8325470Y-7368943D01*
X8315946Y-7378467D01*
X8296899Y-7387990D01*
X8258803Y-7387990D01*
X8239756Y-7397514D01*
X8230232Y-7407038D01*
X8220708Y-7426086D01*
X8220708Y-7464181D01*
X8230232Y-7483228D01*
X8239756Y-7492752D01*
X8258803Y-7502276D01*
X8296899Y-7502276D01*
X8315946Y-7492752D01*
X8325470Y-7483228D01*
X8334994Y-7464181D01*
X8334994Y-7426086D01*
X8325470Y-7407038D01*
X8315946Y-7397514D01*
X8296899Y-7387990D01*
X8411184Y-7302276D02*
X8411184Y-7340371D01*
X8487375Y-7302276D02*
X8487375Y-7340371D01*
X8782613Y-7578467D02*
X8773089Y-7568943D01*
X8754042Y-7540371D01*
X8744518Y-7521324D01*
X8734994Y-7492752D01*
X8725470Y-7445133D01*
X8725470Y-7407038D01*
X8734994Y-7359419D01*
X8744518Y-7330848D01*
X8754042Y-7311800D01*
X8773089Y-7283228D01*
X8782613Y-7273705D01*
X8963565Y-7502276D02*
X8849280Y-7502276D01*
X8906422Y-7502276D02*
X8906422Y-7302276D01*
X8887375Y-7330848D01*
X8868327Y-7349895D01*
X8849280Y-7359419D01*
X9087375Y-7302276D02*
X9106422Y-7302276D01*
X9125470Y-7311800D01*
X9134994Y-7321324D01*
X9144518Y-7340371D01*
X9154042Y-7378467D01*
X9154042Y-7426086D01*
X9144518Y-7464181D01*
X9134994Y-7483228D01*
X9125470Y-7492752D01*
X9106422Y-7502276D01*
X9087375Y-7502276D01*
X9068327Y-7492752D01*
X9058803Y-7483228D01*
X9049280Y-7464181D01*
X9039756Y-7426086D01*
X9039756Y-7378467D01*
X9049280Y-7340371D01*
X9058803Y-7321324D01*
X9068327Y-7311800D01*
X9087375Y-7302276D01*
X9392137Y-7502276D02*
X9392137Y-7302276D01*
X9477851Y-7502276D02*
X9477851Y-7397514D01*
X9468327Y-7378467D01*
X9449280Y-7368943D01*
X9420708Y-7368943D01*
X9401661Y-7378467D01*
X9392137Y-7387990D01*
X9601661Y-7502276D02*
X9582613Y-7492752D01*
X9573089Y-7483228D01*
X9563565Y-7464181D01*
X9563565Y-7407038D01*
X9573089Y-7387990D01*
X9582613Y-7378467D01*
X9601661Y-7368943D01*
X9630232Y-7368943D01*
X9649280Y-7378467D01*
X9658803Y-7387990D01*
X9668327Y-7407038D01*
X9668327Y-7464181D01*
X9658803Y-7483228D01*
X9649280Y-7492752D01*
X9630232Y-7502276D01*
X9601661Y-7502276D01*
X9782613Y-7502276D02*
X9763565Y-7492752D01*
X9754042Y-7473705D01*
X9754042Y-7302276D01*
X9934994Y-7492752D02*
X9915946Y-7502276D01*
X9877851Y-7502276D01*
X9858803Y-7492752D01*
X9849280Y-7473705D01*
X9849280Y-7397514D01*
X9858803Y-7378467D01*
X9877851Y-7368943D01*
X9915946Y-7368943D01*
X9934994Y-7378467D01*
X9944518Y-7397514D01*
X9944518Y-7416562D01*
X9849280Y-7435609D01*
X10020708Y-7492752D02*
X10039756Y-7502276D01*
X10077851Y-7502276D01*
X10096899Y-7492752D01*
X10106422Y-7473705D01*
X10106422Y-7464181D01*
X10096899Y-7445133D01*
X10077851Y-7435609D01*
X10049280Y-7435609D01*
X10030232Y-7426086D01*
X10020708Y-7407038D01*
X10020708Y-7397514D01*
X10030232Y-7378467D01*
X10049280Y-7368943D01*
X10077851Y-7368943D01*
X10096899Y-7378467D01*
X10173089Y-7578467D02*
X10182613Y-7568943D01*
X10201661Y-7540371D01*
X10211184Y-7521324D01*
X10220708Y-7492752D01*
X10230232Y-7445133D01*
X10230232Y-7407038D01*
X10220708Y-7359419D01*
X10211184Y-7330848D01*
X10201661Y-7311800D01*
X10182613Y-7283228D01*
X10173089Y-7273705D01*
D13*
X5210708Y-7675800D02*
G75*
G03*
X5210708Y-7675800I-15240J0D01*
G01*
D11*
X5506422Y-7566276D02*
X5525470Y-7566276D01*
X5544518Y-7575800D01*
X5554042Y-7585324D01*
X5563565Y-7604371D01*
X5573089Y-7642467D01*
X5573089Y-7690086D01*
X5563565Y-7728181D01*
X5554042Y-7747228D01*
X5544518Y-7756752D01*
X5525470Y-7766276D01*
X5506422Y-7766276D01*
X5487375Y-7756752D01*
X5477851Y-7747228D01*
X5468327Y-7728181D01*
X5458803Y-7690086D01*
X5458803Y-7642467D01*
X5468327Y-7604371D01*
X5477851Y-7585324D01*
X5487375Y-7575800D01*
X5506422Y-7566276D01*
X5658803Y-7747228D02*
X5668327Y-7756752D01*
X5658803Y-7766276D01*
X5649280Y-7756752D01*
X5658803Y-7747228D01*
X5658803Y-7766276D01*
X5734994Y-7566276D02*
X5858803Y-7566276D01*
X5792137Y-7642467D01*
X5820708Y-7642467D01*
X5839756Y-7651990D01*
X5849280Y-7661514D01*
X5858803Y-7680562D01*
X5858803Y-7728181D01*
X5849280Y-7747228D01*
X5839756Y-7756752D01*
X5820708Y-7766276D01*
X5763565Y-7766276D01*
X5744518Y-7756752D01*
X5734994Y-7747228D01*
X5982613Y-7566276D02*
X6001660Y-7566276D01*
X6020708Y-7575800D01*
X6030232Y-7585324D01*
X6039756Y-7604371D01*
X6049280Y-7642467D01*
X6049280Y-7690086D01*
X6039756Y-7728181D01*
X6030232Y-7747228D01*
X6020708Y-7756752D01*
X6001660Y-7766276D01*
X5982613Y-7766276D01*
X5963565Y-7756752D01*
X5954041Y-7747228D01*
X5944518Y-7728181D01*
X5934994Y-7690086D01*
X5934994Y-7642467D01*
X5944518Y-7604371D01*
X5954041Y-7585324D01*
X5963565Y-7575800D01*
X5982613Y-7566276D01*
X6230232Y-7566276D02*
X6134994Y-7566276D01*
X6125470Y-7661514D01*
X6134994Y-7651990D01*
X6154041Y-7642467D01*
X6201660Y-7642467D01*
X6220708Y-7651990D01*
X6230232Y-7661514D01*
X6239756Y-7680562D01*
X6239756Y-7728181D01*
X6230232Y-7747228D01*
X6220708Y-7756752D01*
X6201660Y-7766276D01*
X6154041Y-7766276D01*
X6134994Y-7756752D01*
X6125470Y-7747228D01*
X6325470Y-7766276D02*
X6325470Y-7632943D01*
X6325470Y-7651990D02*
X6334994Y-7642467D01*
X6354041Y-7632943D01*
X6382613Y-7632943D01*
X6401660Y-7642467D01*
X6411184Y-7661514D01*
X6411184Y-7766276D01*
X6411184Y-7661514D02*
X6420708Y-7642467D01*
X6439756Y-7632943D01*
X6468327Y-7632943D01*
X6487375Y-7642467D01*
X6496899Y-7661514D01*
X6496899Y-7766276D01*
X6592137Y-7766276D02*
X6592137Y-7632943D01*
X6592137Y-7651990D02*
X6601660Y-7642467D01*
X6620708Y-7632943D01*
X6649280Y-7632943D01*
X6668327Y-7642467D01*
X6677851Y-7661514D01*
X6677851Y-7766276D01*
X6677851Y-7661514D02*
X6687375Y-7642467D01*
X6706422Y-7632943D01*
X6734994Y-7632943D01*
X6754041Y-7642467D01*
X6763565Y-7661514D01*
X6763565Y-7766276D01*
X7154041Y-7556752D02*
X6982613Y-7813895D01*
X7411184Y-7566276D02*
X7430232Y-7566276D01*
X7449280Y-7575800D01*
X7458803Y-7585324D01*
X7468327Y-7604371D01*
X7477851Y-7642467D01*
X7477851Y-7690086D01*
X7468327Y-7728181D01*
X7458803Y-7747228D01*
X7449280Y-7756752D01*
X7430232Y-7766276D01*
X7411184Y-7766276D01*
X7392137Y-7756752D01*
X7382613Y-7747228D01*
X7373089Y-7728181D01*
X7363565Y-7690086D01*
X7363565Y-7642467D01*
X7373089Y-7604371D01*
X7382613Y-7585324D01*
X7392137Y-7575800D01*
X7411184Y-7566276D01*
X7563565Y-7747228D02*
X7573089Y-7756752D01*
X7563565Y-7766276D01*
X7554041Y-7756752D01*
X7563565Y-7747228D01*
X7563565Y-7766276D01*
X7696899Y-7566276D02*
X7715946Y-7566276D01*
X7734994Y-7575800D01*
X7744518Y-7585324D01*
X7754041Y-7604371D01*
X7763565Y-7642467D01*
X7763565Y-7690086D01*
X7754041Y-7728181D01*
X7744518Y-7747228D01*
X7734994Y-7756752D01*
X7715946Y-7766276D01*
X7696899Y-7766276D01*
X7677851Y-7756752D01*
X7668327Y-7747228D01*
X7658803Y-7728181D01*
X7649280Y-7690086D01*
X7649280Y-7642467D01*
X7658803Y-7604371D01*
X7668327Y-7585324D01*
X7677851Y-7575800D01*
X7696899Y-7566276D01*
X7954041Y-7766276D02*
X7839756Y-7766276D01*
X7896899Y-7766276D02*
X7896899Y-7566276D01*
X7877851Y-7594848D01*
X7858803Y-7613895D01*
X7839756Y-7623419D01*
X8030232Y-7585324D02*
X8039756Y-7575800D01*
X8058803Y-7566276D01*
X8106422Y-7566276D01*
X8125470Y-7575800D01*
X8134994Y-7585324D01*
X8144518Y-7604371D01*
X8144518Y-7623419D01*
X8134994Y-7651990D01*
X8020708Y-7766276D01*
X8144518Y-7766276D01*
X8268327Y-7566276D02*
X8287375Y-7566276D01*
X8306422Y-7575800D01*
X8315946Y-7585324D01*
X8325470Y-7604371D01*
X8334994Y-7642467D01*
X8334994Y-7690086D01*
X8325470Y-7728181D01*
X8315946Y-7747228D01*
X8306422Y-7756752D01*
X8287375Y-7766276D01*
X8268327Y-7766276D01*
X8249280Y-7756752D01*
X8239756Y-7747228D01*
X8230232Y-7728181D01*
X8220708Y-7690086D01*
X8220708Y-7642467D01*
X8230232Y-7604371D01*
X8239756Y-7585324D01*
X8249280Y-7575800D01*
X8268327Y-7566276D01*
X8411184Y-7566276D02*
X8411184Y-7604371D01*
X8487375Y-7566276D02*
X8487375Y-7604371D01*
X8782613Y-7842467D02*
X8773089Y-7832943D01*
X8754042Y-7804371D01*
X8744518Y-7785324D01*
X8734994Y-7756752D01*
X8725470Y-7709133D01*
X8725470Y-7671038D01*
X8734994Y-7623419D01*
X8744518Y-7594848D01*
X8754042Y-7575800D01*
X8773089Y-7547228D01*
X8782613Y-7537705D01*
X8944518Y-7566276D02*
X8906422Y-7566276D01*
X8887375Y-7575800D01*
X8877851Y-7585324D01*
X8858803Y-7613895D01*
X8849280Y-7651990D01*
X8849280Y-7728181D01*
X8858803Y-7747228D01*
X8868327Y-7756752D01*
X8887375Y-7766276D01*
X8925470Y-7766276D01*
X8944518Y-7756752D01*
X8954042Y-7747228D01*
X8963565Y-7728181D01*
X8963565Y-7680562D01*
X8954042Y-7661514D01*
X8944518Y-7651990D01*
X8925470Y-7642467D01*
X8887375Y-7642467D01*
X8868327Y-7651990D01*
X8858803Y-7661514D01*
X8849280Y-7680562D01*
X9201661Y-7766276D02*
X9201661Y-7566276D01*
X9287375Y-7766276D02*
X9287375Y-7661514D01*
X9277851Y-7642467D01*
X9258803Y-7632943D01*
X9230232Y-7632943D01*
X9211184Y-7642467D01*
X9201661Y-7651990D01*
X9411184Y-7766276D02*
X9392137Y-7756752D01*
X9382613Y-7747228D01*
X9373089Y-7728181D01*
X9373089Y-7671038D01*
X9382613Y-7651990D01*
X9392137Y-7642467D01*
X9411184Y-7632943D01*
X9439756Y-7632943D01*
X9458803Y-7642467D01*
X9468327Y-7651990D01*
X9477851Y-7671038D01*
X9477851Y-7728181D01*
X9468327Y-7747228D01*
X9458803Y-7756752D01*
X9439756Y-7766276D01*
X9411184Y-7766276D01*
X9592137Y-7766276D02*
X9573089Y-7756752D01*
X9563565Y-7737705D01*
X9563565Y-7566276D01*
X9744518Y-7756752D02*
X9725470Y-7766276D01*
X9687375Y-7766276D01*
X9668327Y-7756752D01*
X9658803Y-7737705D01*
X9658803Y-7661514D01*
X9668327Y-7642467D01*
X9687375Y-7632943D01*
X9725470Y-7632943D01*
X9744518Y-7642467D01*
X9754042Y-7661514D01*
X9754042Y-7680562D01*
X9658803Y-7699609D01*
X9830232Y-7756752D02*
X9849280Y-7766276D01*
X9887375Y-7766276D01*
X9906422Y-7756752D01*
X9915946Y-7737705D01*
X9915946Y-7728181D01*
X9906422Y-7709133D01*
X9887375Y-7699609D01*
X9858803Y-7699609D01*
X9839756Y-7690086D01*
X9830232Y-7671038D01*
X9830232Y-7661514D01*
X9839756Y-7642467D01*
X9858803Y-7632943D01*
X9887375Y-7632943D01*
X9906422Y-7642467D01*
X9982613Y-7842467D02*
X9992137Y-7832943D01*
X10011184Y-7804371D01*
X10020708Y-7785324D01*
X10030232Y-7756752D01*
X10039756Y-7709133D01*
X10039756Y-7671038D01*
X10030232Y-7623419D01*
X10020708Y-7594848D01*
X10011184Y-7575800D01*
X9992137Y-7547228D01*
X9982613Y-7537705D01*
D14*
X5190708Y-7919800D02*
X5190708Y-7959800D01*
X5170708Y-7939800D02*
X5210708Y-7939800D01*
D11*
X5506422Y-7830276D02*
X5525470Y-7830276D01*
X5544518Y-7839800D01*
X5554042Y-7849324D01*
X5563565Y-7868371D01*
X5573089Y-7906467D01*
X5573089Y-7954086D01*
X5563565Y-7992181D01*
X5554042Y-8011228D01*
X5544518Y-8020752D01*
X5525470Y-8030276D01*
X5506422Y-8030276D01*
X5487375Y-8020752D01*
X5477851Y-8011228D01*
X5468327Y-7992181D01*
X5458803Y-7954086D01*
X5458803Y-7906467D01*
X5468327Y-7868371D01*
X5477851Y-7849324D01*
X5487375Y-7839800D01*
X5506422Y-7830276D01*
X5658803Y-8011228D02*
X5668327Y-8020752D01*
X5658803Y-8030276D01*
X5649280Y-8020752D01*
X5658803Y-8011228D01*
X5658803Y-8030276D01*
X5839756Y-7896943D02*
X5839756Y-8030276D01*
X5792137Y-7820752D02*
X5744518Y-7963609D01*
X5868327Y-7963609D01*
X5982613Y-7830276D02*
X6001660Y-7830276D01*
X6020708Y-7839800D01*
X6030232Y-7849324D01*
X6039756Y-7868371D01*
X6049280Y-7906467D01*
X6049280Y-7954086D01*
X6039756Y-7992181D01*
X6030232Y-8011228D01*
X6020708Y-8020752D01*
X6001660Y-8030276D01*
X5982613Y-8030276D01*
X5963565Y-8020752D01*
X5954041Y-8011228D01*
X5944518Y-7992181D01*
X5934994Y-7954086D01*
X5934994Y-7906467D01*
X5944518Y-7868371D01*
X5954041Y-7849324D01*
X5963565Y-7839800D01*
X5982613Y-7830276D01*
X6173089Y-7830276D02*
X6192137Y-7830276D01*
X6211184Y-7839800D01*
X6220708Y-7849324D01*
X6230232Y-7868371D01*
X6239756Y-7906467D01*
X6239756Y-7954086D01*
X6230232Y-7992181D01*
X6220708Y-8011228D01*
X6211184Y-8020752D01*
X6192137Y-8030276D01*
X6173089Y-8030276D01*
X6154041Y-8020752D01*
X6144518Y-8011228D01*
X6134994Y-7992181D01*
X6125470Y-7954086D01*
X6125470Y-7906467D01*
X6134994Y-7868371D01*
X6144518Y-7849324D01*
X6154041Y-7839800D01*
X6173089Y-7830276D01*
X6325470Y-8030276D02*
X6325470Y-7896943D01*
X6325470Y-7915990D02*
X6334994Y-7906467D01*
X6354041Y-7896943D01*
X6382613Y-7896943D01*
X6401660Y-7906467D01*
X6411184Y-7925514D01*
X6411184Y-8030276D01*
X6411184Y-7925514D02*
X6420708Y-7906467D01*
X6439756Y-7896943D01*
X6468327Y-7896943D01*
X6487375Y-7906467D01*
X6496899Y-7925514D01*
X6496899Y-8030276D01*
X6592137Y-8030276D02*
X6592137Y-7896943D01*
X6592137Y-7915990D02*
X6601660Y-7906467D01*
X6620708Y-7896943D01*
X6649280Y-7896943D01*
X6668327Y-7906467D01*
X6677851Y-7925514D01*
X6677851Y-8030276D01*
X6677851Y-7925514D02*
X6687375Y-7906467D01*
X6706422Y-7896943D01*
X6734994Y-7896943D01*
X6754041Y-7906467D01*
X6763565Y-7925514D01*
X6763565Y-8030276D01*
X7154041Y-7820752D02*
X6982613Y-8077895D01*
X7411184Y-7830276D02*
X7430232Y-7830276D01*
X7449280Y-7839800D01*
X7458803Y-7849324D01*
X7468327Y-7868371D01*
X7477851Y-7906467D01*
X7477851Y-7954086D01*
X7468327Y-7992181D01*
X7458803Y-8011228D01*
X7449280Y-8020752D01*
X7430232Y-8030276D01*
X7411184Y-8030276D01*
X7392137Y-8020752D01*
X7382613Y-8011228D01*
X7373089Y-7992181D01*
X7363565Y-7954086D01*
X7363565Y-7906467D01*
X7373089Y-7868371D01*
X7382613Y-7849324D01*
X7392137Y-7839800D01*
X7411184Y-7830276D01*
X7563565Y-8011228D02*
X7573089Y-8020752D01*
X7563565Y-8030276D01*
X7554041Y-8020752D01*
X7563565Y-8011228D01*
X7563565Y-8030276D01*
X7696899Y-7830276D02*
X7715946Y-7830276D01*
X7734994Y-7839800D01*
X7744518Y-7849324D01*
X7754041Y-7868371D01*
X7763565Y-7906467D01*
X7763565Y-7954086D01*
X7754041Y-7992181D01*
X7744518Y-8011228D01*
X7734994Y-8020752D01*
X7715946Y-8030276D01*
X7696899Y-8030276D01*
X7677851Y-8020752D01*
X7668327Y-8011228D01*
X7658803Y-7992181D01*
X7649280Y-7954086D01*
X7649280Y-7906467D01*
X7658803Y-7868371D01*
X7668327Y-7849324D01*
X7677851Y-7839800D01*
X7696899Y-7830276D01*
X7954041Y-8030276D02*
X7839756Y-8030276D01*
X7896899Y-8030276D02*
X7896899Y-7830276D01*
X7877851Y-7858848D01*
X7858803Y-7877895D01*
X7839756Y-7887419D01*
X8134994Y-7830276D02*
X8039756Y-7830276D01*
X8030232Y-7925514D01*
X8039756Y-7915990D01*
X8058803Y-7906467D01*
X8106422Y-7906467D01*
X8125470Y-7915990D01*
X8134994Y-7925514D01*
X8144518Y-7944562D01*
X8144518Y-7992181D01*
X8134994Y-8011228D01*
X8125470Y-8020752D01*
X8106422Y-8030276D01*
X8058803Y-8030276D01*
X8039756Y-8020752D01*
X8030232Y-8011228D01*
X8211184Y-7830276D02*
X8344518Y-7830276D01*
X8258803Y-8030276D01*
X8411184Y-7830276D02*
X8411184Y-7868371D01*
X8487375Y-7830276D02*
X8487375Y-7868371D01*
X8782613Y-8106467D02*
X8773089Y-8096943D01*
X8754042Y-8068371D01*
X8744518Y-8049324D01*
X8734994Y-8020752D01*
X8725470Y-7973133D01*
X8725470Y-7935038D01*
X8734994Y-7887419D01*
X8744518Y-7858848D01*
X8754042Y-7839800D01*
X8773089Y-7811228D01*
X8782613Y-7801705D01*
X8849280Y-7849324D02*
X8858803Y-7839800D01*
X8877851Y-7830276D01*
X8925470Y-7830276D01*
X8944518Y-7839800D01*
X8954042Y-7849324D01*
X8963565Y-7868371D01*
X8963565Y-7887419D01*
X8954042Y-7915990D01*
X8839756Y-8030276D01*
X8963565Y-8030276D01*
X9201661Y-8030276D02*
X9201661Y-7830276D01*
X9287375Y-8030276D02*
X9287375Y-7925514D01*
X9277851Y-7906467D01*
X9258803Y-7896943D01*
X9230232Y-7896943D01*
X9211184Y-7906467D01*
X9201661Y-7915990D01*
X9411184Y-8030276D02*
X9392137Y-8020752D01*
X9382613Y-8011228D01*
X9373089Y-7992181D01*
X9373089Y-7935038D01*
X9382613Y-7915990D01*
X9392137Y-7906467D01*
X9411184Y-7896943D01*
X9439756Y-7896943D01*
X9458803Y-7906467D01*
X9468327Y-7915990D01*
X9477851Y-7935038D01*
X9477851Y-7992181D01*
X9468327Y-8011228D01*
X9458803Y-8020752D01*
X9439756Y-8030276D01*
X9411184Y-8030276D01*
X9592137Y-8030276D02*
X9573089Y-8020752D01*
X9563565Y-8001705D01*
X9563565Y-7830276D01*
X9744518Y-8020752D02*
X9725470Y-8030276D01*
X9687375Y-8030276D01*
X9668327Y-8020752D01*
X9658803Y-8001705D01*
X9658803Y-7925514D01*
X9668327Y-7906467D01*
X9687375Y-7896943D01*
X9725470Y-7896943D01*
X9744518Y-7906467D01*
X9754042Y-7925514D01*
X9754042Y-7944562D01*
X9658803Y-7963609D01*
X9830232Y-8020752D02*
X9849280Y-8030276D01*
X9887375Y-8030276D01*
X9906422Y-8020752D01*
X9915946Y-8001705D01*
X9915946Y-7992181D01*
X9906422Y-7973133D01*
X9887375Y-7963609D01*
X9858803Y-7963609D01*
X9839756Y-7954086D01*
X9830232Y-7935038D01*
X9830232Y-7925514D01*
X9839756Y-7906467D01*
X9858803Y-7896943D01*
X9887375Y-7896943D01*
X9906422Y-7906467D01*
X9982613Y-8106467D02*
X9992137Y-8096943D01*
X10011184Y-8068371D01*
X10020708Y-8049324D01*
X10030232Y-8020752D01*
X10039756Y-7973133D01*
X10039756Y-7935038D01*
X10030232Y-7887419D01*
X10020708Y-7858848D01*
X10011184Y-7839800D01*
X9992137Y-7811228D01*
X9982613Y-7801705D01*
D15*
X5201922Y-8225013D02*
X5201922Y-8182587D01*
X5159495Y-8182587D01*
X5159495Y-8225013D01*
X5201922Y-8225013D01*
D11*
X5506422Y-8094276D02*
X5525470Y-8094276D01*
X5544518Y-8103800D01*
X5554042Y-8113324D01*
X5563565Y-8132371D01*
X5573089Y-8170467D01*
X5573089Y-8218086D01*
X5563565Y-8256181D01*
X5554042Y-8275228D01*
X5544518Y-8284752D01*
X5525470Y-8294276D01*
X5506422Y-8294276D01*
X5487375Y-8284752D01*
X5477851Y-8275228D01*
X5468327Y-8256181D01*
X5458803Y-8218086D01*
X5458803Y-8170467D01*
X5468327Y-8132371D01*
X5477851Y-8113324D01*
X5487375Y-8103800D01*
X5506422Y-8094276D01*
X5658803Y-8275228D02*
X5668327Y-8284752D01*
X5658803Y-8294276D01*
X5649280Y-8284752D01*
X5658803Y-8275228D01*
X5658803Y-8294276D01*
X5839756Y-8094276D02*
X5801660Y-8094276D01*
X5782613Y-8103800D01*
X5773089Y-8113324D01*
X5754041Y-8141895D01*
X5744518Y-8179990D01*
X5744518Y-8256181D01*
X5754041Y-8275228D01*
X5763565Y-8284752D01*
X5782613Y-8294276D01*
X5820708Y-8294276D01*
X5839756Y-8284752D01*
X5849280Y-8275228D01*
X5858803Y-8256181D01*
X5858803Y-8208562D01*
X5849280Y-8189514D01*
X5839756Y-8179990D01*
X5820708Y-8170467D01*
X5782613Y-8170467D01*
X5763565Y-8179990D01*
X5754041Y-8189514D01*
X5744518Y-8208562D01*
X5982613Y-8094276D02*
X6001660Y-8094276D01*
X6020708Y-8103800D01*
X6030232Y-8113324D01*
X6039756Y-8132371D01*
X6049280Y-8170467D01*
X6049280Y-8218086D01*
X6039756Y-8256181D01*
X6030232Y-8275228D01*
X6020708Y-8284752D01*
X6001660Y-8294276D01*
X5982613Y-8294276D01*
X5963565Y-8284752D01*
X5954041Y-8275228D01*
X5944518Y-8256181D01*
X5934994Y-8218086D01*
X5934994Y-8170467D01*
X5944518Y-8132371D01*
X5954041Y-8113324D01*
X5963565Y-8103800D01*
X5982613Y-8094276D01*
X6173089Y-8094276D02*
X6192137Y-8094276D01*
X6211184Y-8103800D01*
X6220708Y-8113324D01*
X6230232Y-8132371D01*
X6239756Y-8170467D01*
X6239756Y-8218086D01*
X6230232Y-8256181D01*
X6220708Y-8275228D01*
X6211184Y-8284752D01*
X6192137Y-8294276D01*
X6173089Y-8294276D01*
X6154041Y-8284752D01*
X6144518Y-8275228D01*
X6134994Y-8256181D01*
X6125470Y-8218086D01*
X6125470Y-8170467D01*
X6134994Y-8132371D01*
X6144518Y-8113324D01*
X6154041Y-8103800D01*
X6173089Y-8094276D01*
X6325470Y-8294276D02*
X6325470Y-8160943D01*
X6325470Y-8179990D02*
X6334994Y-8170467D01*
X6354041Y-8160943D01*
X6382613Y-8160943D01*
X6401660Y-8170467D01*
X6411184Y-8189514D01*
X6411184Y-8294276D01*
X6411184Y-8189514D02*
X6420708Y-8170467D01*
X6439756Y-8160943D01*
X6468327Y-8160943D01*
X6487375Y-8170467D01*
X6496899Y-8189514D01*
X6496899Y-8294276D01*
X6592137Y-8294276D02*
X6592137Y-8160943D01*
X6592137Y-8179990D02*
X6601660Y-8170467D01*
X6620708Y-8160943D01*
X6649280Y-8160943D01*
X6668327Y-8170467D01*
X6677851Y-8189514D01*
X6677851Y-8294276D01*
X6677851Y-8189514D02*
X6687375Y-8170467D01*
X6706422Y-8160943D01*
X6734994Y-8160943D01*
X6754041Y-8170467D01*
X6763565Y-8189514D01*
X6763565Y-8294276D01*
X7154041Y-8084752D02*
X6982613Y-8341895D01*
X7411184Y-8094276D02*
X7430232Y-8094276D01*
X7449280Y-8103800D01*
X7458803Y-8113324D01*
X7468327Y-8132371D01*
X7477851Y-8170467D01*
X7477851Y-8218086D01*
X7468327Y-8256181D01*
X7458803Y-8275228D01*
X7449280Y-8284752D01*
X7430232Y-8294276D01*
X7411184Y-8294276D01*
X7392137Y-8284752D01*
X7382613Y-8275228D01*
X7373089Y-8256181D01*
X7363565Y-8218086D01*
X7363565Y-8170467D01*
X7373089Y-8132371D01*
X7382613Y-8113324D01*
X7392137Y-8103800D01*
X7411184Y-8094276D01*
X7563565Y-8275228D02*
X7573089Y-8284752D01*
X7563565Y-8294276D01*
X7554041Y-8284752D01*
X7563565Y-8275228D01*
X7563565Y-8294276D01*
X7696899Y-8094276D02*
X7715946Y-8094276D01*
X7734994Y-8103800D01*
X7744518Y-8113324D01*
X7754041Y-8132371D01*
X7763565Y-8170467D01*
X7763565Y-8218086D01*
X7754041Y-8256181D01*
X7744518Y-8275228D01*
X7734994Y-8284752D01*
X7715946Y-8294276D01*
X7696899Y-8294276D01*
X7677851Y-8284752D01*
X7668327Y-8275228D01*
X7658803Y-8256181D01*
X7649280Y-8218086D01*
X7649280Y-8170467D01*
X7658803Y-8132371D01*
X7668327Y-8113324D01*
X7677851Y-8103800D01*
X7696899Y-8094276D01*
X7839756Y-8113324D02*
X7849280Y-8103800D01*
X7868327Y-8094276D01*
X7915946Y-8094276D01*
X7934994Y-8103800D01*
X7944518Y-8113324D01*
X7954041Y-8132371D01*
X7954041Y-8151419D01*
X7944518Y-8179990D01*
X7830232Y-8294276D01*
X7954041Y-8294276D01*
X8020708Y-8094276D02*
X8144518Y-8094276D01*
X8077851Y-8170467D01*
X8106422Y-8170467D01*
X8125470Y-8179990D01*
X8134994Y-8189514D01*
X8144518Y-8208562D01*
X8144518Y-8256181D01*
X8134994Y-8275228D01*
X8125470Y-8284752D01*
X8106422Y-8294276D01*
X8049280Y-8294276D01*
X8030232Y-8284752D01*
X8020708Y-8275228D01*
X8315946Y-8094276D02*
X8277851Y-8094276D01*
X8258803Y-8103800D01*
X8249280Y-8113324D01*
X8230232Y-8141895D01*
X8220708Y-8179990D01*
X8220708Y-8256181D01*
X8230232Y-8275228D01*
X8239756Y-8284752D01*
X8258803Y-8294276D01*
X8296899Y-8294276D01*
X8315946Y-8284752D01*
X8325470Y-8275228D01*
X8334994Y-8256181D01*
X8334994Y-8208562D01*
X8325470Y-8189514D01*
X8315946Y-8179990D01*
X8296899Y-8170467D01*
X8258803Y-8170467D01*
X8239756Y-8179990D01*
X8230232Y-8189514D01*
X8220708Y-8208562D01*
X8411184Y-8094276D02*
X8411184Y-8132371D01*
X8487375Y-8094276D02*
X8487375Y-8132371D01*
X8782613Y-8370467D02*
X8773089Y-8360943D01*
X8754042Y-8332371D01*
X8744518Y-8313324D01*
X8734994Y-8284752D01*
X8725470Y-8237133D01*
X8725470Y-8199038D01*
X8734994Y-8151419D01*
X8744518Y-8122848D01*
X8754042Y-8103800D01*
X8773089Y-8075228D01*
X8782613Y-8065705D01*
X8896899Y-8094276D02*
X8915946Y-8094276D01*
X8934994Y-8103800D01*
X8944518Y-8113324D01*
X8954042Y-8132371D01*
X8963565Y-8170467D01*
X8963565Y-8218086D01*
X8954042Y-8256181D01*
X8944518Y-8275228D01*
X8934994Y-8284752D01*
X8915946Y-8294276D01*
X8896899Y-8294276D01*
X8877851Y-8284752D01*
X8868327Y-8275228D01*
X8858803Y-8256181D01*
X8849280Y-8218086D01*
X8849280Y-8170467D01*
X8858803Y-8132371D01*
X8868327Y-8113324D01*
X8877851Y-8103800D01*
X8896899Y-8094276D01*
X9201661Y-8294276D02*
X9201661Y-8094276D01*
X9287375Y-8294276D02*
X9287375Y-8189514D01*
X9277851Y-8170467D01*
X9258803Y-8160943D01*
X9230232Y-8160943D01*
X9211184Y-8170467D01*
X9201661Y-8179990D01*
X9411184Y-8294276D02*
X9392137Y-8284752D01*
X9382613Y-8275228D01*
X9373089Y-8256181D01*
X9373089Y-8199038D01*
X9382613Y-8179990D01*
X9392137Y-8170467D01*
X9411184Y-8160943D01*
X9439756Y-8160943D01*
X9458803Y-8170467D01*
X9468327Y-8179990D01*
X9477851Y-8199038D01*
X9477851Y-8256181D01*
X9468327Y-8275228D01*
X9458803Y-8284752D01*
X9439756Y-8294276D01*
X9411184Y-8294276D01*
X9592137Y-8294276D02*
X9573089Y-8284752D01*
X9563565Y-8265705D01*
X9563565Y-8094276D01*
X9744518Y-8284752D02*
X9725470Y-8294276D01*
X9687375Y-8294276D01*
X9668327Y-8284752D01*
X9658803Y-8265705D01*
X9658803Y-8189514D01*
X9668327Y-8170467D01*
X9687375Y-8160943D01*
X9725470Y-8160943D01*
X9744518Y-8170467D01*
X9754042Y-8189514D01*
X9754042Y-8208562D01*
X9658803Y-8227609D01*
X9830232Y-8284752D02*
X9849280Y-8294276D01*
X9887375Y-8294276D01*
X9906422Y-8284752D01*
X9915946Y-8265705D01*
X9915946Y-8256181D01*
X9906422Y-8237133D01*
X9887375Y-8227609D01*
X9858803Y-8227609D01*
X9839756Y-8218086D01*
X9830232Y-8199038D01*
X9830232Y-8189514D01*
X9839756Y-8170467D01*
X9858803Y-8160943D01*
X9887375Y-8160943D01*
X9906422Y-8170467D01*
X10154042Y-8218086D02*
X10306422Y-8218086D01*
X10230232Y-8294276D02*
X10230232Y-8141895D01*
X10639756Y-8160943D02*
X10639756Y-8294276D01*
X10592137Y-8084752D02*
X10544518Y-8227609D01*
X10668327Y-8227609D01*
X10887375Y-8284752D02*
X10906422Y-8294276D01*
X10944518Y-8294276D01*
X10963565Y-8284752D01*
X10973089Y-8265705D01*
X10973089Y-8256181D01*
X10963565Y-8237133D01*
X10944518Y-8227609D01*
X10915946Y-8227609D01*
X10896899Y-8218086D01*
X10887375Y-8199038D01*
X10887375Y-8189514D01*
X10896899Y-8170467D01*
X10915946Y-8160943D01*
X10944518Y-8160943D01*
X10963565Y-8170467D01*
X11087375Y-8294276D02*
X11068327Y-8284752D01*
X11058803Y-8265705D01*
X11058803Y-8094276D01*
X11192137Y-8294276D02*
X11173089Y-8284752D01*
X11163565Y-8275228D01*
X11154042Y-8256181D01*
X11154042Y-8199038D01*
X11163565Y-8179990D01*
X11173089Y-8170467D01*
X11192137Y-8160943D01*
X11220708Y-8160943D01*
X11239756Y-8170467D01*
X11249280Y-8179990D01*
X11258803Y-8199038D01*
X11258803Y-8256181D01*
X11249280Y-8275228D01*
X11239756Y-8284752D01*
X11220708Y-8294276D01*
X11192137Y-8294276D01*
X11315946Y-8160943D02*
X11392137Y-8160943D01*
X11344518Y-8094276D02*
X11344518Y-8265705D01*
X11354041Y-8284752D01*
X11373089Y-8294276D01*
X11392137Y-8294276D01*
X11449280Y-8284752D02*
X11468327Y-8294276D01*
X11506422Y-8294276D01*
X11525470Y-8284752D01*
X11534994Y-8265705D01*
X11534994Y-8256181D01*
X11525470Y-8237133D01*
X11506422Y-8227609D01*
X11477851Y-8227609D01*
X11458803Y-8218086D01*
X11449280Y-8199038D01*
X11449280Y-8189514D01*
X11458803Y-8170467D01*
X11477851Y-8160943D01*
X11506422Y-8160943D01*
X11525470Y-8170467D01*
X11601660Y-8370467D02*
X11611184Y-8360943D01*
X11630232Y-8332371D01*
X11639756Y-8313324D01*
X11649280Y-8284752D01*
X11658803Y-8237133D01*
X11658803Y-8199038D01*
X11649280Y-8151419D01*
X11639756Y-8122848D01*
X11630232Y-8103800D01*
X11611184Y-8075228D01*
X11601660Y-8065705D01*
X5110708Y-8567800D02*
X5210708Y-8467800D01*
X5110708Y-8367800D01*
X5010708Y-8467800D01*
X5110708Y-8567800D01*
X5458803Y-8377324D02*
X5468327Y-8367800D01*
X5487375Y-8358276D01*
X5534994Y-8358276D01*
X5554042Y-8367800D01*
X5563565Y-8377324D01*
X5573089Y-8396371D01*
X5573089Y-8415419D01*
X5563565Y-8443990D01*
X5449280Y-8558276D01*
X5573089Y-8558276D01*
X5658803Y-8539229D02*
X5668327Y-8548752D01*
X5658803Y-8558276D01*
X5649280Y-8548752D01*
X5658803Y-8539229D01*
X5658803Y-8558276D01*
X5744518Y-8377324D02*
X5754041Y-8367800D01*
X5773089Y-8358276D01*
X5820708Y-8358276D01*
X5839756Y-8367800D01*
X5849280Y-8377324D01*
X5858803Y-8396371D01*
X5858803Y-8415419D01*
X5849280Y-8443990D01*
X5734994Y-8558276D01*
X5858803Y-8558276D01*
X5982613Y-8358276D02*
X6001660Y-8358276D01*
X6020708Y-8367800D01*
X6030232Y-8377324D01*
X6039756Y-8396371D01*
X6049280Y-8434467D01*
X6049280Y-8482086D01*
X6039756Y-8520181D01*
X6030232Y-8539229D01*
X6020708Y-8548752D01*
X6001660Y-8558276D01*
X5982613Y-8558276D01*
X5963565Y-8548752D01*
X5954041Y-8539229D01*
X5944518Y-8520181D01*
X5934994Y-8482086D01*
X5934994Y-8434467D01*
X5944518Y-8396371D01*
X5954041Y-8377324D01*
X5963565Y-8367800D01*
X5982613Y-8358276D01*
X6173089Y-8358276D02*
X6192137Y-8358276D01*
X6211184Y-8367800D01*
X6220708Y-8377324D01*
X6230232Y-8396371D01*
X6239756Y-8434467D01*
X6239756Y-8482086D01*
X6230232Y-8520181D01*
X6220708Y-8539229D01*
X6211184Y-8548752D01*
X6192137Y-8558276D01*
X6173089Y-8558276D01*
X6154041Y-8548752D01*
X6144518Y-8539229D01*
X6134994Y-8520181D01*
X6125470Y-8482086D01*
X6125470Y-8434467D01*
X6134994Y-8396371D01*
X6144518Y-8377324D01*
X6154041Y-8367800D01*
X6173089Y-8358276D01*
X6325470Y-8558276D02*
X6325470Y-8424943D01*
X6325470Y-8443990D02*
X6334994Y-8434467D01*
X6354041Y-8424943D01*
X6382613Y-8424943D01*
X6401660Y-8434467D01*
X6411184Y-8453514D01*
X6411184Y-8558276D01*
X6411184Y-8453514D02*
X6420708Y-8434467D01*
X6439756Y-8424943D01*
X6468327Y-8424943D01*
X6487375Y-8434467D01*
X6496899Y-8453514D01*
X6496899Y-8558276D01*
X6592137Y-8558276D02*
X6592137Y-8424943D01*
X6592137Y-8443990D02*
X6601660Y-8434467D01*
X6620708Y-8424943D01*
X6649280Y-8424943D01*
X6668327Y-8434467D01*
X6677851Y-8453514D01*
X6677851Y-8558276D01*
X6677851Y-8453514D02*
X6687375Y-8434467D01*
X6706422Y-8424943D01*
X6734994Y-8424943D01*
X6754041Y-8434467D01*
X6763565Y-8453514D01*
X6763565Y-8558276D01*
X7154041Y-8348752D02*
X6982613Y-8605895D01*
X7411184Y-8358276D02*
X7430232Y-8358276D01*
X7449280Y-8367800D01*
X7458803Y-8377324D01*
X7468327Y-8396371D01*
X7477851Y-8434467D01*
X7477851Y-8482086D01*
X7468327Y-8520181D01*
X7458803Y-8539229D01*
X7449280Y-8548752D01*
X7430232Y-8558276D01*
X7411184Y-8558276D01*
X7392137Y-8548752D01*
X7382613Y-8539229D01*
X7373089Y-8520181D01*
X7363565Y-8482086D01*
X7363565Y-8434467D01*
X7373089Y-8396371D01*
X7382613Y-8377324D01*
X7392137Y-8367800D01*
X7411184Y-8358276D01*
X7563565Y-8539229D02*
X7573089Y-8548752D01*
X7563565Y-8558276D01*
X7554041Y-8548752D01*
X7563565Y-8539229D01*
X7563565Y-8558276D01*
X7696899Y-8358276D02*
X7715946Y-8358276D01*
X7734994Y-8367800D01*
X7744518Y-8377324D01*
X7754041Y-8396371D01*
X7763565Y-8434467D01*
X7763565Y-8482086D01*
X7754041Y-8520181D01*
X7744518Y-8539229D01*
X7734994Y-8548752D01*
X7715946Y-8558276D01*
X7696899Y-8558276D01*
X7677851Y-8548752D01*
X7668327Y-8539229D01*
X7658803Y-8520181D01*
X7649280Y-8482086D01*
X7649280Y-8434467D01*
X7658803Y-8396371D01*
X7668327Y-8377324D01*
X7677851Y-8367800D01*
X7696899Y-8358276D01*
X7877851Y-8443990D02*
X7858803Y-8434467D01*
X7849280Y-8424943D01*
X7839756Y-8405895D01*
X7839756Y-8396371D01*
X7849280Y-8377324D01*
X7858803Y-8367800D01*
X7877851Y-8358276D01*
X7915946Y-8358276D01*
X7934994Y-8367800D01*
X7944518Y-8377324D01*
X7954041Y-8396371D01*
X7954041Y-8405895D01*
X7944518Y-8424943D01*
X7934994Y-8434467D01*
X7915946Y-8443990D01*
X7877851Y-8443990D01*
X7858803Y-8453514D01*
X7849280Y-8463038D01*
X7839756Y-8482086D01*
X7839756Y-8520181D01*
X7849280Y-8539229D01*
X7858803Y-8548752D01*
X7877851Y-8558276D01*
X7915946Y-8558276D01*
X7934994Y-8548752D01*
X7944518Y-8539229D01*
X7954041Y-8520181D01*
X7954041Y-8482086D01*
X7944518Y-8463038D01*
X7934994Y-8453514D01*
X7915946Y-8443990D01*
X8125470Y-8358276D02*
X8087375Y-8358276D01*
X8068327Y-8367800D01*
X8058803Y-8377324D01*
X8039756Y-8405895D01*
X8030232Y-8443990D01*
X8030232Y-8520181D01*
X8039756Y-8539229D01*
X8049280Y-8548752D01*
X8068327Y-8558276D01*
X8106422Y-8558276D01*
X8125470Y-8548752D01*
X8134994Y-8539229D01*
X8144518Y-8520181D01*
X8144518Y-8472562D01*
X8134994Y-8453514D01*
X8125470Y-8443990D01*
X8106422Y-8434467D01*
X8068327Y-8434467D01*
X8049280Y-8443990D01*
X8039756Y-8453514D01*
X8030232Y-8472562D01*
X8315946Y-8358276D02*
X8277851Y-8358276D01*
X8258803Y-8367800D01*
X8249280Y-8377324D01*
X8230232Y-8405895D01*
X8220708Y-8443990D01*
X8220708Y-8520181D01*
X8230232Y-8539229D01*
X8239756Y-8548752D01*
X8258803Y-8558276D01*
X8296899Y-8558276D01*
X8315946Y-8548752D01*
X8325470Y-8539229D01*
X8334994Y-8520181D01*
X8334994Y-8472562D01*
X8325470Y-8453514D01*
X8315946Y-8443990D01*
X8296899Y-8434467D01*
X8258803Y-8434467D01*
X8239756Y-8443990D01*
X8230232Y-8453514D01*
X8220708Y-8472562D01*
X8411184Y-8358276D02*
X8411184Y-8396371D01*
X8487375Y-8358276D02*
X8487375Y-8396371D01*
X8782613Y-8634467D02*
X8773089Y-8624943D01*
X8754042Y-8596371D01*
X8744518Y-8577324D01*
X8734994Y-8548752D01*
X8725470Y-8501133D01*
X8725470Y-8463038D01*
X8734994Y-8415419D01*
X8744518Y-8386848D01*
X8754042Y-8367800D01*
X8773089Y-8339228D01*
X8782613Y-8329705D01*
X8963565Y-8558276D02*
X8849280Y-8558276D01*
X8906422Y-8558276D02*
X8906422Y-8358276D01*
X8887375Y-8386848D01*
X8868327Y-8405895D01*
X8849280Y-8415419D01*
X9201661Y-8558276D02*
X9201661Y-8358276D01*
X9287375Y-8558276D02*
X9287375Y-8453514D01*
X9277851Y-8434467D01*
X9258803Y-8424943D01*
X9230232Y-8424943D01*
X9211184Y-8434467D01*
X9201661Y-8443990D01*
X9411184Y-8558276D02*
X9392137Y-8548752D01*
X9382613Y-8539229D01*
X9373089Y-8520181D01*
X9373089Y-8463038D01*
X9382613Y-8443990D01*
X9392137Y-8434467D01*
X9411184Y-8424943D01*
X9439756Y-8424943D01*
X9458803Y-8434467D01*
X9468327Y-8443990D01*
X9477851Y-8463038D01*
X9477851Y-8520181D01*
X9468327Y-8539229D01*
X9458803Y-8548752D01*
X9439756Y-8558276D01*
X9411184Y-8558276D01*
X9592137Y-8558276D02*
X9573089Y-8548752D01*
X9563565Y-8529705D01*
X9563565Y-8358276D01*
X9744518Y-8548752D02*
X9725470Y-8558276D01*
X9687375Y-8558276D01*
X9668327Y-8548752D01*
X9658803Y-8529705D01*
X9658803Y-8453514D01*
X9668327Y-8434467D01*
X9687375Y-8424943D01*
X9725470Y-8424943D01*
X9744518Y-8434467D01*
X9754042Y-8453514D01*
X9754042Y-8472562D01*
X9658803Y-8491610D01*
X9820708Y-8634467D02*
X9830232Y-8624943D01*
X9849280Y-8596371D01*
X9858803Y-8577324D01*
X9868327Y-8548752D01*
X9877851Y-8501133D01*
X9877851Y-8463038D01*
X9868327Y-8415419D01*
X9858803Y-8386848D01*
X9849280Y-8367800D01*
X9830232Y-8339228D01*
X9820708Y-8329705D01*
M02*
