G04 #@! TF.GenerationSoftware,KiCad,Pcbnew,(6.0.0)*
G04 #@! TF.CreationDate,2022-01-15T11:29:00+07:00*
G04 #@! TF.ProjectId,Unified-Daughterboard,556e6966-6965-4642-9d44-617567687465,C3*
G04 #@! TF.SameCoordinates,Original*
G04 #@! TF.FileFunction,Legend,Bot*
G04 #@! TF.FilePolarity,Positive*
%FSLAX46Y46*%
G04 Gerber Fmt 4.6, Leading zero omitted, Abs format (unit mm)*
G04 Created by KiCad (PCBNEW (6.0.0)) date 2022-01-15 11:29:00*
%MOMM*%
%LPD*%
G01*
G04 APERTURE LIST*
G04 Aperture macros list*
%AMFreePoly0*
4,1,27,0.003526,0.824875,0.085250,0.824492,0.121243,0.809386,0.136012,0.773600,0.136387,0.594993,0.136656,0.467278,0.764682,0.467278,0.800744,0.452340,0.815682,0.416278,0.815682,0.287592,0.800744,0.251530,0.764682,0.236592,0.136751,0.236592,0.136751,0.085657,0.813494,0.085657,0.849556,0.070719,0.864494,0.034657,0.864494,-0.094029,0.849556,-0.130091,0.813494,-0.145029,
-0.078435,-0.145029,-0.114497,-0.130091,-0.129435,-0.094029,-0.129435,0.774258,-0.114497,0.810320,-0.078197,0.825257,0.003526,0.824875,0.003526,0.824875,$1*%
%AMFreePoly1*
4,1,111,0.837481,0.790295,0.852419,0.754233,0.852419,0.625552,0.837481,0.589490,0.801471,0.574552,0.437229,0.574180,0.123791,0.573859,0.123558,0.491908,0.123326,0.410299,0.764440,0.410299,0.800502,0.395361,0.815440,0.359299,0.815440,0.230613,0.800502,0.194551,0.764440,0.179613,0.123197,0.179613,0.123197,0.065657,0.801419,0.065657,0.837481,0.050719,0.852419,0.014657,
0.852419,-0.114029,0.837481,-0.150091,0.801419,-0.165029,-0.091989,-0.165029,-0.128051,-0.150091,-0.142989,-0.114029,-0.142989,0.319119,-0.142987,0.350414,-0.142987,0.350424,-0.142978,0.385366,-0.142978,0.385375,-0.142963,0.419448,-0.142963,0.419460,-0.142941,0.452549,-0.142941,0.452558,-0.142914,0.484545,-0.142914,0.484555,-0.142882,0.515325,-0.142882,0.515338,-0.142844,0.544775,
-0.142844,0.544786,-0.142802,0.572773,-0.142802,0.572787,-0.142755,0.599209,-0.142755,0.599225,-0.142703,0.623966,-0.142703,0.623983,-0.142647,0.646926,-0.142647,0.646945,-0.142588,0.667974,-0.142588,0.668003,-0.142524,0.687003,-0.142524,0.687031,-0.142458,0.703885,-0.142457,0.703930,-0.142387,0.718522,-0.142387,0.718578,-0.142315,0.730792,-0.142314,0.730885,-0.142239,0.740605,
-0.142238,0.740763,-0.142161,0.747873,-0.142156,0.748252,-0.142076,0.752636,-0.142014,0.754380,-0.141933,0.755922,-0.125124,0.791152,-0.103152,0.802779,-0.103099,0.802792,-0.092972,0.804220,-0.090956,0.804300,-0.089745,0.804334,-0.084904,0.804411,-0.084606,0.804414,-0.077054,0.804490,-0.076913,0.804492,-0.066765,0.804566,-0.066680,0.804566,-0.054051,0.804637,-0.053999,0.804637,
-0.039001,0.804706,-0.038958,0.804707,-0.021708,0.804772,-0.021679,0.804772,-0.002290,0.804834,-0.002268,0.804834,0.019145,0.804893,0.019168,0.804893,0.042490,0.804947,0.042504,0.804947,0.067622,0.804998,0.067637,0.804998,0.094436,0.805045,0.094449,0.805045,0.122815,0.805087,0.122828,0.805087,0.152645,0.805124,0.152656,0.805124,0.183812,0.805156,0.183821,0.805156,
0.216199,0.805183,0.216210,0.805183,0.249698,0.805204,0.249706,0.805204,0.284187,0.805220,0.284197,0.805220,0.319559,0.805230,0.319569,0.805230,0.355697,0.805233,0.801419,0.805233,0.837481,0.790295,0.837481,0.790295,$1*%
%AMFreePoly2*
4,1,13,0.118408,0.610295,0.133346,0.574233,0.133346,-0.294029,0.118408,-0.330091,0.082346,-0.345029,-0.081840,-0.345029,-0.117902,-0.330091,-0.132840,-0.294029,-0.132840,0.574233,-0.117902,0.610295,-0.081840,0.625233,0.082346,0.625233,0.118408,0.610295,0.118408,0.610295,$1*%
%AMFreePoly3*
4,1,60,0.104809,0.780295,0.119747,0.744233,0.119747,0.406986,0.119748,0.389838,0.119756,0.358895,0.119770,0.328816,0.119792,0.299726,0.119820,0.271759,0.119854,0.245044,0.119893,0.219720,0.119938,0.195911,0.119988,0.173753,0.120000,0.169131,0.134939,0.180000,0.152898,0.193073,0.171861,0.206884,0.191746,0.221376,0.212396,0.236432,0.233695,0.251968,0.254323,0.267020,
0.277544,0.283964,0.277545,0.283965,0.302686,0.302309,0.329508,0.321880,0.357773,0.342504,0.387243,0.364007,0.417681,0.386216,0.448848,0.408957,0.480506,0.432056,0.512419,0.455341,0.544346,0.478637,0.576052,0.501771,0.607297,0.524568,0.637844,0.546857,0.667455,0.568462,0.695892,0.589211,0.964821,0.785432,0.994882,0.795233,1.074570,0.795233,1.110632,0.780295,
1.125570,0.744233,1.125570,-0.124029,1.110632,-0.160091,1.074570,-0.175029,0.931099,-0.175029,0.895037,-0.160091,0.880099,-0.124088,0.879726,0.197658,0.879471,0.417869,0.529678,0.156883,0.098505,-0.164823,0.068036,-0.174947,-0.074702,-0.175029,-0.110773,-0.160112,-0.125731,-0.124029,-0.125731,0.744233,-0.110793,0.780295,-0.074731,0.795233,0.068747,0.795233,0.104809,0.780295,
0.104809,0.780295,$1*%
%AMFreePoly4*
4,1,291,0.313901,0.795212,0.329397,0.795211,0.329409,0.795211,0.370827,0.795199,0.370842,0.795199,0.410539,0.795176,0.410553,0.795176,0.448453,0.795143,0.448471,0.795143,0.484495,0.795099,0.484512,0.795099,0.518584,0.795046,0.518607,0.795046,0.550650,0.794982,0.550672,0.794982,0.580607,0.794909,0.580634,0.794909,0.608385,0.794827,0.608418,0.794827,0.633907,0.794735,
0.633943,0.794735,0.657092,0.794635,0.657138,0.794634,0.677871,0.794526,0.677932,0.794526,0.696171,0.794409,0.696251,0.794408,0.711918,0.794283,0.712028,0.794282,0.725047,0.794150,0.725224,0.794148,0.735516,0.794008,0.735823,0.794003,0.743312,0.793856,0.744014,0.793838,0.748622,0.793684,0.749944,0.793622,0.768325,0.792530,0.769723,0.792428,0.796477,0.790099,
0.798521,0.789879,0.823005,0.786749,0.825409,0.786384,0.847993,0.782395,0.850701,0.781840,0.871754,0.776932,0.874646,0.776168,0.894537,0.770282,0.897531,0.769294,0.917419,0.762045,0.921159,0.760512,0.943523,0.750288,0.948134,0.747888,0.968078,0.736182,0.972992,0.732901,0.990596,0.719610,0.995495,0.715398,1.010839,0.700416,1.015332,0.695410,1.028496,0.678634,
1.032253,0.673143,1.043315,0.654469,1.046163,0.648911,1.055205,0.628235,1.057169,0.622971,1.064268,0.600187,1.065493,0.595475,1.070730,0.570482,1.071411,0.566422,1.074865,0.539113,1.075077,0.537123,1.075117,0.536662,1.075217,0.535297,1.075470,0.531066,1.075528,0.529857,1.075751,0.523664,1.075770,0.523024,1.075963,0.514786,1.075971,0.514398,1.076135,0.504033,
1.076138,0.503769,1.076272,0.491193,1.076274,0.491014,1.076380,0.476144,1.076380,0.476008,1.076457,0.458761,1.076458,0.458662,1.076508,0.438955,1.076508,0.438874,1.076529,0.416624,1.076529,0.416566,1.076524,0.391691,1.076524,0.391642,1.076492,0.364057,1.076492,0.364017,1.076433,0.333640,1.076433,0.333610,1.076349,0.300358,1.076349,0.300340,1.076318,0.289568,
1.076318,0.289564,1.076233,0.260856,1.076233,0.260842,1.076149,0.234890,1.076149,0.234869,1.076064,0.211524,1.076064,0.211495,1.075976,0.190607,1.075975,0.190564,1.075881,0.171984,1.075881,0.171931,1.075781,0.155509,1.075781,0.155431,1.075671,0.141018,1.075670,0.140919,1.075550,0.128366,1.075548,0.128224,1.075414,0.117380,1.075412,0.117197,1.075264,0.107914,
1.075259,0.107652,1.075093,0.099780,1.075084,0.099428,1.074899,0.092817,1.074883,0.092335,1.074677,0.086836,1.074648,0.086174,1.074419,0.081638,1.074366,0.080739,1.074112,0.077015,1.074016,0.075821,1.073735,0.072761,1.073573,0.071241,1.073262,0.068695,1.073026,0.067001,1.072685,0.064820,1.072489,0.063653,1.071362,0.057399,1.071071,0.055913,1.066289,0.033253,
1.065582,0.030332,1.060070,0.010174,1.058935,0.006558,1.052550,-0.011420,1.050841,-0.015628,1.043440,-0.031751,1.041077,-0.036286,1.032517,-0.050874,1.029580,-0.055327,1.019718,-0.068704,1.016469,-0.072675,1.005160,-0.085162,1.002132,-0.088234,0.992237,-0.097457,0.988526,-0.100599,0.971726,-0.113500,0.967065,-0.116686,0.948261,-0.128063,0.943665,-0.130531,0.922763,-0.140417,
0.918442,-0.142224,0.895350,-0.150651,0.891427,-0.151905,0.866049,-0.158905,0.862587,-0.159731,0.834831,-0.165338,0.831826,-0.165852,0.801599,-0.170098,0.799024,-0.170393,0.766230,-0.173310,0.764351,-0.173443,0.763020,-0.173512,0.761880,-0.173558,0.756747,-0.173709,0.756171,-0.173723,0.748170,-0.173868,0.747888,-0.173872,0.737078,-0.174008,0.736921,-0.174010,0.723366,-0.174139,
0.723261,-0.174140,0.707023,-0.174261,0.706946,-0.174261,0.688086,-0.174373,0.688031,-0.174373,0.666611,-0.174477,0.666566,-0.174478,0.642648,-0.174573,0.642613,-0.174573,0.616260,-0.174660,0.616229,-0.174660,0.587501,-0.174737,0.587476,-0.174737,0.556436,-0.174805,0.556414,-0.174805,0.523123,-0.174864,0.523103,-0.174864,0.487624,-0.174913,0.487607,-0.174913,0.450001,-0.174952,
0.449984,-0.174952,0.410314,-0.174980,0.410301,-0.174980,0.368628,-0.174999,0.368614,-0.174999,0.325000,-0.175007,0.324994,-0.175007,-0.089538,-0.175029,-0.125602,-0.160093,-0.140541,-0.124029,-0.140541,0.564545,0.125645,0.564545,0.125645,0.055661,0.413674,0.056035,0.433024,0.056060,0.433029,0.056060,0.469769,0.056104,0.503728,0.056146,0.535013,0.056186,0.563748,0.056230,
0.590044,0.056279,0.614019,0.056337,0.635788,0.056407,0.655539,0.056492,0.655539,0.056491,0.673259,0.056594,0.688975,0.056717,0.703077,0.056866,0.715587,0.057041,0.726348,0.057241,0.735914,0.057477,0.743956,0.057739,0.750788,0.058033,0.756351,0.058349,0.760889,0.058685,0.764311,0.059016,0.766856,0.059335,0.768514,0.059600,0.769637,0.059825,0.770466,0.060027,
0.771363,0.060284,0.772747,0.060726,0.774732,0.061402,0.777436,0.062339,0.777736,0.062442,0.780814,0.063487,0.783899,0.064548,0.789364,0.066744,0.791623,0.067955,0.793799,0.069521,0.797510,0.072831,0.798631,0.074028,0.801986,0.078896,0.804893,0.085274,0.808087,0.096374,0.809814,0.104166,0.809814,0.518981,0.807999,0.527148,0.805770,0.535458,0.803718,0.540571,
0.801967,0.543481,0.799166,0.546745,0.797740,0.548028,0.793467,0.550962,0.787929,0.553690,0.779788,0.556505,0.768539,0.559160,0.753878,0.561431,0.735826,0.563154,0.732236,0.563282,0.724973,0.563436,0.714581,0.563587,0.701480,0.563729,0.685756,0.563861,0.667238,0.563983,0.646334,0.564094,0.646334,0.564093,0.622876,0.564192,0.597095,0.564280,0.569020,0.564355,
0.538719,0.564417,0.506266,0.564466,0.471733,0.564502,0.435193,0.564525,0.396718,0.564534,0.125645,0.564545,-0.140541,0.564545,-0.140541,0.744233,-0.125603,0.780295,-0.089538,0.795233,0.313901,0.795212,0.313901,0.795212,$1*%
%AMFreePoly5*
4,1,69,0.120483,0.720295,0.135421,0.684233,0.135421,-0.184029,0.120483,-0.220091,0.084421,-0.235029,-0.079765,-0.235029,-0.115827,-0.220091,-0.130765,-0.184029,-0.130765,0.249121,-0.130762,0.280416,-0.130762,0.280424,-0.130753,0.315366,-0.130753,0.315375,-0.130738,0.349448,-0.130738,0.349458,-0.130717,0.382547,-0.130717,0.382558,-0.130690,0.414545,-0.130690,0.414557,-0.130657,0.445327,
-0.130657,0.445336,-0.130620,0.474773,-0.130620,0.474787,-0.130577,0.502774,-0.130577,0.502787,-0.130530,0.529209,-0.130530,0.529225,-0.130478,0.553966,-0.130478,0.553981,-0.130423,0.576924,-0.130423,0.576948,-0.130363,0.597977,-0.130363,0.598000,-0.130300,0.617000,-0.130300,0.617034,-0.130233,0.633888,-0.130232,0.633926,-0.130163,0.648518,-0.130163,0.648582,-0.130090,0.660796,
-0.130089,0.660885,-0.130014,0.670605,-0.130013,0.670763,-0.129936,0.677873,-0.129931,0.678240,-0.129852,0.682624,-0.129790,0.684380,-0.129709,0.685922,-0.112900,0.721152,-0.087660,0.733468,-0.087038,0.733578,-0.080964,0.734280,-0.077717,0.734459,-0.076367,0.734515,-0.070595,0.734680,-0.070085,0.734692,-0.062059,0.734841,-0.061769,0.734846,-0.051760,0.734975,-0.051564,0.734977,
-0.039846,0.735083,-0.039695,0.735084,-0.026538,0.735164,-0.026406,0.735165,-0.012082,0.735215,-0.011964,0.735215,0.003254,0.735233,0.084421,0.735233,0.120483,0.720295,0.120483,0.720295,$1*%
%AMFreePoly6*
4,1,330,0.533063,0.515006,0.533082,0.515006,0.560086,0.514987,0.560104,0.514987,0.586610,0.514959,0.586633,0.514959,0.612464,0.514920,0.612485,0.514920,0.637467,0.514872,0.637492,0.514872,0.661449,0.514814,0.661476,0.514814,0.684231,0.514747,0.684267,0.514747,0.705646,0.514669,0.705684,0.514669,0.725510,0.514582,0.725559,0.514581,0.743656,0.514484,0.743720,0.514484,
0.759914,0.514377,0.760000,0.514376,0.774114,0.514259,0.774237,0.514258,0.786095,0.514131,0.786285,0.514129,0.795713,0.513993,0.796076,0.513986,0.802896,0.513839,0.803778,0.513812,0.807816,0.513655,0.809116,0.513588,0.812529,0.513368,0.813441,0.513301,0.834498,0.511564,0.836541,0.511354,0.855242,0.509050,0.857922,0.508648,0.874762,0.505658,0.877994,0.504975,
0.893468,0.501180,0.896998,0.500178,0.911602,0.495460,0.915061,0.494203,0.929292,0.488442,0.932311,0.487105,0.946662,0.480183,0.948151,0.479435,0.949527,0.478715,0.952717,0.476896,0.970554,0.465859,0.976342,0.461691,0.992026,0.448639,0.997334,0.443529,1.010811,0.428534,1.015352,0.422676,1.026565,0.405808,1.030136,0.399509,1.039030,0.380839,1.041568,0.374427,
1.048086,0.354027,1.048942,0.351033,1.049651,0.348237,1.050614,0.344500,1.050623,0.344464,1.051514,0.340996,1.051629,0.340537,1.052449,0.337218,1.052648,0.336385,1.053402,0.333097,1.053660,0.331905,1.054350,0.328527,1.054616,0.327126,1.055245,0.323538,1.055477,0.322091,1.056048,0.318175,1.056229,0.316805,1.056745,0.312441,1.056874,0.311230,1.057338,0.306299,
1.057423,0.305286,1.057839,0.299667,1.057894,0.298834,1.058264,0.292408,1.058298,0.291742,1.058625,0.284390,1.058645,0.283866,1.058932,0.275468,1.058945,0.275059,1.059195,0.265496,1.059202,0.265183,1.059419,0.254335,1.059423,0.254089,1.059609,0.241837,1.059612,0.241652,1.059771,0.227876,1.059772,0.227730,1.059906,0.212310,1.059907,0.212199,1.060019,0.195016,
1.060019,0.194933,1.060112,0.175868,1.060113,0.175810,1.060192,0.154743,1.060192,0.154695,1.060257,0.131506,1.060257,0.131475,1.060313,0.106045,1.060313,0.106023,1.060362,0.078232,1.060362,0.078219,1.060408,0.047948,1.060408,0.047942,1.060454,0.015072,1.060454,0.015070,1.060502,-0.020517,1.060556,-0.058944,1.061053,-0.403956,1.046167,-0.440039,1.010053,-0.455029,
0.844293,-0.455029,0.808231,-0.440091,0.793293,-0.404029,0.793293,-0.067094,0.793292,-0.034114,0.793287,0.001011,0.793278,0.033387,0.793263,0.063125,0.793243,0.090344,0.793216,0.115148,0.793182,0.137655,0.793139,0.157972,0.793088,0.176219,0.793027,0.192496,0.793028,0.192496,0.792957,0.206844,0.792875,0.219600,0.792783,0.230503,0.792678,0.239967,0.792560,0.248095,
0.792428,0.254955,0.792294,0.260165,0.792147,0.264427,0.792033,0.266854,0.791043,0.269442,0.789757,0.271436,0.787935,0.273246,0.784283,0.275634,0.777644,0.278465,0.767424,0.281184,0.753597,0.283224,0.751054,0.283320,0.744156,0.283476,0.734282,0.283632,0.722311,0.283774,0.707963,0.283907,0.691569,0.284029,0.673473,0.284139,0.653819,0.284237,0.653819,0.284236,
0.632655,0.284322,0.610300,0.284397,0.586902,0.284459,0.562635,0.284509,0.537683,0.284548,0.512236,0.284574,0.486466,0.284589,0.460582,0.284592,0.434733,0.284583,0.409108,0.284562,0.383896,0.284529,0.359280,0.284484,0.335442,0.284427,0.312562,0.284358,0.290788,0.284278,0.290788,0.284279,0.270429,0.284186,0.251545,0.284082,0.234279,0.283965,0.219034,0.283839,
0.205787,0.283700,0.194950,0.283552,0.186581,0.283394,0.181404,0.283245,0.180985,0.283221,0.169261,0.281537,0.158332,0.278799,0.151192,0.275915,0.147207,0.273447,0.145318,0.271670,0.143148,0.268488,0.142928,0.266181,0.142640,0.262084,0.142355,0.256606,0.142099,0.249932,0.141871,0.241904,0.141668,0.232248,0.141500,0.221317,0.141357,0.208425,0.141242,0.194011,
0.141152,0.177849,0.141082,0.159562,0.141030,0.139309,0.140995,0.116898,0.140972,0.092204,0.140959,0.065123,0.140953,0.035539,0.140952,0.003339,0.140952,-0.031595,0.140951,-0.069372,0.140951,-0.069375,0.140925,-0.404033,0.125985,-0.440094,0.089925,-0.455029,-0.074260,-0.455029,-0.110322,-0.440091,-0.125260,-0.404025,-0.125233,-0.064930,-0.125233,-0.056887,-0.125227,-0.019467,
-0.125227,-0.019460,-0.125217,0.015139,-0.125217,0.015148,-0.125202,0.047040,-0.125202,0.047053,-0.125181,0.076350,-0.125181,0.076366,-0.125153,0.103183,-0.125153,0.103201,-0.125119,0.127651,-0.125119,0.127679,-0.125076,0.149877,-0.125076,0.149908,-0.125025,0.169965,-0.125025,0.170005,-0.124965,0.188037,-0.124965,0.188092,-0.124894,0.204212,-0.124893,0.204275,-0.124812,0.218597,
-0.124812,0.218684,-0.124719,0.231320,-0.124718,0.231429,-0.124613,0.242495,-0.124611,0.242632,-0.124494,0.252239,-0.124491,0.252433,-0.124359,0.260697,-0.124355,0.260940,-0.124209,0.267974,-0.124201,0.268295,-0.124041,0.274212,-0.124027,0.274668,-0.123850,0.279583,-0.123824,0.280191,-0.123631,0.284216,-0.123584,0.285063,-0.123374,0.288312,-0.123283,0.289499,-0.123055,0.292086,
-0.122882,0.293742,-0.122635,0.295781,-0.122398,0.297496,-0.121296,0.304572,-0.120690,0.307782,-0.115458,0.331339,-0.113929,0.336780,-0.106549,0.358366,-0.104168,0.364145,-0.094598,0.383852,-0.091312,0.389627,-0.079507,0.407550,-0.075440,0.412917,-0.061358,0.429150,-0.058213,0.432464,-0.052249,0.438208,-0.049283,0.440849,-0.036398,0.451456,-0.032210,0.454559,-0.017642,0.464239,
-0.013806,0.466551,0.003084,0.475748,0.005365,0.476917,0.012217,0.480213,0.014942,0.481427,0.036714,0.490373,0.040865,0.491872,0.063981,0.499106,0.067974,0.500180,0.092748,0.505777,0.096381,0.506461,0.123128,0.510495,0.126277,0.510870,0.155309,0.513417,0.157514,0.513562,0.159822,0.513664,0.160767,0.513697,0.166694,0.513849,0.167158,0.513859,0.175749,0.514001,
0.175980,0.514004,0.187060,0.514137,0.187200,0.514139,0.200593,0.514263,0.200687,0.514264,0.216218,0.514379,0.216290,0.514379,0.233782,0.514484,0.233834,0.514484,0.253112,0.514580,0.253156,0.514581,0.274045,0.514667,0.274079,0.514667,0.296402,0.514744,0.296433,0.514744,0.320015,0.514811,0.320040,0.514811,0.344704,0.514869,0.344728,0.514869,0.370301,0.514917,
0.370321,0.514917,0.396625,0.514956,0.396646,0.514956,0.423506,0.514985,0.423524,0.514985,0.450764,0.515005,0.450782,0.515005,0.478227,0.515015,0.505736,0.515015,0.533063,0.515006,0.533063,0.515006,$1*%
%AMFreePoly7*
4,1,270,0.930120,0.450118,0.945083,0.414030,0.945083,0.285396,0.930145,0.249334,0.894138,0.234396,0.169581,0.233611,0.162420,0.231634,0.157842,0.230241,0.149108,0.226654,0.144686,0.223949,0.142941,0.222343,0.140811,0.219261,0.140729,0.218574,0.140435,0.215122,0.140143,0.210289,0.139871,0.203902,0.139639,0.196136,0.139446,0.186762,0.139291,0.175774,0.139168,0.162714,
0.139081,0.148105,0.139019,0.131222,0.138981,0.112305,0.138960,0.091093,0.138954,0.067468,0.138956,0.041290,0.138962,0.012408,0.138962,0.012405,0.138967,-0.019294,0.138967,-0.019299,0.138968,-0.035008,0.138970,-0.065447,0.138973,-0.093122,0.138983,-0.118170,0.139004,-0.140723,0.139041,-0.160921,0.139097,-0.178985,0.139096,-0.178985,0.139175,-0.194753,0.139283,-0.208646,
0.139423,-0.220844,0.139597,-0.231234,0.139803,-0.239845,0.140048,-0.247003,0.140324,-0.252724,0.140614,-0.257019,0.140803,-0.259006,0.141469,-0.259985,0.143984,-0.262501,0.148250,-0.265507,0.153967,-0.268336,0.162114,-0.270948,0.162395,-0.271011,0.163686,-0.271271,0.165022,-0.271502,0.166617,-0.271728,0.168887,-0.271987,0.171800,-0.272250,0.175695,-0.272524,0.180518,-0.272788,
0.186369,-0.273036,0.193234,-0.273262,0.201620,-0.273473,0.211080,-0.273659,0.221911,-0.273821,0.234518,-0.273967,0.248458,-0.274089,0.264346,-0.274195,0.281893,-0.274283,0.281893,-0.274282,0.301520,-0.274354,0.323138,-0.274412,0.346921,-0.274457,0.372985,-0.274491,0.401442,-0.274515,0.432405,-0.274531,0.465987,-0.274540,0.502303,-0.274545,0.541463,-0.274546,0.894083,-0.274546,
0.930145,-0.289484,0.945083,-0.325546,0.945083,-0.454326,0.930145,-0.490388,0.894009,-0.505326,0.523852,-0.504788,0.523847,-0.504788,0.487558,-0.504732,0.487548,-0.504732,0.447803,-0.504663,0.447793,-0.504663,0.410862,-0.504591,0.410846,-0.504591,0.376652,-0.504514,0.376633,-0.504514,0.345099,-0.504431,0.345080,-0.504431,0.316129,-0.504344,0.316101,-0.504344,0.289655,-0.504250,
0.289622,-0.504250,0.265604,-0.504149,0.265566,-0.504148,0.243898,-0.504041,0.243850,-0.504041,0.224455,-0.503927,0.224390,-0.503927,0.207191,-0.503804,0.207116,-0.503803,0.192035,-0.503673,0.191928,-0.503672,0.178887,-0.503532,0.178748,-0.503530,0.167672,-0.503381,0.167481,-0.503378,0.158290,-0.503220,0.158000,-0.503215,0.150617,-0.503046,0.150169,-0.503033,0.144519,-0.502854,
0.143713,-0.502823,0.139715,-0.502633,0.137894,-0.502513,0.135474,-0.502311,0.132927,-0.502034,0.122243,-0.500599,0.120388,-0.500315,0.091877,-0.495412,0.088721,-0.494766,0.062718,-0.488582,0.059054,-0.487565,0.035415,-0.480043,0.031279,-0.478527,0.009859,-0.469610,0.005364,-0.467476,-0.013981,-0.457106,-0.018626,-0.454288,-0.036040,-0.442409,-0.040565,-0.438936,-0.056191,-0.425490,
-0.059345,-0.422535,-0.067123,-0.414601,-0.070009,-0.411396,-0.081649,-0.397318,-0.085207,-0.392456,-0.094939,-0.377362,-0.097930,-0.372052,-0.105990,-0.355498,-0.108138,-0.350401,-0.114764,-0.331940,-0.116112,-0.327579,-0.121539,-0.306766,-0.121981,-0.304933,-0.125293,-0.289988,-0.126501,-0.278953,-0.126501,-0.000856,-0.126498,0.030036,-0.126498,0.030044,-0.126491,0.058192,-0.126491,0.058205,
-0.126478,0.083745,-0.126478,0.083761,-0.126459,0.106828,-0.126459,0.106852,-0.126432,0.127582,-0.126432,0.127615,-0.126396,0.146143,-0.126396,0.146193,-0.126348,0.162655,-0.126348,0.162713,-0.126289,0.177245,-0.126288,0.177330,-0.126215,0.190068,-0.126214,0.190177,-0.126127,0.201255,-0.126126,0.201409,-0.126022,0.210965,-0.126019,0.211166,-0.125898,0.219333,-0.125894,0.219609,
-0.125754,0.226524,-0.125745,0.226899,-0.125585,0.232698,-0.125568,0.233217,-0.125386,0.238034,-0.125355,0.238723,-0.125151,0.242696,-0.125093,0.243653,-0.124864,0.246915,-0.124763,0.248139,-0.124509,0.250828,-0.124342,0.252352,-0.124061,0.254602,-0.123820,0.256301,-0.123510,0.258248,-0.123244,0.259770,-0.122905,0.261550,-0.122643,0.262831,-0.121240,0.269292,-0.120407,0.272595,
-0.113644,0.296059,-0.111699,0.301589,-0.102709,0.323114,-0.099910,0.328797,-0.088688,0.348400,-0.086760,0.351504,-0.086156,0.352403,-0.084313,0.354969,-0.077537,0.363817,-0.074992,0.366885,-0.066483,0.376360,-0.064339,0.378606,-0.054855,0.387954,-0.052601,0.390046,-0.042900,0.398518,-0.039874,0.400963,-0.030712,0.407807,-0.026371,0.410716,-0.007077,0.422257,-0.002525,0.424676,
0.020054,0.435249,0.024649,0.437133,0.049236,0.445845,0.053544,0.447161,0.080235,0.454038,0.084141,0.454883,0.113029,0.459955,0.116490,0.460441,0.147670,0.463735,0.150764,0.463967,0.151034,0.463979,0.152489,0.464023,0.155324,0.464068,0.155707,0.464072,0.161337,0.464119,0.161474,0.464120,0.169770,0.464167,0.169833,0.464167,0.180666,0.464215,0.180711,0.464216,
0.193953,0.464263,0.193976,0.464263,0.209498,0.464311,0.209520,0.464311,0.227192,0.464358,0.227209,0.464358,0.246905,0.464404,0.246918,0.464404,0.268507,0.464449,0.268517,0.464449,0.291870,0.464493,0.291878,0.464493,0.316868,0.464536,0.316877,0.464536,0.343375,0.464577,0.343383,0.464577,0.371259,0.464616,0.371265,0.464616,0.400391,0.464653,0.400399,0.464653,
0.430646,0.464687,0.430652,0.464687,0.461891,0.464718,0.461896,0.464718,0.494000,0.464747,0.494007,0.464747,0.526845,0.464772,0.526848,0.464772,0.894047,0.465030,0.930120,0.450118,0.930120,0.450118,$1*%
%AMFreePoly8*
4,1,348,-0.066904,0.525026,-0.066886,0.525026,-0.029861,0.525008,-0.029836,0.525008,0.005013,0.524974,0.005037,0.524974,0.037649,0.524927,0.037679,0.524927,0.067995,0.524865,0.068031,0.524865,0.095989,0.524788,0.096027,0.524788,0.121568,0.524699,0.121618,0.524698,0.144681,0.524595,0.144744,0.524595,0.165270,0.524478,0.165346,0.524478,0.183275,0.524349,0.183379,0.524348,
0.198650,0.524207,0.198805,0.524205,0.211358,0.524051,0.211598,0.524048,0.221373,0.523882,0.221815,0.523872,0.228752,0.523694,0.229828,0.523655,0.233867,0.523466,0.235565,0.523358,0.241219,0.522904,0.242694,0.522764,0.270628,0.519702,0.273485,0.519307,0.298874,0.515060,0.302246,0.514379,0.325242,0.508917,0.329137,0.507827,0.349891,0.501121,0.352100,0.500350,
0.352706,0.500123,0.354832,0.499272,0.378117,0.489336,0.382652,0.487130,0.403361,0.475756,0.408246,0.472702,0.426400,0.459871,0.431412,0.455831,0.447027,0.441528,0.451838,0.436473,0.464934,0.420679,0.469166,0.414762,0.479762,0.397461,0.483106,0.391012,0.491220,0.372187,0.492527,0.368833,0.494327,0.363685,0.494483,0.363231,0.496396,0.357590,0.496783,0.356403,
0.498405,0.351205,0.498962,0.349286,0.500320,0.344248,0.500918,0.341789,0.502038,0.336627,0.502534,0.334019,0.503442,0.328449,0.503771,0.326078,0.504492,0.319818,0.504674,0.317926,0.505235,0.310692,0.505324,0.309310,0.505751,0.300818,0.505789,0.299878,0.506108,0.289846,0.506124,0.289240,0.506360,0.277383,0.506366,0.277025,0.506546,0.263059,0.506548,0.262867,
0.506697,0.246511,0.506697,0.246437,0.506843,0.227406,0.506844,0.227377,0.506900,0.219486,0.506900,0.219404,0.507010,0.199394,0.507011,0.199214,0.507045,0.181818,0.507045,0.181531,0.506990,0.166497,0.506986,0.166069,0.506830,0.153142,0.506819,0.152518,0.506550,0.141447,0.506521,0.140560,0.506126,0.131091,0.506061,0.129883,0.505529,0.121763,0.505399,0.120167,
0.504717,0.113145,0.504486,0.111165,0.503641,0.104986,0.503284,0.102747,0.502265,0.097159,0.501797,0.094890,0.500591,0.089640,0.500098,0.087671,0.498693,0.082506,0.498272,0.081045,0.496839,0.076336,0.495775,0.073207,0.491240,0.061167,0.488564,0.055240,0.482996,0.044746,0.479258,0.038746,0.472108,0.028868,0.468503,0.024434,0.459221,0.014241,0.455873,0.010891,
0.444618,0.000630,0.447438,-0.002285,0.452179,-0.007956,0.463151,-0.023199,0.466890,-0.029239,0.475866,-0.046293,0.478628,-0.052518,0.485468,-0.071206,0.487316,-0.077473,0.491877,-0.097617,0.492512,-0.100925,0.492515,-0.100944,0.492802,-0.103048,0.493524,-0.109301,0.493744,-0.111695,0.494336,-0.120412,0.494405,-0.121657,0.494869,-0.132350,0.494898,-0.133158,0.495233,-0.145335,
0.495246,-0.145948,0.495450,-0.159122,0.495455,-0.159632,0.495530,-0.173313,0.495531,-0.173798,0.495476,-0.187497,0.495471,-0.188009,0.495285,-0.201236,0.495273,-0.201841,0.494955,-0.214106,0.494928,-0.214895,0.494480,-0.225711,0.494415,-0.226932,0.493834,-0.235807,0.493635,-0.238074,0.492923,-0.244520,0.492618,-0.246805,0.492480,-0.247687,0.491976,-0.250418,0.487243,-0.272660,
0.485643,-0.278470,0.478758,-0.298709,0.476173,-0.304926,0.467110,-0.323218,0.463444,-0.329460,0.452174,-0.345860,0.447537,-0.351654,0.434034,-0.366215,0.431293,-0.368954,0.430169,-0.369995,0.427696,-0.372143,0.411848,-0.385033,0.407052,-0.388492,0.389316,-0.399781,0.384474,-0.402504,0.364745,-0.412226,0.360118,-0.414229,0.338290,-0.422419,0.334053,-0.423800,0.310021,-0.430491,
0.306272,-0.431384,0.279929,-0.436613,0.276681,-0.437149,0.247922,-0.440950,0.245153,-0.441240,0.213873,-0.443647,0.212145,-0.443750,0.209114,-0.443880,0.208312,-0.443908,0.200830,-0.444111,0.200344,-0.444122,0.189945,-0.444305,0.189670,-0.444309,0.176381,-0.444471,0.176204,-0.444473,0.160052,-0.444614,0.159929,-0.444615,0.140939,-0.444735,0.140849,-0.444735,0.119049,-0.444834,
0.118977,-0.444835,0.094392,-0.444912,0.094338,-0.444912,0.066995,-0.444969,0.066947,-0.444969,0.036872,-0.445003,0.036836,-0.445003,0.004056,-0.445017,0.004021,-0.445017,-0.031438,-0.445008,-0.031465,-0.445008,-0.069577,-0.444978,-0.069601,-0.444978,-0.110339,-0.444927,-0.110351,-0.444927,-0.401004,-0.444493,-0.437044,-0.429502,-0.451927,-0.393801,-0.452313,-0.329868,-0.452698,-0.265935,
-0.437979,-0.229783,-0.401774,-0.214627,-0.095944,-0.214175,-0.095938,-0.214175,-0.089293,-0.214166,-0.054288,-0.214112,-0.022101,-0.214060,0.007393,-0.214008,0.034319,-0.213954,0.058796,-0.213898,0.080948,-0.213838,0.100900,-0.213773,0.118813,-0.213703,0.118813,-0.213704,0.134663,-0.213626,0.148803,-0.213539,0.161054,-0.213445,0.161054,-0.213444,0.171914,-0.213337,0.181122,-0.213221,
0.189019,-0.213091,0.195400,-0.212955,0.200901,-0.212800,0.205164,-0.212642,0.208444,-0.212480,0.210696,-0.212331,0.212095,-0.212207,0.212738,-0.212132,0.221416,-0.210079,0.226399,-0.208362,0.227727,-0.207671,0.227851,-0.206405,0.228208,-0.199957,0.228492,-0.190742,0.228702,-0.178903,0.228876,-0.163918,0.228895,-0.161973,0.228896,-0.161973,0.229015,-0.147395,0.229034,-0.135545,
0.228930,-0.126325,0.228705,-0.119716,0.228400,-0.115472,0.228139,-0.113460,0.228099,-0.113272,0.227949,-0.112903,0.227730,-0.112444,0.225207,-0.111259,0.216700,-0.108544,0.212056,-0.107299,-0.364086,-0.105767,-0.400108,-0.090733,-0.414949,-0.055074,-0.415719,0.072780,-0.400999,0.108932,-0.364811,0.124087,-0.078950,0.124598,-0.078948,0.124598,-0.050884,0.124647,-0.050882,0.124647,
-0.018505,0.124702,0.011142,0.124755,0.038186,0.124808,0.062752,0.124865,0.084972,0.124930,0.105029,0.125005,0.105029,0.125004,0.122859,0.125094,0.138857,0.125202,0.152994,0.125330,0.165192,0.125479,0.176023,0.125659,0.185126,0.125863,0.192981,0.126100,0.199460,0.126364,0.204653,0.126647,0.208716,0.126944,0.211701,0.127234,0.213656,0.127486,0.214874,0.127689,
0.215503,0.127822,0.216041,0.127960,0.216884,0.128212,0.218378,0.128701,0.220701,0.129489,0.220874,0.129547,0.223626,0.130470,0.224225,0.130672,0.233432,0.134434,0.237512,0.136840,0.238584,0.137786,0.238635,0.137857,0.239137,0.139043,0.240162,0.143836,0.240297,0.145633,0.240563,0.152791,0.240754,0.163418,0.240838,0.176912,0.240807,0.193328,0.240659,0.211953,
0.240543,0.222658,0.240349,0.237579,0.240125,0.249532,0.239837,0.259248,0.239482,0.266545,0.239077,0.271656,0.238702,0.274631,0.238455,0.275915,0.238369,0.276227,0.238221,0.276628,0.237537,0.278165,0.236930,0.279397,0.235344,0.281779,0.234335,0.282769,0.231180,0.284860,0.224515,0.287922,0.212837,0.291722,0.205955,0.293620,-0.094127,0.294344,-0.401051,0.295083,
-0.437077,0.310108,-0.451927,0.345775,-0.452313,0.409749,-0.452698,0.473722,-0.437978,0.509874,-0.401699,0.525030,-0.095048,0.525030,-0.066904,0.525026,-0.066904,0.525026,$1*%
G04 Aperture macros list end*
%ADD10C,3.602001*%
%ADD11C,0.752000*%
%ADD12O,1.202000X2.302000*%
%ADD13O,1.402000X2.002000*%
%ADD14FreePoly0,180.000000*%
%ADD15FreePoly1,180.000000*%
%ADD16FreePoly2,180.000000*%
%ADD17FreePoly3,180.000000*%
%ADD18FreePoly4,180.000000*%
%ADD19FreePoly5,180.000000*%
%ADD20FreePoly6,180.000000*%
%ADD21FreePoly7,180.000000*%
%ADD22FreePoly8,180.000000*%
G04 APERTURE END LIST*
%LPC*%
G36*
X72510520Y-62537759D02*
G01*
X72512022Y-62541881D01*
X72514633Y-62549461D01*
X72518300Y-62560334D01*
X72522968Y-62574337D01*
X72528586Y-62591307D01*
X72535098Y-62611080D01*
X72542452Y-62633493D01*
X72550594Y-62658382D01*
X72559472Y-62685583D01*
X72569031Y-62714934D01*
X72579218Y-62746271D01*
X72589980Y-62779431D01*
X72601264Y-62814249D01*
X72613016Y-62850562D01*
X72625182Y-62888208D01*
X72637710Y-62927022D01*
X72650546Y-62966841D01*
X72789502Y-63398193D01*
X73244050Y-63396860D01*
X73275620Y-63396771D01*
X73322564Y-63396651D01*
X73367285Y-63396551D01*
X73409670Y-63396473D01*
X73449606Y-63396416D01*
X73486979Y-63396379D01*
X73521676Y-63396363D01*
X73553585Y-63396368D01*
X73582593Y-63396393D01*
X73608586Y-63396438D01*
X73631452Y-63396504D01*
X73651077Y-63396589D01*
X73667349Y-63396695D01*
X73680155Y-63396820D01*
X73689381Y-63396966D01*
X73694914Y-63397131D01*
X73696642Y-63397315D01*
X73695938Y-63397845D01*
X73692312Y-63400500D01*
X73685737Y-63405284D01*
X73676355Y-63412096D01*
X73664306Y-63420833D01*
X73649732Y-63431393D01*
X73632775Y-63443675D01*
X73613575Y-63457575D01*
X73592273Y-63472993D01*
X73569010Y-63489825D01*
X73543929Y-63507969D01*
X73517170Y-63527324D01*
X73488873Y-63547787D01*
X73459182Y-63569256D01*
X73428235Y-63591628D01*
X73396176Y-63614803D01*
X73363144Y-63638676D01*
X73329282Y-63663147D01*
X73308209Y-63678375D01*
X73274868Y-63702469D01*
X73242454Y-63725894D01*
X73211107Y-63748549D01*
X73180968Y-63770332D01*
X73152177Y-63791142D01*
X73124876Y-63810877D01*
X73099204Y-63829434D01*
X73075303Y-63846714D01*
X73053312Y-63862613D01*
X73033373Y-63877030D01*
X73015626Y-63889865D01*
X73000212Y-63901014D01*
X72987271Y-63910376D01*
X72976943Y-63917850D01*
X72969371Y-63923334D01*
X72964693Y-63926727D01*
X72963051Y-63927926D01*
X72963046Y-63927949D01*
X72963408Y-63929382D01*
X72964516Y-63933071D01*
X72966388Y-63939078D01*
X72969047Y-63947468D01*
X72972512Y-63958305D01*
X72976806Y-63971651D01*
X72981947Y-63987572D01*
X72987959Y-64006131D01*
X72994860Y-64027392D01*
X73002672Y-64051418D01*
X73011416Y-64078274D01*
X73021113Y-64108022D01*
X73031783Y-64140728D01*
X73043448Y-64176455D01*
X73056127Y-64215266D01*
X73069842Y-64257225D01*
X73084614Y-64302397D01*
X73100463Y-64350845D01*
X73117411Y-64402633D01*
X73135478Y-64457825D01*
X73154684Y-64516484D01*
X73175051Y-64578674D01*
X73196600Y-64644460D01*
X73219351Y-64713904D01*
X73221991Y-64721988D01*
X73227147Y-64737927D01*
X73231776Y-64752444D01*
X73235761Y-64765158D01*
X73238984Y-64775686D01*
X73241326Y-64783643D01*
X73242670Y-64788647D01*
X73242898Y-64790316D01*
X73242225Y-64789861D01*
X73238656Y-64787316D01*
X73232149Y-64782623D01*
X73222844Y-64775887D01*
X73210882Y-64767209D01*
X73196403Y-64756691D01*
X73179547Y-64744436D01*
X73160456Y-64730547D01*
X73139270Y-64715125D01*
X73116129Y-64698273D01*
X73091175Y-64680093D01*
X73064546Y-64660688D01*
X73036386Y-64640160D01*
X73006833Y-64618611D01*
X72976028Y-64596144D01*
X72944112Y-64572862D01*
X72911226Y-64548865D01*
X72877510Y-64524258D01*
X72857020Y-64509304D01*
X72823779Y-64485051D01*
X72791449Y-64461472D01*
X72760169Y-64438669D01*
X72730081Y-64416744D01*
X72701325Y-64395799D01*
X72674043Y-64375937D01*
X72648376Y-64357261D01*
X72624464Y-64339873D01*
X72602448Y-64323875D01*
X72582469Y-64309369D01*
X72564668Y-64296459D01*
X72549186Y-64285245D01*
X72536163Y-64275832D01*
X72525741Y-64268320D01*
X72518060Y-64262813D01*
X72513262Y-64259413D01*
X72511487Y-64258223D01*
X72510701Y-64258663D01*
X72506967Y-64261183D01*
X72500301Y-64265850D01*
X72490844Y-64272560D01*
X72478735Y-64281213D01*
X72464115Y-64291706D01*
X72447126Y-64303939D01*
X72427906Y-64317808D01*
X72406597Y-64333213D01*
X72383340Y-64350052D01*
X72358275Y-64368224D01*
X72331542Y-64387625D01*
X72303282Y-64408156D01*
X72273635Y-64429713D01*
X72242743Y-64452196D01*
X72210745Y-64475502D01*
X72177782Y-64499530D01*
X72143995Y-64524179D01*
X72121997Y-64540231D01*
X72088755Y-64564479D01*
X72056441Y-64588040D01*
X72025195Y-64610814D01*
X71995157Y-64632697D01*
X71966465Y-64653589D01*
X71939261Y-64673388D01*
X71913683Y-64691993D01*
X71889872Y-64709301D01*
X71867967Y-64725212D01*
X71848109Y-64739624D01*
X71830436Y-64752435D01*
X71815088Y-64763544D01*
X71802206Y-64772849D01*
X71791929Y-64780249D01*
X71784397Y-64785642D01*
X71779750Y-64788926D01*
X71778126Y-64790001D01*
X71778244Y-64789545D01*
X71779361Y-64785937D01*
X71781599Y-64778905D01*
X71784892Y-64768648D01*
X71789176Y-64755369D01*
X71794385Y-64739268D01*
X71800452Y-64720548D01*
X71807312Y-64699409D01*
X71814899Y-64676053D01*
X71823149Y-64650681D01*
X71831994Y-64623495D01*
X71841369Y-64594695D01*
X71851209Y-64564484D01*
X71861448Y-64533062D01*
X71872020Y-64500631D01*
X71882860Y-64467392D01*
X71893901Y-64433547D01*
X71905078Y-64399297D01*
X71916326Y-64364843D01*
X71927578Y-64330387D01*
X71938769Y-64296129D01*
X71949834Y-64262272D01*
X71960706Y-64229017D01*
X71971319Y-64196565D01*
X71981609Y-64165117D01*
X71991510Y-64134875D01*
X72000955Y-64106040D01*
X72009879Y-64078813D01*
X72018216Y-64053396D01*
X72025901Y-64029991D01*
X72032868Y-64008797D01*
X72039051Y-63990018D01*
X72044384Y-63973854D01*
X72048803Y-63960506D01*
X72059356Y-63928696D01*
X71695580Y-63665825D01*
X71676478Y-63652020D01*
X71643102Y-63627895D01*
X71610622Y-63604409D01*
X71579181Y-63581667D01*
X71548921Y-63559773D01*
X71519984Y-63538829D01*
X71492514Y-63518939D01*
X71466653Y-63500206D01*
X71452500Y-63489000D01*
X71452500Y-63419000D01*
X71453743Y-63396124D01*
X71477416Y-63396147D01*
X71503830Y-63396188D01*
X71533132Y-63396247D01*
X71565469Y-63396323D01*
X71600988Y-63396415D01*
X71639837Y-63396524D01*
X71682163Y-63396646D01*
X71728113Y-63396783D01*
X71777835Y-63396934D01*
X72231703Y-63398310D01*
X72237907Y-63378890D01*
X72241505Y-63367638D01*
X72247677Y-63348373D01*
X72254632Y-63326694D01*
X72262308Y-63302800D01*
X72270640Y-63276890D01*
X72279564Y-63249160D01*
X72289017Y-63219810D01*
X72298933Y-63189037D01*
X72309248Y-63157040D01*
X72319900Y-63124017D01*
X72330823Y-63090166D01*
X72341954Y-63055685D01*
X72353228Y-63020772D01*
X72364582Y-62985625D01*
X72375951Y-62950443D01*
X72387271Y-62915424D01*
X72398478Y-62880766D01*
X72409509Y-62846667D01*
X72420298Y-62813325D01*
X72430782Y-62780938D01*
X72440898Y-62749705D01*
X72450580Y-62719824D01*
X72459764Y-62691492D01*
X72468387Y-62664909D01*
X72476385Y-62640271D01*
X72483693Y-62617778D01*
X72490248Y-62597628D01*
X72495985Y-62580018D01*
X72500839Y-62565147D01*
X72504749Y-62553212D01*
X72507648Y-62544413D01*
X72509473Y-62538947D01*
X72510159Y-62537013D01*
X72510520Y-62537759D01*
G37*
G36*
X76333398Y-69134905D02*
G01*
X76334845Y-69139174D01*
X76337405Y-69146902D01*
X76341025Y-69157923D01*
X76345651Y-69172073D01*
X76351229Y-69189188D01*
X76357706Y-69209101D01*
X76365029Y-69231647D01*
X76373144Y-69256663D01*
X76381997Y-69283981D01*
X76391535Y-69313439D01*
X76401704Y-69344869D01*
X76412452Y-69378108D01*
X76423723Y-69412990D01*
X76435466Y-69449350D01*
X76447626Y-69487023D01*
X76460150Y-69525845D01*
X76472984Y-69565649D01*
X76611674Y-69995894D01*
X77065429Y-69995114D01*
X77071446Y-69995103D01*
X77120892Y-69995020D01*
X77166581Y-69994947D01*
X77208659Y-69994886D01*
X77247271Y-69994835D01*
X77282562Y-69994798D01*
X77314677Y-69994773D01*
X77343763Y-69994763D01*
X77369963Y-69994768D01*
X77393423Y-69994788D01*
X77414288Y-69994824D01*
X77432704Y-69994878D01*
X77448815Y-69994949D01*
X77462767Y-69995039D01*
X77474706Y-69995148D01*
X77484775Y-69995278D01*
X77493121Y-69995428D01*
X77499889Y-69995601D01*
X77505223Y-69995795D01*
X77509270Y-69996013D01*
X77512174Y-69996255D01*
X77514080Y-69996521D01*
X77515134Y-69996813D01*
X77515481Y-69997131D01*
X77515266Y-69997476D01*
X77514632Y-69997950D01*
X77511081Y-70000546D01*
X77504572Y-70005281D01*
X77495248Y-70012050D01*
X77483252Y-70020750D01*
X77468727Y-70031278D01*
X77451816Y-70043530D01*
X77432662Y-70057403D01*
X77411406Y-70072794D01*
X77388193Y-70089598D01*
X77363164Y-70107714D01*
X77336464Y-70127038D01*
X77308233Y-70147465D01*
X77278615Y-70168893D01*
X77247754Y-70191219D01*
X77215791Y-70214339D01*
X77182870Y-70238149D01*
X77149133Y-70262547D01*
X77130832Y-70275782D01*
X77097567Y-70299853D01*
X77065218Y-70323276D01*
X77033926Y-70345948D01*
X77003833Y-70367767D01*
X76975079Y-70388629D01*
X76947806Y-70408432D01*
X76922156Y-70427073D01*
X76898270Y-70444449D01*
X76876288Y-70460456D01*
X76856353Y-70474993D01*
X76838606Y-70487957D01*
X76823187Y-70499243D01*
X76810239Y-70508751D01*
X76799903Y-70516376D01*
X76792319Y-70522015D01*
X76787630Y-70525567D01*
X76785977Y-70526927D01*
X76786154Y-70527776D01*
X76787398Y-70532062D01*
X76789777Y-70539803D01*
X76793238Y-70550834D01*
X76797728Y-70564989D01*
X76803192Y-70582102D01*
X76809578Y-70602009D01*
X76816831Y-70624543D01*
X76824899Y-70649539D01*
X76833728Y-70676832D01*
X76843264Y-70706256D01*
X76853454Y-70737646D01*
X76864245Y-70770836D01*
X76875582Y-70805660D01*
X76887412Y-70841954D01*
X76899683Y-70879551D01*
X76912340Y-70918286D01*
X76925329Y-70957993D01*
X76933443Y-70982784D01*
X76946239Y-71021892D01*
X76958677Y-71059917D01*
X76970702Y-71096694D01*
X76982261Y-71132058D01*
X76993300Y-71165844D01*
X77003766Y-71197887D01*
X77013603Y-71228022D01*
X77022760Y-71256084D01*
X77031181Y-71281907D01*
X77038813Y-71305327D01*
X77045602Y-71326179D01*
X77051494Y-71344297D01*
X77056435Y-71359517D01*
X77060372Y-71371673D01*
X77063251Y-71380601D01*
X77065018Y-71386135D01*
X77065618Y-71388110D01*
X77065517Y-71388183D01*
X77063331Y-71387119D01*
X77058725Y-71384187D01*
X77052274Y-71379765D01*
X77044551Y-71374230D01*
X77044445Y-71374153D01*
X77040696Y-71371416D01*
X77033945Y-71366487D01*
X77024347Y-71359482D01*
X77012058Y-71350511D01*
X76997232Y-71339690D01*
X76980026Y-71327131D01*
X76960594Y-71312947D01*
X76939091Y-71297252D01*
X76915673Y-71280160D01*
X76890496Y-71261784D01*
X76863714Y-71242236D01*
X76835483Y-71221631D01*
X76805958Y-71200081D01*
X76775294Y-71177701D01*
X76743647Y-71154603D01*
X76711173Y-71130901D01*
X76678025Y-71106708D01*
X76332561Y-70854567D01*
X75967789Y-71120723D01*
X75946508Y-71136249D01*
X75913231Y-71160527D01*
X75880867Y-71184136D01*
X75849557Y-71206973D01*
X75819441Y-71228936D01*
X75790662Y-71249923D01*
X75763358Y-71269830D01*
X75737672Y-71288555D01*
X75713743Y-71305996D01*
X75691714Y-71322049D01*
X75671723Y-71336614D01*
X75653912Y-71349586D01*
X75638422Y-71360863D01*
X75625394Y-71370343D01*
X75614967Y-71377924D01*
X75607284Y-71383502D01*
X75602485Y-71386975D01*
X75600710Y-71388240D01*
X75600562Y-71388225D01*
X75600760Y-71385994D01*
X75602042Y-71380718D01*
X75604260Y-71372921D01*
X75607269Y-71363127D01*
X75610920Y-71351858D01*
X75611357Y-71350539D01*
X75614865Y-71339927D01*
X75619349Y-71326320D01*
X75624743Y-71309921D01*
X75630981Y-71290933D01*
X75637995Y-71269560D01*
X75645720Y-71246006D01*
X75654088Y-71220474D01*
X75663034Y-71193168D01*
X75672491Y-71164292D01*
X75682391Y-71134050D01*
X75692670Y-71102644D01*
X75703259Y-71070278D01*
X75714093Y-71037157D01*
X75725105Y-71003484D01*
X75736228Y-70969462D01*
X75747397Y-70935295D01*
X75758544Y-70901187D01*
X75769602Y-70867341D01*
X75780506Y-70833961D01*
X75791189Y-70801250D01*
X75801584Y-70769413D01*
X75811624Y-70738652D01*
X75821244Y-70709172D01*
X75830376Y-70681176D01*
X75838955Y-70654868D01*
X75846913Y-70630451D01*
X75854183Y-70608129D01*
X75860701Y-70588106D01*
X75866398Y-70570585D01*
X75871209Y-70555770D01*
X75875066Y-70543864D01*
X75877904Y-70535071D01*
X75879655Y-70529595D01*
X75880254Y-70527640D01*
X75879597Y-70527066D01*
X75876053Y-70524354D01*
X75869564Y-70519515D01*
X75860267Y-70512653D01*
X75848305Y-70503867D01*
X75833816Y-70493261D01*
X75816941Y-70480937D01*
X75797820Y-70466995D01*
X75776593Y-70451538D01*
X75753399Y-70434669D01*
X75728379Y-70416488D01*
X75701673Y-70397097D01*
X75673421Y-70376599D01*
X75643763Y-70355096D01*
X75612839Y-70332689D01*
X75580788Y-70309479D01*
X75547752Y-70285570D01*
X75513870Y-70261063D01*
X75491839Y-70245131D01*
X75458491Y-70221007D01*
X75426080Y-70197552D01*
X75394745Y-70174867D01*
X75364627Y-70153054D01*
X75335866Y-70132214D01*
X75308600Y-70112450D01*
X75282971Y-70093862D01*
X75259119Y-70076553D01*
X75237183Y-70060624D01*
X75217304Y-70046176D01*
X75199620Y-70033312D01*
X75184274Y-70022132D01*
X75171403Y-70012740D01*
X75161149Y-70005235D01*
X75153652Y-69999720D01*
X75149051Y-69996297D01*
X75147486Y-69995067D01*
X75148354Y-69995002D01*
X75152809Y-69994913D01*
X75160895Y-69994833D01*
X75172439Y-69994761D01*
X75187268Y-69994698D01*
X75205211Y-69994645D01*
X75226095Y-69994601D01*
X75249747Y-69994566D01*
X75275994Y-69994541D01*
X75304665Y-69994526D01*
X75335586Y-69994520D01*
X75368586Y-69994524D01*
X75403492Y-69994538D01*
X75440130Y-69994562D01*
X75478330Y-69994597D01*
X75517917Y-69994642D01*
X75558721Y-69994697D01*
X75600568Y-69994763D01*
X76053649Y-69995524D01*
X76192757Y-69564125D01*
X76201480Y-69537085D01*
X76214124Y-69497925D01*
X76226422Y-69459878D01*
X76238320Y-69423109D01*
X76249766Y-69387782D01*
X76260705Y-69354059D01*
X76271085Y-69322104D01*
X76280852Y-69292080D01*
X76289953Y-69264152D01*
X76298335Y-69238483D01*
X76305943Y-69215236D01*
X76312726Y-69194575D01*
X76318628Y-69176663D01*
X76323598Y-69161664D01*
X76327581Y-69149741D01*
X76330525Y-69141058D01*
X76332376Y-69135778D01*
X76333080Y-69134065D01*
X76333398Y-69134905D01*
G37*
G36*
X77488028Y-62527923D02*
G01*
X77488268Y-62528373D01*
X77488658Y-62529318D01*
X77489246Y-62530896D01*
X77490075Y-62533250D01*
X77491192Y-62536520D01*
X77492643Y-62540847D01*
X77494474Y-62546370D01*
X77496729Y-62553232D01*
X77499455Y-62561572D01*
X77502698Y-62571532D01*
X77506502Y-62583252D01*
X77510915Y-62596872D01*
X77515981Y-62612534D01*
X77521747Y-62630378D01*
X77528258Y-62650544D01*
X77535559Y-62673174D01*
X77543697Y-62698408D01*
X77552717Y-62726387D01*
X77562664Y-62757251D01*
X77573586Y-62791142D01*
X77585527Y-62828199D01*
X77598532Y-62868564D01*
X77612649Y-62912377D01*
X77627922Y-62959779D01*
X77638362Y-62992183D01*
X77650512Y-63029886D01*
X77662339Y-63066585D01*
X77673785Y-63102098D01*
X77684791Y-63136244D01*
X77695298Y-63168841D01*
X77705249Y-63199707D01*
X77714584Y-63228660D01*
X77723246Y-63255519D01*
X77731174Y-63280101D01*
X77738311Y-63302226D01*
X77744598Y-63321711D01*
X77749977Y-63338376D01*
X77754389Y-63352037D01*
X77757774Y-63362513D01*
X77760076Y-63369623D01*
X77761235Y-63373186D01*
X77767029Y-63390819D01*
X78221092Y-63390146D01*
X78250184Y-63390105D01*
X78291354Y-63390053D01*
X78331354Y-63390009D01*
X78370013Y-63389975D01*
X78407158Y-63389948D01*
X78442619Y-63389931D01*
X78476222Y-63389921D01*
X78507797Y-63389920D01*
X78537172Y-63389927D01*
X78542500Y-63389943D01*
X78542500Y-63479000D01*
X78547217Y-63482222D01*
X78522193Y-63500314D01*
X78495486Y-63519621D01*
X78467237Y-63540040D01*
X78437588Y-63561472D01*
X78406678Y-63583812D01*
X78374648Y-63606961D01*
X78341639Y-63630815D01*
X78307791Y-63655275D01*
X78286834Y-63670419D01*
X78253477Y-63694525D01*
X78221043Y-63717967D01*
X78189671Y-63740643D01*
X78159503Y-63762451D01*
X78130679Y-63783290D01*
X78103340Y-63803057D01*
X78077628Y-63821650D01*
X78053684Y-63838967D01*
X78031647Y-63854907D01*
X78011659Y-63869368D01*
X77993862Y-63882248D01*
X77978395Y-63893444D01*
X77965400Y-63902855D01*
X77955018Y-63910379D01*
X77947389Y-63915914D01*
X77942655Y-63919358D01*
X77940956Y-63920609D01*
X77941090Y-63921329D01*
X77942257Y-63925412D01*
X77944561Y-63932956D01*
X77947949Y-63943794D01*
X77952368Y-63957762D01*
X77957763Y-63974694D01*
X77964082Y-63994425D01*
X77971272Y-64016790D01*
X77979279Y-64041624D01*
X77988049Y-64068761D01*
X77997530Y-64098037D01*
X78007668Y-64129286D01*
X78018409Y-64162343D01*
X78029700Y-64197042D01*
X78041489Y-64233219D01*
X78053721Y-64270708D01*
X78066343Y-64309344D01*
X78079302Y-64348962D01*
X78086789Y-64371838D01*
X78099601Y-64410986D01*
X78112069Y-64449083D01*
X78124138Y-64485963D01*
X78135754Y-64521459D01*
X78146861Y-64555403D01*
X78157405Y-64587628D01*
X78167332Y-64617967D01*
X78176586Y-64646253D01*
X78185114Y-64672320D01*
X78192860Y-64695999D01*
X78199769Y-64717123D01*
X78205788Y-64735527D01*
X78210860Y-64751041D01*
X78214933Y-64763500D01*
X78217950Y-64772737D01*
X78219858Y-64778583D01*
X78220602Y-64780872D01*
X78222127Y-64785720D01*
X78215487Y-64780731D01*
X78214148Y-64779739D01*
X78209620Y-64776415D01*
X78202258Y-64771024D01*
X78192233Y-64763694D01*
X78179716Y-64754548D01*
X78164880Y-64743711D01*
X78147896Y-64731309D01*
X78128934Y-64717467D01*
X78108167Y-64702309D01*
X78085766Y-64685960D01*
X78061902Y-64668547D01*
X78036747Y-64650193D01*
X78010472Y-64631023D01*
X77983248Y-64611163D01*
X77955247Y-64590738D01*
X77926641Y-64569873D01*
X77897600Y-64548692D01*
X77868297Y-64527320D01*
X77838902Y-64505883D01*
X77809587Y-64484506D01*
X77780524Y-64463314D01*
X77751883Y-64442431D01*
X77723836Y-64421983D01*
X77696556Y-64402095D01*
X77670212Y-64382891D01*
X77644977Y-64364497D01*
X77621021Y-64347037D01*
X77598517Y-64330637D01*
X77577636Y-64315422D01*
X77558549Y-64301517D01*
X77541427Y-64289046D01*
X77526443Y-64278135D01*
X77513766Y-64268909D01*
X77503570Y-64261493D01*
X77496025Y-64256011D01*
X77491302Y-64252589D01*
X77489573Y-64251351D01*
X77488737Y-64251783D01*
X77484938Y-64254293D01*
X77478211Y-64258948D01*
X77468696Y-64265647D01*
X77456532Y-64274288D01*
X77441861Y-64284769D01*
X77424822Y-64296991D01*
X77405556Y-64310851D01*
X77384202Y-64326248D01*
X77360902Y-64343081D01*
X77335795Y-64361249D01*
X77309021Y-64380651D01*
X77280721Y-64401184D01*
X77251035Y-64422749D01*
X77220104Y-64445244D01*
X77188067Y-64468567D01*
X77155064Y-64492617D01*
X77121237Y-64517293D01*
X77098403Y-64533957D01*
X77065140Y-64558226D01*
X77032810Y-64581809D01*
X77001552Y-64604604D01*
X76971507Y-64626509D01*
X76942813Y-64647423D01*
X76915610Y-64667244D01*
X76890038Y-64685871D01*
X76866236Y-64703202D01*
X76844343Y-64719136D01*
X76824499Y-64733570D01*
X76806843Y-64746405D01*
X76791515Y-64757537D01*
X76778654Y-64766867D01*
X76768400Y-64774291D01*
X76760892Y-64779709D01*
X76756270Y-64783019D01*
X76754673Y-64784119D01*
X76754920Y-64783261D01*
X76756274Y-64778977D01*
X76758757Y-64771244D01*
X76762318Y-64760226D01*
X76766902Y-64746087D01*
X76772457Y-64728990D01*
X76778927Y-64709100D01*
X76786261Y-64686582D01*
X76794405Y-64661598D01*
X76803304Y-64634314D01*
X76812906Y-64604892D01*
X76823157Y-64573498D01*
X76834004Y-64540296D01*
X76845392Y-64505449D01*
X76857270Y-64469121D01*
X76869582Y-64431477D01*
X76882275Y-64392681D01*
X76895297Y-64352896D01*
X76904049Y-64326150D01*
X76916847Y-64286993D01*
X76929273Y-64248928D01*
X76941273Y-64212117D01*
X76952794Y-64176726D01*
X76963782Y-64142919D01*
X76974186Y-64110860D01*
X76983951Y-64080715D01*
X76993024Y-64052648D01*
X77001353Y-64026822D01*
X77008884Y-64003404D01*
X77015565Y-63982556D01*
X77021341Y-63964445D01*
X77026161Y-63949234D01*
X77029970Y-63937087D01*
X77032716Y-63928170D01*
X77034346Y-63922647D01*
X77034806Y-63920682D01*
X77034421Y-63920391D01*
X77031328Y-63918127D01*
X77025266Y-63913718D01*
X77016376Y-63907266D01*
X77004801Y-63898873D01*
X76990684Y-63888644D01*
X76974166Y-63876681D01*
X76955390Y-63863086D01*
X76934498Y-63847964D01*
X76911633Y-63831417D01*
X76886936Y-63813547D01*
X76860551Y-63794458D01*
X76832619Y-63774254D01*
X76803282Y-63753036D01*
X76772684Y-63730908D01*
X76740965Y-63707973D01*
X76708269Y-63684333D01*
X76674738Y-63660092D01*
X76660626Y-63649891D01*
X76627314Y-63625809D01*
X76594846Y-63602338D01*
X76563371Y-63579584D01*
X76533032Y-63557651D01*
X76503976Y-63536645D01*
X76476348Y-63516671D01*
X76450294Y-63497835D01*
X76425960Y-63480242D01*
X76403490Y-63463996D01*
X76383032Y-63449204D01*
X76364729Y-63435971D01*
X76348729Y-63424402D01*
X76335177Y-63414601D01*
X76324217Y-63406676D01*
X76315997Y-63400730D01*
X76310660Y-63396869D01*
X76308354Y-63395198D01*
X76300517Y-63389494D01*
X76754662Y-63390157D01*
X77208807Y-63390819D01*
X77227237Y-63334000D01*
X77227590Y-63332913D01*
X77230266Y-63324649D01*
X77234063Y-63312907D01*
X77238912Y-63297901D01*
X77244745Y-63279845D01*
X77251492Y-63258952D01*
X77259085Y-63235437D01*
X77267454Y-63209513D01*
X77276531Y-63181393D01*
X77286245Y-63151292D01*
X77296530Y-63119423D01*
X77307314Y-63086000D01*
X77318530Y-63051237D01*
X77330109Y-63015347D01*
X77341981Y-62978545D01*
X77354077Y-62941043D01*
X77366329Y-62903056D01*
X77371791Y-62886124D01*
X77383614Y-62849477D01*
X77395094Y-62813910D01*
X77406174Y-62779599D01*
X77416795Y-62746720D01*
X77426901Y-62715450D01*
X77436435Y-62685965D01*
X77445339Y-62658444D01*
X77453556Y-62633061D01*
X77461029Y-62609995D01*
X77467701Y-62589421D01*
X77473514Y-62571517D01*
X77478412Y-62556459D01*
X77482337Y-62544424D01*
X77485231Y-62535588D01*
X77487038Y-62530128D01*
X77487701Y-62528222D01*
X77487756Y-62528128D01*
X77487817Y-62527941D01*
X77487893Y-62527826D01*
X77488028Y-62527923D01*
G37*
G36*
X78358834Y-67430183D02*
G01*
X78360318Y-67434298D01*
X78362913Y-67441871D01*
X78366567Y-67452736D01*
X78371224Y-67466732D01*
X78376832Y-67483694D01*
X78383338Y-67503459D01*
X78390687Y-67525864D01*
X78398827Y-67550744D01*
X78407704Y-67577937D01*
X78417265Y-67607278D01*
X78427456Y-67638604D01*
X78438224Y-67671752D01*
X78449515Y-67706559D01*
X78461276Y-67742860D01*
X78473454Y-67780491D01*
X78485994Y-67819291D01*
X78498845Y-67859094D01*
X78637929Y-68290142D01*
X79091431Y-68290032D01*
X79135594Y-68290028D01*
X79180120Y-68290038D01*
X79222726Y-68290063D01*
X79263279Y-68290103D01*
X79301647Y-68290155D01*
X79337695Y-68290221D01*
X79371291Y-68290299D01*
X79402301Y-68290390D01*
X79430592Y-68290492D01*
X79456031Y-68290605D01*
X79478484Y-68290729D01*
X79497819Y-68290864D01*
X79513901Y-68291007D01*
X79526598Y-68291161D01*
X79535776Y-68291322D01*
X79541302Y-68291493D01*
X79543043Y-68291670D01*
X79542528Y-68292061D01*
X79539196Y-68294503D01*
X79532903Y-68299083D01*
X79523791Y-68305699D01*
X79512001Y-68314247D01*
X79497675Y-68324626D01*
X79480956Y-68336732D01*
X79461985Y-68350462D01*
X79440905Y-68365715D01*
X79417857Y-68382387D01*
X79392983Y-68400376D01*
X79366425Y-68419579D01*
X79338325Y-68439893D01*
X79308826Y-68461216D01*
X79278068Y-68483445D01*
X79246195Y-68506477D01*
X79213347Y-68530209D01*
X79179667Y-68554540D01*
X79162484Y-68566953D01*
X79129173Y-68591022D01*
X79096753Y-68614454D01*
X79065366Y-68637146D01*
X79035155Y-68658994D01*
X79006264Y-68679894D01*
X78978835Y-68699743D01*
X78953011Y-68718438D01*
X78928935Y-68735874D01*
X78906750Y-68751949D01*
X78886599Y-68766559D01*
X78868624Y-68779600D01*
X78852970Y-68790968D01*
X78839778Y-68800561D01*
X78829191Y-68808274D01*
X78821353Y-68814005D01*
X78816407Y-68817649D01*
X78814495Y-68819103D01*
X78814266Y-68819345D01*
X78813944Y-68819906D01*
X78813759Y-68820767D01*
X78813756Y-68822069D01*
X78813981Y-68823956D01*
X78814479Y-68826570D01*
X78815294Y-68830055D01*
X78816472Y-68834552D01*
X78818058Y-68840204D01*
X78820098Y-68847154D01*
X78822635Y-68855545D01*
X78825715Y-68865520D01*
X78829384Y-68877220D01*
X78833687Y-68890790D01*
X78838668Y-68906371D01*
X78844373Y-68924106D01*
X78850847Y-68944137D01*
X78858134Y-68966609D01*
X78866281Y-68991663D01*
X78875332Y-69019441D01*
X78885333Y-69050088D01*
X78896328Y-69083744D01*
X78908362Y-69120554D01*
X78921481Y-69160659D01*
X78935730Y-69204203D01*
X78951154Y-69251328D01*
X78959316Y-69276266D01*
X78972113Y-69315378D01*
X78984551Y-69353405D01*
X78996578Y-69390184D01*
X79008137Y-69425549D01*
X79019177Y-69459335D01*
X79029643Y-69491377D01*
X79039482Y-69521511D01*
X79048639Y-69549571D01*
X79057060Y-69575392D01*
X79064692Y-69598810D01*
X79071482Y-69619658D01*
X79077374Y-69637773D01*
X79082316Y-69652989D01*
X79086253Y-69665141D01*
X79089132Y-69674065D01*
X79090899Y-69679594D01*
X79091500Y-69681565D01*
X79091500Y-69681579D01*
X79090626Y-69683021D01*
X79090193Y-69682734D01*
X79087023Y-69680480D01*
X79080900Y-69676068D01*
X79071965Y-69669603D01*
X79060359Y-69661186D01*
X79046223Y-69650921D01*
X79029698Y-69638909D01*
X79010925Y-69625255D01*
X78990046Y-69610060D01*
X78967201Y-69593427D01*
X78942532Y-69575459D01*
X78916179Y-69556258D01*
X78888284Y-69535928D01*
X78858987Y-69514571D01*
X78828431Y-69492290D01*
X78796755Y-69469186D01*
X78764101Y-69445364D01*
X78730610Y-69420926D01*
X78714787Y-69409379D01*
X78681567Y-69385137D01*
X78649208Y-69361525D01*
X78617854Y-69338647D01*
X78587650Y-69316609D01*
X78558739Y-69295516D01*
X78531265Y-69275473D01*
X78505372Y-69256584D01*
X78481204Y-69238956D01*
X78458905Y-69222692D01*
X78438620Y-69207898D01*
X78420492Y-69194679D01*
X78404664Y-69183141D01*
X78391283Y-69173387D01*
X78380490Y-69165523D01*
X78372430Y-69159654D01*
X78367248Y-69155885D01*
X78365086Y-69154322D01*
X78358705Y-69149812D01*
X77993163Y-69416591D01*
X77970862Y-69432864D01*
X77937609Y-69457118D01*
X77905284Y-69480684D01*
X77874027Y-69503459D01*
X77843977Y-69525343D01*
X77815274Y-69546233D01*
X77788058Y-69566029D01*
X77762469Y-69584629D01*
X77738646Y-69601932D01*
X77716729Y-69617836D01*
X77696857Y-69632239D01*
X77679172Y-69645041D01*
X77663812Y-69656139D01*
X77650917Y-69665433D01*
X77640627Y-69672821D01*
X77633081Y-69678201D01*
X77628420Y-69681472D01*
X77626783Y-69682533D01*
X77626872Y-69682165D01*
X77627919Y-69678734D01*
X77630092Y-69671866D01*
X77633326Y-69661759D01*
X77637554Y-69648614D01*
X77642712Y-69632631D01*
X77648734Y-69614010D01*
X77655557Y-69592949D01*
X77663113Y-69569650D01*
X77671338Y-69544313D01*
X77680168Y-69517137D01*
X77689536Y-69488321D01*
X77699378Y-69458067D01*
X77709628Y-69426574D01*
X77720222Y-69394041D01*
X77731093Y-69360669D01*
X77742178Y-69326658D01*
X77753410Y-69292207D01*
X77764725Y-69257517D01*
X77776057Y-69222787D01*
X77787342Y-69188218D01*
X77798513Y-69154008D01*
X77809507Y-69120359D01*
X77820257Y-69087470D01*
X77830698Y-69055540D01*
X77840766Y-69024771D01*
X77850396Y-68995361D01*
X77859521Y-68967510D01*
X77868077Y-68941420D01*
X77875999Y-68917288D01*
X77883221Y-68895316D01*
X77889679Y-68875704D01*
X77895306Y-68858650D01*
X77900039Y-68844356D01*
X77907548Y-68821727D01*
X77543187Y-68558302D01*
X77523355Y-68543963D01*
X77489989Y-68519840D01*
X77457527Y-68496369D01*
X77426111Y-68473654D01*
X77395883Y-68451797D01*
X77366985Y-68430901D01*
X77339558Y-68411068D01*
X77313745Y-68392402D01*
X77289688Y-68375005D01*
X77267528Y-68358979D01*
X77247409Y-68344427D01*
X77229471Y-68331453D01*
X77213857Y-68320158D01*
X77200708Y-68310646D01*
X77190167Y-68303018D01*
X77182376Y-68297378D01*
X77177476Y-68293829D01*
X77175610Y-68292472D01*
X77175574Y-68292437D01*
X77176121Y-68292166D01*
X77178240Y-68291916D01*
X77182053Y-68291684D01*
X77187684Y-68291472D01*
X77195256Y-68291277D01*
X77204894Y-68291100D01*
X77216720Y-68290940D01*
X77230859Y-68290796D01*
X77247433Y-68290667D01*
X77266567Y-68290553D01*
X77288384Y-68290453D01*
X77313007Y-68290367D01*
X77340561Y-68290293D01*
X77371167Y-68290232D01*
X77404952Y-68290182D01*
X77442037Y-68290142D01*
X77482546Y-68290113D01*
X77526603Y-68290094D01*
X77574331Y-68290083D01*
X77625855Y-68290081D01*
X77660451Y-68290080D01*
X77709150Y-68290073D01*
X77754149Y-68290058D01*
X77795578Y-68290034D01*
X77833569Y-68290001D01*
X77868253Y-68289957D01*
X77899760Y-68289902D01*
X77928221Y-68289836D01*
X77953768Y-68289758D01*
X77976531Y-68289666D01*
X77996642Y-68289560D01*
X78014230Y-68289440D01*
X78029428Y-68289305D01*
X78042366Y-68289153D01*
X78053175Y-68288985D01*
X78061985Y-68288800D01*
X78068929Y-68288597D01*
X78074136Y-68288374D01*
X78077739Y-68288132D01*
X78079867Y-68287870D01*
X78080651Y-68287587D01*
X78080918Y-68286847D01*
X78082297Y-68282716D01*
X78084792Y-68275117D01*
X78088350Y-68264215D01*
X78092917Y-68250177D01*
X78098438Y-68233169D01*
X78104861Y-68213358D01*
X78112131Y-68190909D01*
X78120194Y-68165989D01*
X78128997Y-68138765D01*
X78138486Y-68109403D01*
X78148608Y-68078068D01*
X78159307Y-68044928D01*
X78170532Y-68010148D01*
X78182227Y-67973895D01*
X78194339Y-67936335D01*
X78206815Y-67897634D01*
X78219600Y-67857959D01*
X78227004Y-67834983D01*
X78239613Y-67795870D01*
X78251882Y-67757835D01*
X78263756Y-67721045D01*
X78275182Y-67685665D01*
X78286105Y-67651860D01*
X78296474Y-67619797D01*
X78306232Y-67589642D01*
X78315328Y-67561559D01*
X78323707Y-67535715D01*
X78331315Y-67512275D01*
X78338099Y-67491406D01*
X78344006Y-67473272D01*
X78348980Y-67458040D01*
X78352969Y-67445875D01*
X78355919Y-67436943D01*
X78357776Y-67431410D01*
X78358487Y-67429442D01*
X78358834Y-67430183D01*
G37*
G36*
X71653073Y-67438558D02*
G01*
X71654417Y-67441533D01*
X71656673Y-67447496D01*
X71659655Y-67455931D01*
X71663179Y-67466319D01*
X71667059Y-67478146D01*
X71668069Y-67481274D01*
X71670668Y-67489324D01*
X71674367Y-67500787D01*
X71679104Y-67515464D01*
X71684814Y-67533159D01*
X71691433Y-67553673D01*
X71698898Y-67576808D01*
X71707145Y-67602368D01*
X71716110Y-67630155D01*
X71725729Y-67659971D01*
X71735939Y-67691619D01*
X71746677Y-67724900D01*
X71757877Y-67759618D01*
X71769477Y-67795574D01*
X71781413Y-67832572D01*
X71793620Y-67870413D01*
X71806036Y-67908900D01*
X71931813Y-68298795D01*
X72385927Y-68298436D01*
X72408124Y-68298419D01*
X72457301Y-68298386D01*
X72502751Y-68298363D01*
X72544610Y-68298350D01*
X72583011Y-68298348D01*
X72618090Y-68298358D01*
X72649981Y-68298381D01*
X72678818Y-68298417D01*
X72704737Y-68298466D01*
X72727871Y-68298530D01*
X72748356Y-68298609D01*
X72766325Y-68298704D01*
X72781914Y-68298816D01*
X72795257Y-68298944D01*
X72806489Y-68299091D01*
X72815745Y-68299256D01*
X72823158Y-68299440D01*
X72828864Y-68299643D01*
X72832996Y-68299868D01*
X72835691Y-68300113D01*
X72837082Y-68300380D01*
X72837303Y-68300670D01*
X72836710Y-68301130D01*
X72833238Y-68303695D01*
X72826809Y-68308396D01*
X72817564Y-68315130D01*
X72805646Y-68323794D01*
X72791196Y-68334285D01*
X72774357Y-68346500D01*
X72755271Y-68360336D01*
X72734080Y-68375691D01*
X72710926Y-68392460D01*
X72685951Y-68410542D01*
X72659299Y-68429833D01*
X72631110Y-68450230D01*
X72601527Y-68471630D01*
X72570693Y-68493931D01*
X72538749Y-68517028D01*
X72505837Y-68540820D01*
X72472100Y-68565203D01*
X72453800Y-68578429D01*
X72420498Y-68602500D01*
X72388101Y-68625922D01*
X72356751Y-68648592D01*
X72326590Y-68670408D01*
X72297760Y-68691265D01*
X72270403Y-68711062D01*
X72244660Y-68729696D01*
X72220674Y-68747064D01*
X72198587Y-68763063D01*
X72178540Y-68777590D01*
X72160676Y-68790542D01*
X72145137Y-68801817D01*
X72132065Y-68811312D01*
X72121601Y-68818923D01*
X72113888Y-68824549D01*
X72109067Y-68828085D01*
X72107281Y-68829431D01*
X72107209Y-68829686D01*
X72107428Y-68831412D01*
X72108222Y-68834812D01*
X72109626Y-68839999D01*
X72111677Y-68847086D01*
X72114411Y-68856189D01*
X72117866Y-68867419D01*
X72122076Y-68880892D01*
X72127080Y-68896720D01*
X72132913Y-68915018D01*
X72139611Y-68935899D01*
X72147212Y-68959477D01*
X72155751Y-68985866D01*
X72165266Y-69015179D01*
X72175791Y-69047530D01*
X72187365Y-69083033D01*
X72200023Y-69121802D01*
X72213802Y-69163950D01*
X72228738Y-69209591D01*
X72244867Y-69258838D01*
X72252469Y-69282039D01*
X72265284Y-69321153D01*
X72277752Y-69359204D01*
X72289817Y-69396027D01*
X72301426Y-69431455D01*
X72312523Y-69465321D01*
X72323055Y-69497460D01*
X72332966Y-69527705D01*
X72342203Y-69555890D01*
X72350710Y-69581847D01*
X72358434Y-69605412D01*
X72365319Y-69626418D01*
X72371311Y-69644697D01*
X72376356Y-69660085D01*
X72380399Y-69672414D01*
X72383386Y-69681519D01*
X72385261Y-69687232D01*
X72385971Y-69689388D01*
X72386416Y-69691302D01*
X72385935Y-69692817D01*
X72385341Y-69692431D01*
X72381897Y-69689998D01*
X72375511Y-69685415D01*
X72366323Y-69678785D01*
X72354474Y-69670210D01*
X72340104Y-69659792D01*
X72323355Y-69647633D01*
X72304366Y-69633836D01*
X72283278Y-69618503D01*
X72260232Y-69601736D01*
X72235368Y-69583638D01*
X72208827Y-69564310D01*
X72180750Y-69543855D01*
X72151276Y-69522375D01*
X72120547Y-69499973D01*
X72088703Y-69476751D01*
X72055884Y-69452810D01*
X72022232Y-69428253D01*
X72003055Y-69414258D01*
X71969811Y-69389999D01*
X71937463Y-69366397D01*
X71906152Y-69343555D01*
X71876021Y-69321576D01*
X71847212Y-69300565D01*
X71819866Y-69280624D01*
X71794124Y-69261857D01*
X71770130Y-69244367D01*
X71748024Y-69228257D01*
X71727948Y-69213631D01*
X71710045Y-69200592D01*
X71694456Y-69189243D01*
X71681322Y-69179688D01*
X71670786Y-69172031D01*
X71662990Y-69166374D01*
X71658075Y-69162820D01*
X71656183Y-69161474D01*
X71655970Y-69161409D01*
X71654992Y-69161605D01*
X71653279Y-69162377D01*
X71650717Y-69163806D01*
X71647189Y-69165977D01*
X71642580Y-69168971D01*
X71636775Y-69172873D01*
X71629658Y-69177764D01*
X71621112Y-69183727D01*
X71611024Y-69190846D01*
X71599276Y-69199203D01*
X71585754Y-69208881D01*
X71570343Y-69219963D01*
X71552925Y-69232531D01*
X71533386Y-69246669D01*
X71511610Y-69262460D01*
X71487482Y-69279985D01*
X71460886Y-69299329D01*
X71431707Y-69320574D01*
X71399828Y-69343803D01*
X71365135Y-69369098D01*
X71327511Y-69396543D01*
X71286841Y-69426220D01*
X71264318Y-69442655D01*
X71231062Y-69466915D01*
X71198736Y-69490487D01*
X71167480Y-69513270D01*
X71137434Y-69535161D01*
X71108737Y-69556060D01*
X71081528Y-69575866D01*
X71055949Y-69594476D01*
X71032137Y-69611789D01*
X71010233Y-69627704D01*
X70990376Y-69642119D01*
X70972707Y-69654933D01*
X70957363Y-69666044D01*
X70944486Y-69675351D01*
X70934215Y-69682753D01*
X70926689Y-69688147D01*
X70922048Y-69691433D01*
X70920431Y-69692509D01*
X70920654Y-69691675D01*
X70921969Y-69687425D01*
X70924417Y-69679723D01*
X70927943Y-69668735D01*
X70932494Y-69654624D01*
X70938017Y-69637554D01*
X70944459Y-69617690D01*
X70951765Y-69595197D01*
X70959882Y-69570238D01*
X70968757Y-69542978D01*
X70978336Y-69513582D01*
X70988566Y-69482213D01*
X70999393Y-69449036D01*
X71010764Y-69414216D01*
X71022626Y-69377916D01*
X71034924Y-69340301D01*
X71047606Y-69301536D01*
X71060617Y-69261785D01*
X71071512Y-69228505D01*
X71086168Y-69183730D01*
X71099677Y-69142438D01*
X71112087Y-69104488D01*
X71123441Y-69069738D01*
X71133784Y-69038045D01*
X71143162Y-69009270D01*
X71151618Y-68983269D01*
X71159199Y-68959902D01*
X71165949Y-68939027D01*
X71171913Y-68920501D01*
X71177136Y-68904184D01*
X71181662Y-68889934D01*
X71185538Y-68877609D01*
X71188807Y-68867068D01*
X71191515Y-68858169D01*
X71193706Y-68850770D01*
X71195426Y-68844730D01*
X71196719Y-68839906D01*
X71197631Y-68836159D01*
X71198206Y-68833345D01*
X71198489Y-68831323D01*
X71198525Y-68829952D01*
X71198360Y-68829090D01*
X71198037Y-68828596D01*
X71197346Y-68828059D01*
X71193718Y-68825375D01*
X71187137Y-68820558D01*
X71177745Y-68813711D01*
X71165684Y-68804938D01*
X71151096Y-68794342D01*
X71134124Y-68782025D01*
X71114909Y-68768092D01*
X71093594Y-68752643D01*
X71070321Y-68735784D01*
X71045232Y-68717617D01*
X71018470Y-68698244D01*
X70990177Y-68677770D01*
X70960494Y-68656296D01*
X70929565Y-68633927D01*
X70897532Y-68610765D01*
X70864536Y-68586913D01*
X70830720Y-68562474D01*
X70810789Y-68548070D01*
X70777502Y-68524010D01*
X70745145Y-68500616D01*
X70713857Y-68477988D01*
X70683778Y-68456231D01*
X70655050Y-68435444D01*
X70627813Y-68415729D01*
X70602208Y-68397189D01*
X70578374Y-68379926D01*
X70556453Y-68364041D01*
X70536584Y-68349635D01*
X70518909Y-68336811D01*
X70503568Y-68325671D01*
X70490701Y-68316316D01*
X70480449Y-68308848D01*
X70472952Y-68303368D01*
X70468350Y-68299980D01*
X70466786Y-68298783D01*
X70467697Y-68298739D01*
X70472213Y-68298679D01*
X70480358Y-68298623D01*
X70491958Y-68298572D01*
X70506842Y-68298526D01*
X70524837Y-68298486D01*
X70545771Y-68298450D01*
X70569471Y-68298419D01*
X70595765Y-68298394D01*
X70624481Y-68298375D01*
X70655447Y-68298361D01*
X70688490Y-68298354D01*
X70723437Y-68298352D01*
X70760117Y-68298356D01*
X70798357Y-68298367D01*
X70837985Y-68298383D01*
X70878828Y-68298407D01*
X70920714Y-68298437D01*
X71374643Y-68298795D01*
X71513207Y-67869085D01*
X71521351Y-67843833D01*
X71533988Y-67804663D01*
X71546280Y-67766582D01*
X71558173Y-67729756D01*
X71569614Y-67694349D01*
X71580548Y-67660527D01*
X71590922Y-67628455D01*
X71600684Y-67598297D01*
X71609779Y-67570219D01*
X71618154Y-67544386D01*
X71625755Y-67520963D01*
X71632530Y-67500114D01*
X71638424Y-67482005D01*
X71643384Y-67466800D01*
X71647357Y-67454666D01*
X71650288Y-67445766D01*
X71652126Y-67440266D01*
X71652815Y-67438331D01*
X71653073Y-67438558D01*
G37*
G36*
X78815571Y-64820949D02*
G01*
X78817030Y-64825195D01*
X78819600Y-64832896D01*
X78823228Y-64843890D01*
X78827862Y-64858010D01*
X78833447Y-64875094D01*
X78839931Y-64894977D01*
X78847260Y-64917494D01*
X78855381Y-64942483D01*
X78864241Y-64969778D01*
X78873786Y-64999215D01*
X78883962Y-65030630D01*
X78894718Y-65063860D01*
X78905999Y-65098739D01*
X78917751Y-65135105D01*
X78929923Y-65172791D01*
X78942460Y-65211635D01*
X78955309Y-65251472D01*
X79094396Y-65682835D01*
X79548968Y-65681585D01*
X79552583Y-65681575D01*
X79603969Y-65681438D01*
X79651568Y-65681320D01*
X79695502Y-65681221D01*
X79735893Y-65681141D01*
X79772864Y-65681080D01*
X79806537Y-65681040D01*
X79837035Y-65681019D01*
X79864481Y-65681019D01*
X79888996Y-65681040D01*
X79910704Y-65681082D01*
X79929727Y-65681145D01*
X79946187Y-65681230D01*
X79960208Y-65681337D01*
X79971910Y-65681467D01*
X79981418Y-65681619D01*
X79988854Y-65681794D01*
X79994339Y-65681993D01*
X79997997Y-65682215D01*
X79999950Y-65682461D01*
X80000321Y-65682731D01*
X79999598Y-65683257D01*
X79995929Y-65685915D01*
X79989310Y-65690706D01*
X79979882Y-65697526D01*
X79967787Y-65706273D01*
X79953168Y-65716845D01*
X79936167Y-65729138D01*
X79916924Y-65743050D01*
X79895584Y-65758479D01*
X79872286Y-65775322D01*
X79847174Y-65793476D01*
X79820389Y-65812839D01*
X79792073Y-65833307D01*
X79762368Y-65854779D01*
X79731417Y-65877152D01*
X79699360Y-65900323D01*
X79666341Y-65924189D01*
X79632500Y-65948648D01*
X79612107Y-65963391D01*
X79578795Y-65987488D01*
X79546413Y-66010929D01*
X79515102Y-66033612D01*
X79485003Y-66055434D01*
X79456256Y-66076294D01*
X79429001Y-66096089D01*
X79403379Y-66114716D01*
X79379530Y-66132074D01*
X79357596Y-66148060D01*
X79337715Y-66162572D01*
X79320029Y-66175507D01*
X79304678Y-66186763D01*
X79291803Y-66196238D01*
X79281544Y-66203829D01*
X79274041Y-66209435D01*
X79269435Y-66212952D01*
X79267867Y-66214279D01*
X79268045Y-66214936D01*
X79269286Y-66218930D01*
X79271665Y-66226390D01*
X79275126Y-66237151D01*
X79279616Y-66251046D01*
X79285080Y-66267911D01*
X79291466Y-66287578D01*
X79298717Y-66309882D01*
X79306782Y-66334657D01*
X79315604Y-66361735D01*
X79325131Y-66390953D01*
X79335308Y-66422142D01*
X79346081Y-66455138D01*
X79357396Y-66489775D01*
X79369200Y-66525885D01*
X79381436Y-66563303D01*
X79394053Y-66601864D01*
X79406995Y-66641400D01*
X79413936Y-66662600D01*
X79426731Y-66701687D01*
X79439181Y-66739729D01*
X79451232Y-66776558D01*
X79462829Y-66812008D01*
X79473917Y-66845911D01*
X79484441Y-66878098D01*
X79494347Y-66908404D01*
X79503580Y-66936661D01*
X79512085Y-66962700D01*
X79519808Y-66986355D01*
X79526694Y-67007458D01*
X79532688Y-67025842D01*
X79537736Y-67041340D01*
X79541783Y-67053783D01*
X79544773Y-67063004D01*
X79546654Y-67068837D01*
X79547369Y-67071114D01*
X79547545Y-67071827D01*
X79547716Y-67074544D01*
X79546045Y-67074246D01*
X79545353Y-67073757D01*
X79541747Y-67071151D01*
X79535200Y-67066399D01*
X79525855Y-67059603D01*
X79513851Y-67050866D01*
X79499331Y-67040292D01*
X79482435Y-67027982D01*
X79463304Y-67014040D01*
X79442079Y-66998570D01*
X79418903Y-66981673D01*
X79393914Y-66963452D01*
X79367256Y-66944011D01*
X79339069Y-66923452D01*
X79309494Y-66901878D01*
X79278672Y-66879393D01*
X79246744Y-66856098D01*
X79213852Y-66832097D01*
X79180137Y-66807493D01*
X79159820Y-66792668D01*
X79126605Y-66768438D01*
X79094305Y-66744886D01*
X79063060Y-66722112D01*
X79033012Y-66700221D01*
X79004301Y-66679312D01*
X78977068Y-66659489D01*
X78951452Y-66640855D01*
X78927596Y-66623510D01*
X78905638Y-66607557D01*
X78885720Y-66593098D01*
X78867982Y-66580236D01*
X78852566Y-66569072D01*
X78839610Y-66559710D01*
X78829257Y-66552250D01*
X78821646Y-66546794D01*
X78816918Y-66543446D01*
X78815214Y-66542308D01*
X78814475Y-66542780D01*
X78810813Y-66545349D01*
X78804217Y-66550063D01*
X78794827Y-66556818D01*
X78782784Y-66565514D01*
X78768228Y-66576049D01*
X78751299Y-66588320D01*
X78732137Y-66602225D01*
X78710882Y-66617663D01*
X78687675Y-66634532D01*
X78662655Y-66652730D01*
X78635964Y-66672154D01*
X78607741Y-66692704D01*
X78578127Y-66714277D01*
X78547261Y-66736771D01*
X78515285Y-66760085D01*
X78482337Y-66784116D01*
X78448559Y-66808763D01*
X78426537Y-66824831D01*
X78393307Y-66849065D01*
X78361006Y-66872606D01*
X78329774Y-66895354D01*
X78299751Y-66917205D01*
X78271077Y-66938061D01*
X78243890Y-66957818D01*
X78218331Y-66976377D01*
X78194540Y-66993635D01*
X78172655Y-67009492D01*
X78152817Y-67023847D01*
X78135165Y-67036598D01*
X78119838Y-67047643D01*
X78106978Y-67056883D01*
X78096722Y-67064215D01*
X78089211Y-67069538D01*
X78084584Y-67072752D01*
X78082981Y-67073754D01*
X78083177Y-67072991D01*
X78084449Y-67068839D01*
X78086856Y-67061229D01*
X78090344Y-67050327D01*
X78094858Y-67036296D01*
X78100346Y-67019304D01*
X78106754Y-66999513D01*
X78114028Y-66977091D01*
X78122114Y-66952201D01*
X78130958Y-66925010D01*
X78140508Y-66895682D01*
X78150709Y-66864383D01*
X78161507Y-66831277D01*
X78172849Y-66796530D01*
X78184680Y-66760307D01*
X78196949Y-66722773D01*
X78209600Y-66684093D01*
X78222579Y-66644433D01*
X78230452Y-66620382D01*
X78243246Y-66581279D01*
X78255683Y-66543251D01*
X78267707Y-66506463D01*
X78279265Y-66471081D01*
X78290304Y-66437270D01*
X78300769Y-66405197D01*
X78310607Y-66375025D01*
X78319763Y-66346922D01*
X78328184Y-66321053D01*
X78335815Y-66297582D01*
X78342604Y-66276677D01*
X78348495Y-66258501D01*
X78353435Y-66243222D01*
X78357371Y-66231004D01*
X78360247Y-66222012D01*
X78362011Y-66216414D01*
X78362609Y-66214373D01*
X78362039Y-66213840D01*
X78358629Y-66211177D01*
X78352266Y-66206385D01*
X78343091Y-66199567D01*
X78331243Y-66190825D01*
X78316864Y-66180261D01*
X78300094Y-66167977D01*
X78281072Y-66154077D01*
X78259940Y-66138661D01*
X78236839Y-66121834D01*
X78211907Y-66103696D01*
X78185287Y-66084351D01*
X78157118Y-66063900D01*
X78127542Y-66042446D01*
X78096697Y-66020092D01*
X78064725Y-65996939D01*
X78031767Y-65973091D01*
X77997962Y-65948648D01*
X77977952Y-65934185D01*
X77944577Y-65910063D01*
X77912107Y-65886594D01*
X77880684Y-65863880D01*
X77850450Y-65842026D01*
X77821546Y-65821132D01*
X77794114Y-65801302D01*
X77768297Y-65782638D01*
X77744237Y-65765243D01*
X77722074Y-65749220D01*
X77701952Y-65734672D01*
X77684013Y-65721700D01*
X77668397Y-65710408D01*
X77655248Y-65700897D01*
X77644707Y-65693272D01*
X77636915Y-65687634D01*
X77632016Y-65684086D01*
X77630151Y-65682731D01*
X77630129Y-65682712D01*
X77630605Y-65682443D01*
X77632671Y-65682199D01*
X77636451Y-65681979D01*
X77642066Y-65681782D01*
X77649640Y-65681608D01*
X77659295Y-65681458D01*
X77671152Y-65681330D01*
X77685336Y-65681224D01*
X77701968Y-65681140D01*
X77721170Y-65681078D01*
X77743066Y-65681038D01*
X77767778Y-65681018D01*
X77795428Y-65681020D01*
X77826139Y-65681042D01*
X77860034Y-65681084D01*
X77897234Y-65681146D01*
X77937863Y-65681227D01*
X77982043Y-65681328D01*
X78029896Y-65681447D01*
X78081545Y-65681585D01*
X78536146Y-65682835D01*
X78675205Y-65251482D01*
X78683845Y-65224688D01*
X78696488Y-65185498D01*
X78708784Y-65147411D01*
X78720679Y-65110591D01*
X78732119Y-65075203D01*
X78743052Y-65041410D01*
X78753424Y-65009377D01*
X78763181Y-64979268D01*
X78772271Y-64951247D01*
X78780640Y-64925479D01*
X78788234Y-64902127D01*
X78795002Y-64881356D01*
X78800888Y-64863330D01*
X78805840Y-64848213D01*
X78809805Y-64836169D01*
X78812730Y-64827363D01*
X78814560Y-64821958D01*
X78815243Y-64820120D01*
X78815571Y-64820949D01*
G37*
G36*
X74998695Y-61627933D02*
G01*
X74999583Y-61630447D01*
X75001611Y-61636506D01*
X75004728Y-61645947D01*
X75008881Y-61658611D01*
X75014018Y-61674335D01*
X75020087Y-61692957D01*
X75027035Y-61714317D01*
X75034811Y-61738253D01*
X75043361Y-61764604D01*
X75052635Y-61793208D01*
X75062580Y-61823904D01*
X75073143Y-61856530D01*
X75084272Y-61890925D01*
X75095916Y-61926928D01*
X75108022Y-61964378D01*
X75120537Y-62003112D01*
X75133410Y-62042969D01*
X75146589Y-62083789D01*
X75160020Y-62125409D01*
X75173653Y-62167668D01*
X75187434Y-62210406D01*
X75201312Y-62253459D01*
X75215234Y-62296668D01*
X75229149Y-62339870D01*
X75243003Y-62382905D01*
X75256746Y-62425610D01*
X75270323Y-62467825D01*
X75277197Y-62489201D01*
X75731058Y-62487802D01*
X75746413Y-62487755D01*
X75798486Y-62487602D01*
X75846765Y-62487473D01*
X75891349Y-62487366D01*
X75932333Y-62487281D01*
X75969815Y-62487220D01*
X76003893Y-62487182D01*
X76034664Y-62487168D01*
X76062226Y-62487177D01*
X76086675Y-62487210D01*
X76108109Y-62487267D01*
X76126626Y-62487348D01*
X76142322Y-62487453D01*
X76155296Y-62487583D01*
X76165644Y-62487737D01*
X76173464Y-62487916D01*
X76178853Y-62488120D01*
X76181908Y-62488349D01*
X76182728Y-62488604D01*
X76182018Y-62489152D01*
X76178383Y-62491838D01*
X76171800Y-62496655D01*
X76162410Y-62503501D01*
X76150355Y-62512273D01*
X76135776Y-62522869D01*
X76118813Y-62535186D01*
X76099609Y-62549123D01*
X76078305Y-62564576D01*
X76055042Y-62581443D01*
X76029961Y-62599621D01*
X76003203Y-62619009D01*
X75974911Y-62639504D01*
X75945224Y-62661002D01*
X75914285Y-62683403D01*
X75882234Y-62706603D01*
X75849214Y-62730500D01*
X75815364Y-62754991D01*
X75794325Y-62770215D01*
X75761014Y-62794332D01*
X75728638Y-62817787D01*
X75697337Y-62840478D01*
X75667251Y-62862304D01*
X75638521Y-62883162D01*
X75611286Y-62902950D01*
X75585686Y-62921567D01*
X75561861Y-62938909D01*
X75539953Y-62954876D01*
X75520100Y-62969365D01*
X75502443Y-62982273D01*
X75487121Y-62993499D01*
X75474276Y-63002942D01*
X75464047Y-63010497D01*
X75456574Y-63016065D01*
X75451997Y-63019542D01*
X75450457Y-63020827D01*
X75450653Y-63021469D01*
X75451925Y-63025433D01*
X75454331Y-63032865D01*
X75457818Y-63043597D01*
X75462332Y-63057466D01*
X75467818Y-63074304D01*
X75474223Y-63093946D01*
X75481492Y-63116226D01*
X75489571Y-63140979D01*
X75498406Y-63168038D01*
X75507942Y-63197237D01*
X75518127Y-63228411D01*
X75528904Y-63261394D01*
X75540221Y-63296020D01*
X75552024Y-63332123D01*
X75564257Y-63369538D01*
X75576868Y-63408098D01*
X75589801Y-63447638D01*
X75596765Y-63468928D01*
X75609553Y-63508022D01*
X75621998Y-63546069D01*
X75634045Y-63582904D01*
X75645640Y-63618357D01*
X75656728Y-63652263D01*
X75667255Y-63684454D01*
X75677165Y-63714761D01*
X75686404Y-63743019D01*
X75694918Y-63769059D01*
X75702650Y-63792713D01*
X75709548Y-63813816D01*
X75715555Y-63832198D01*
X75720617Y-63847693D01*
X75724680Y-63860134D01*
X75727689Y-63869352D01*
X75729589Y-63875181D01*
X75730325Y-63877454D01*
X75730632Y-63878498D01*
X75730844Y-63880936D01*
X75729110Y-63880516D01*
X75728469Y-63880067D01*
X75724936Y-63877522D01*
X75718459Y-63872827D01*
X75709180Y-63866087D01*
X75697240Y-63857404D01*
X75682779Y-63846881D01*
X75665941Y-63834622D01*
X75646866Y-63820729D01*
X75625695Y-63805306D01*
X75602570Y-63788454D01*
X75577632Y-63770279D01*
X75551024Y-63750882D01*
X75522885Y-63730367D01*
X75493358Y-63708836D01*
X75462584Y-63686393D01*
X75430705Y-63663141D01*
X75397862Y-63639182D01*
X75364196Y-63614621D01*
X75345043Y-63600648D01*
X75311829Y-63576423D01*
X75279519Y-63552865D01*
X75248253Y-63530075D01*
X75218173Y-63508158D01*
X75189421Y-63487214D01*
X75162137Y-63467349D01*
X75136463Y-63448663D01*
X75112540Y-63431261D01*
X75090510Y-63415244D01*
X75070514Y-63400715D01*
X75052693Y-63387778D01*
X75037189Y-63376535D01*
X75024142Y-63367089D01*
X75013696Y-63359542D01*
X75005989Y-63353998D01*
X75001165Y-63350559D01*
X74999365Y-63349328D01*
X74998538Y-63349757D01*
X74994749Y-63352262D01*
X74988029Y-63356913D01*
X74978519Y-63363608D01*
X74966360Y-63372246D01*
X74951693Y-63382726D01*
X74934658Y-63394945D01*
X74915395Y-63408803D01*
X74894046Y-63424198D01*
X74870749Y-63441029D01*
X74845647Y-63459194D01*
X74818880Y-63478591D01*
X74790588Y-63499119D01*
X74760911Y-63520678D01*
X74729991Y-63543164D01*
X74697968Y-63566477D01*
X74664982Y-63590515D01*
X74631174Y-63615177D01*
X74608788Y-63631513D01*
X74575538Y-63655769D01*
X74543219Y-63679338D01*
X74511970Y-63702117D01*
X74481931Y-63724005D01*
X74453241Y-63744902D01*
X74426040Y-63764704D01*
X74400467Y-63783312D01*
X74376663Y-63800622D01*
X74354766Y-63816535D01*
X74334917Y-63830948D01*
X74317255Y-63843760D01*
X74301919Y-63854869D01*
X74289049Y-63864175D01*
X74278786Y-63871574D01*
X74271267Y-63876967D01*
X74266634Y-63880252D01*
X74265025Y-63881326D01*
X74265239Y-63880537D01*
X74266541Y-63876354D01*
X74268978Y-63868716D01*
X74272494Y-63857789D01*
X74277038Y-63843737D01*
X74282555Y-63826725D01*
X74288992Y-63806917D01*
X74296295Y-63784478D01*
X74304410Y-63759572D01*
X74313284Y-63732364D01*
X74322863Y-63703018D01*
X74333093Y-63671698D01*
X74343921Y-63638570D01*
X74355293Y-63603798D01*
X74367156Y-63567546D01*
X74379455Y-63529979D01*
X74392138Y-63491261D01*
X74405150Y-63451556D01*
X74413398Y-63426395D01*
X74426218Y-63387268D01*
X74438678Y-63349223D01*
X74450726Y-63312423D01*
X74462306Y-63277034D01*
X74473366Y-63243220D01*
X74483850Y-63211149D01*
X74493705Y-63180983D01*
X74502878Y-63152889D01*
X74511314Y-63127032D01*
X74518960Y-63103577D01*
X74525761Y-63082689D01*
X74531664Y-63064533D01*
X74536614Y-63049274D01*
X74540558Y-63037078D01*
X74543443Y-63028110D01*
X74545213Y-63022534D01*
X74545815Y-63020517D01*
X74545120Y-63019893D01*
X74541520Y-63017113D01*
X74534974Y-63012209D01*
X74525623Y-63005285D01*
X74513608Y-62996441D01*
X74499067Y-62985780D01*
X74482141Y-62973403D01*
X74462969Y-62959412D01*
X74441692Y-62943910D01*
X74418450Y-62926997D01*
X74393382Y-62908776D01*
X74366628Y-62889349D01*
X74338329Y-62868818D01*
X74308623Y-62847284D01*
X74277652Y-62824849D01*
X74245555Y-62801615D01*
X74212472Y-62777684D01*
X74178542Y-62753158D01*
X74155790Y-62736715D01*
X74122416Y-62712592D01*
X74089981Y-62689143D01*
X74058626Y-62666468D01*
X74028489Y-62644668D01*
X73999711Y-62623846D01*
X73972432Y-62604102D01*
X73946791Y-62585538D01*
X73922929Y-62568256D01*
X73900984Y-62552355D01*
X73881098Y-62537938D01*
X73863409Y-62525107D01*
X73848058Y-62513961D01*
X73835185Y-62504604D01*
X73824928Y-62497135D01*
X73817430Y-62491657D01*
X73812828Y-62488270D01*
X73811263Y-62487076D01*
X73812180Y-62487035D01*
X73816707Y-62486986D01*
X73824861Y-62486950D01*
X73836470Y-62486926D01*
X73851363Y-62486914D01*
X73869366Y-62486914D01*
X73890307Y-62486925D01*
X73914015Y-62486948D01*
X73940317Y-62486981D01*
X73969040Y-62487025D01*
X74000012Y-62487079D01*
X74033062Y-62487144D01*
X74068016Y-62487218D01*
X74104702Y-62487303D01*
X74142948Y-62487396D01*
X74182582Y-62487499D01*
X74223431Y-62487611D01*
X74265324Y-62487732D01*
X74719385Y-62489070D01*
X74847658Y-62090600D01*
X74857992Y-62058498D01*
X74870288Y-62020304D01*
X74882302Y-61982987D01*
X74893972Y-61946739D01*
X74905238Y-61911749D01*
X74916038Y-61878207D01*
X74926310Y-61846304D01*
X74935995Y-61816229D01*
X74945029Y-61788174D01*
X74953353Y-61762327D01*
X74960905Y-61738879D01*
X74967624Y-61718020D01*
X74973448Y-61699941D01*
X74978317Y-61684831D01*
X74982168Y-61672881D01*
X74984942Y-61664280D01*
X74986575Y-61659220D01*
X74989729Y-61649731D01*
X74992949Y-61640613D01*
X74995656Y-61633557D01*
X74997633Y-61629123D01*
X74998664Y-61627871D01*
X74998695Y-61627933D01*
G37*
G36*
X73684086Y-69138658D02*
G01*
X73685571Y-69142785D01*
X73688166Y-69150368D01*
X73691819Y-69161245D01*
X73696475Y-69175251D01*
X73702082Y-69192223D01*
X73708585Y-69211998D01*
X73715933Y-69234412D01*
X73724071Y-69259301D01*
X73732946Y-69286503D01*
X73742504Y-69315853D01*
X73752692Y-69347189D01*
X73763458Y-69380346D01*
X73774747Y-69415161D01*
X73786505Y-69451471D01*
X73798681Y-69489111D01*
X73811219Y-69527920D01*
X73824068Y-69567732D01*
X73963162Y-69998969D01*
X74416706Y-69998604D01*
X74459969Y-69998574D01*
X74511140Y-69998554D01*
X74559112Y-69998552D01*
X74603834Y-69998569D01*
X74645255Y-69998603D01*
X74683323Y-69998656D01*
X74717987Y-69998726D01*
X74749196Y-69998813D01*
X74776897Y-69998919D01*
X74801040Y-69999041D01*
X74821573Y-69999180D01*
X74838445Y-69999337D01*
X74851604Y-69999510D01*
X74860999Y-69999699D01*
X74866578Y-69999905D01*
X74868290Y-70000127D01*
X74867726Y-70000558D01*
X74864314Y-70003067D01*
X74857944Y-70007713D01*
X74848758Y-70014393D01*
X74836898Y-70023003D01*
X74822506Y-70033442D01*
X74805722Y-70045607D01*
X74786690Y-70059395D01*
X74765551Y-70074704D01*
X74742446Y-70091430D01*
X74717518Y-70109472D01*
X74690907Y-70128726D01*
X74662757Y-70149091D01*
X74633208Y-70170462D01*
X74602403Y-70192739D01*
X74570483Y-70215817D01*
X74537590Y-70239595D01*
X74503865Y-70263970D01*
X74485616Y-70277159D01*
X74452308Y-70301237D01*
X74419901Y-70324668D01*
X74388539Y-70347348D01*
X74358363Y-70369176D01*
X74329516Y-70390047D01*
X74302140Y-70409859D01*
X74276377Y-70428510D01*
X74252369Y-70445895D01*
X74230258Y-70461913D01*
X74210187Y-70476460D01*
X74192297Y-70489433D01*
X74176730Y-70500730D01*
X74163630Y-70510246D01*
X74153137Y-70517881D01*
X74145395Y-70523529D01*
X74140545Y-70527089D01*
X74138729Y-70528457D01*
X74138582Y-70528890D01*
X74138671Y-70530341D01*
X74139152Y-70532894D01*
X74140068Y-70536687D01*
X74141465Y-70541859D01*
X74143385Y-70548546D01*
X74145873Y-70556888D01*
X74148973Y-70567020D01*
X74152729Y-70579083D01*
X74157184Y-70593213D01*
X74162382Y-70609548D01*
X74168368Y-70628225D01*
X74175185Y-70649384D01*
X74182877Y-70673162D01*
X74191488Y-70699696D01*
X74201063Y-70729125D01*
X74211644Y-70761586D01*
X74223277Y-70797218D01*
X74236004Y-70836157D01*
X74249870Y-70878542D01*
X74264918Y-70924511D01*
X74273919Y-70951998D01*
X74286400Y-70990121D01*
X74298614Y-71027430D01*
X74310497Y-71063733D01*
X74321986Y-71098834D01*
X74333016Y-71132539D01*
X74343525Y-71164656D01*
X74353448Y-71194989D01*
X74362724Y-71223344D01*
X74371287Y-71249528D01*
X74379075Y-71273347D01*
X74386024Y-71294605D01*
X74392071Y-71313111D01*
X74397152Y-71328668D01*
X74401203Y-71341084D01*
X74404162Y-71350164D01*
X74405964Y-71355714D01*
X74406912Y-71358661D01*
X74410338Y-71369617D01*
X74413110Y-71378965D01*
X74415080Y-71386177D01*
X74416103Y-71390727D01*
X74416033Y-71392087D01*
X74415576Y-71391764D01*
X74412349Y-71389431D01*
X74406168Y-71384941D01*
X74397173Y-71378397D01*
X74385506Y-71369903D01*
X74371310Y-71359562D01*
X74354727Y-71347478D01*
X74335897Y-71333753D01*
X74314963Y-71318492D01*
X74292067Y-71301797D01*
X74267351Y-71283773D01*
X74240956Y-71264522D01*
X74213024Y-71244148D01*
X74183698Y-71222755D01*
X74153118Y-71200446D01*
X74121428Y-71177324D01*
X74088768Y-71153492D01*
X74055281Y-71129055D01*
X74039875Y-71117812D01*
X74006670Y-71093582D01*
X73974326Y-71069980D01*
X73942985Y-71047111D01*
X73912792Y-71025082D01*
X73883892Y-71003997D01*
X73856428Y-70983961D01*
X73830545Y-70965079D01*
X73806385Y-70947456D01*
X73784095Y-70931197D01*
X73763816Y-70916408D01*
X73745695Y-70903194D01*
X73729874Y-70891659D01*
X73716498Y-70881909D01*
X73705711Y-70874049D01*
X73697657Y-70868183D01*
X73692480Y-70864418D01*
X73690324Y-70862857D01*
X73684002Y-70858382D01*
X73317572Y-71125818D01*
X73294381Y-71142741D01*
X73261125Y-71166999D01*
X73228807Y-71190562D01*
X73197565Y-71213329D01*
X73167539Y-71235198D01*
X73138868Y-71256070D01*
X73111691Y-71275842D01*
X73086147Y-71294414D01*
X73062376Y-71311685D01*
X73040516Y-71327553D01*
X73020707Y-71341918D01*
X73003087Y-71354679D01*
X72987797Y-71365734D01*
X72974975Y-71374982D01*
X72964760Y-71382323D01*
X72957291Y-71387655D01*
X72952709Y-71390878D01*
X72951151Y-71391890D01*
X72951407Y-71391025D01*
X72952774Y-71386727D01*
X72955273Y-71378977D01*
X72958848Y-71367939D01*
X72963447Y-71353780D01*
X72969016Y-71336662D01*
X72975501Y-71316752D01*
X72982848Y-71294214D01*
X72991004Y-71269212D01*
X72999915Y-71241911D01*
X73009526Y-71212476D01*
X73019785Y-71181072D01*
X73030638Y-71147863D01*
X73042030Y-71113014D01*
X73053908Y-71076690D01*
X73066219Y-71039056D01*
X73078908Y-71000276D01*
X73091921Y-70960514D01*
X73095868Y-70948458D01*
X73111014Y-70902187D01*
X73124997Y-70859463D01*
X73137862Y-70820141D01*
X73149653Y-70784082D01*
X73160417Y-70751140D01*
X73170197Y-70721175D01*
X73179039Y-70694043D01*
X73186988Y-70669602D01*
X73194088Y-70647709D01*
X73200385Y-70628223D01*
X73205924Y-70610999D01*
X73210749Y-70595897D01*
X73214906Y-70582773D01*
X73218439Y-70571484D01*
X73221394Y-70561889D01*
X73223815Y-70553844D01*
X73225748Y-70547208D01*
X73227237Y-70541837D01*
X73228327Y-70537590D01*
X73229064Y-70534323D01*
X73229491Y-70531894D01*
X73229655Y-70530160D01*
X73229600Y-70528980D01*
X73229372Y-70528210D01*
X73229014Y-70527707D01*
X73228572Y-70527331D01*
X73227971Y-70526886D01*
X73224463Y-70524333D01*
X73217994Y-70519641D01*
X73208708Y-70512914D01*
X73196747Y-70504255D01*
X73182255Y-70493767D01*
X73165374Y-70481555D01*
X73146248Y-70467721D01*
X73125020Y-70452368D01*
X73101833Y-70435602D01*
X73076830Y-70417524D01*
X73050153Y-70398239D01*
X73021947Y-70377849D01*
X72992354Y-70356459D01*
X72961517Y-70334172D01*
X72929580Y-70311091D01*
X72896685Y-70287319D01*
X72862975Y-70262961D01*
X72845424Y-70250279D01*
X72812158Y-70226239D01*
X72779798Y-70202850D01*
X72748484Y-70180216D01*
X72718359Y-70158437D01*
X72689566Y-70137618D01*
X72662245Y-70117861D01*
X72636539Y-70099269D01*
X72612590Y-70081944D01*
X72590540Y-70065989D01*
X72570530Y-70051507D01*
X72552703Y-70038600D01*
X72537201Y-70027372D01*
X72524166Y-70017924D01*
X72513739Y-70010360D01*
X72506063Y-70004783D01*
X72501279Y-70001295D01*
X72499530Y-69999998D01*
X72500671Y-69999849D01*
X72505529Y-69999679D01*
X72514078Y-69999521D01*
X72526193Y-69999376D01*
X72541749Y-69999245D01*
X72560622Y-69999128D01*
X72582687Y-69999025D01*
X72607818Y-69998936D01*
X72635892Y-69998862D01*
X72666783Y-69998803D01*
X72700366Y-69998759D01*
X72736517Y-69998731D01*
X72775110Y-69998719D01*
X72816022Y-69998724D01*
X72859126Y-69998745D01*
X72904298Y-69998783D01*
X72951414Y-69998838D01*
X73405258Y-69999443D01*
X73543881Y-69569383D01*
X73552092Y-69543915D01*
X73564731Y-69504725D01*
X73577027Y-69466623D01*
X73588924Y-69429774D01*
X73600370Y-69394343D01*
X73611312Y-69360494D01*
X73621694Y-69328394D01*
X73631465Y-69298207D01*
X73640571Y-69270099D01*
X73648957Y-69244235D01*
X73656571Y-69220779D01*
X73663359Y-69199897D01*
X73669267Y-69181755D01*
X73674242Y-69166517D01*
X73678230Y-69154348D01*
X73681178Y-69145413D01*
X73683032Y-69139879D01*
X73683739Y-69137909D01*
X73684086Y-69138658D01*
G37*
G36*
X71190512Y-64831782D02*
G01*
X71191848Y-64835782D01*
X71194301Y-64843254D01*
X71197819Y-64854031D01*
X71202347Y-64867947D01*
X71207831Y-64884837D01*
X71214219Y-64904534D01*
X71221455Y-64926872D01*
X71229487Y-64951685D01*
X71238261Y-64978807D01*
X71247722Y-65008073D01*
X71257818Y-65039315D01*
X71268495Y-65072368D01*
X71279698Y-65107066D01*
X71291374Y-65143243D01*
X71303469Y-65180732D01*
X71315931Y-65219368D01*
X71328704Y-65258985D01*
X71335736Y-65280801D01*
X71348355Y-65319935D01*
X71360635Y-65358012D01*
X71372523Y-65394864D01*
X71383965Y-65430325D01*
X71394906Y-65464227D01*
X71405294Y-65496403D01*
X71415073Y-65526686D01*
X71424190Y-65554910D01*
X71432592Y-65580908D01*
X71440223Y-65604511D01*
X71447031Y-65625554D01*
X71452960Y-65643869D01*
X71457958Y-65659290D01*
X71461970Y-65671649D01*
X71464942Y-65680779D01*
X71466821Y-65686513D01*
X71467551Y-65688685D01*
X71467618Y-65688821D01*
X71467968Y-65689201D01*
X71468664Y-65689552D01*
X71469855Y-65689874D01*
X71471689Y-65690169D01*
X71474316Y-65690439D01*
X71477885Y-65690683D01*
X71482543Y-65690903D01*
X71488441Y-65691101D01*
X71495727Y-65691277D01*
X71504549Y-65691433D01*
X71515057Y-65691569D01*
X71527400Y-65691687D01*
X71541726Y-65691787D01*
X71558184Y-65691871D01*
X71576924Y-65691941D01*
X71598093Y-65691996D01*
X71621841Y-65692039D01*
X71648317Y-65692070D01*
X71677669Y-65692090D01*
X71710047Y-65692101D01*
X71745599Y-65692103D01*
X71784474Y-65692098D01*
X71826822Y-65692087D01*
X71872790Y-65692071D01*
X71922527Y-65692050D01*
X71924486Y-65692050D01*
X71970110Y-65692038D01*
X72014029Y-65692042D01*
X72056104Y-65692060D01*
X72096197Y-65692093D01*
X72134170Y-65692140D01*
X72169884Y-65692199D01*
X72203201Y-65692272D01*
X72233982Y-65692357D01*
X72262090Y-65692453D01*
X72287386Y-65692561D01*
X72309731Y-65692680D01*
X72328988Y-65692810D01*
X72345018Y-65692949D01*
X72357683Y-65693098D01*
X72366844Y-65693256D01*
X72372363Y-65693422D01*
X72374102Y-65693596D01*
X72373460Y-65694079D01*
X72369927Y-65696665D01*
X72363441Y-65701383D01*
X72354145Y-65708132D01*
X72342179Y-65716810D01*
X72327685Y-65727313D01*
X72310805Y-65739540D01*
X72291679Y-65753388D01*
X72270450Y-65768755D01*
X72247258Y-65785539D01*
X72222245Y-65803637D01*
X72195552Y-65822947D01*
X72167321Y-65843366D01*
X72137693Y-65864793D01*
X72106810Y-65887124D01*
X72074813Y-65910258D01*
X72041843Y-65934093D01*
X72008042Y-65958525D01*
X71988158Y-65972899D01*
X71954840Y-65996996D01*
X71922444Y-66020441D01*
X71891111Y-66043131D01*
X71860981Y-66064963D01*
X71832197Y-66085834D01*
X71804899Y-66105643D01*
X71779228Y-66124286D01*
X71755324Y-66141662D01*
X71733329Y-66157667D01*
X71713384Y-66172199D01*
X71695630Y-66185156D01*
X71680207Y-66196434D01*
X71667257Y-66205932D01*
X71656921Y-66213547D01*
X71649339Y-66219177D01*
X71644653Y-66222718D01*
X71643003Y-66224068D01*
X71643177Y-66224893D01*
X71644416Y-66229142D01*
X71646791Y-66236848D01*
X71650248Y-66247845D01*
X71654734Y-66261967D01*
X71660195Y-66279049D01*
X71666579Y-66298924D01*
X71673830Y-66321429D01*
X71681896Y-66346396D01*
X71690723Y-66373662D01*
X71700257Y-66403059D01*
X71710446Y-66434423D01*
X71721235Y-66467588D01*
X71732571Y-66502388D01*
X71744400Y-66538658D01*
X71756669Y-66576233D01*
X71769324Y-66614947D01*
X71782312Y-66654634D01*
X71790334Y-66679136D01*
X71803130Y-66718227D01*
X71815568Y-66756234D01*
X71827594Y-66792992D01*
X71839153Y-66828337D01*
X71850193Y-66862103D01*
X71860660Y-66894125D01*
X71870499Y-66924239D01*
X71879656Y-66952279D01*
X71888079Y-66978081D01*
X71895712Y-67001479D01*
X71902502Y-67022308D01*
X71908396Y-67040403D01*
X71913338Y-67055600D01*
X71917277Y-67067733D01*
X71920156Y-67076637D01*
X71921923Y-67082148D01*
X71922524Y-67084099D01*
X71922476Y-67084373D01*
X71920769Y-67084700D01*
X71920093Y-67084241D01*
X71916519Y-67081690D01*
X71910006Y-67076992D01*
X71900696Y-67070250D01*
X71888728Y-67061566D01*
X71874244Y-67051043D01*
X71857384Y-67038783D01*
X71838288Y-67024888D01*
X71817097Y-67009461D01*
X71793952Y-66992604D01*
X71768993Y-66974420D01*
X71742361Y-66955010D01*
X71714197Y-66934479D01*
X71684641Y-66912927D01*
X71653834Y-66890457D01*
X71621917Y-66867172D01*
X71589029Y-66843174D01*
X71555313Y-66818565D01*
X71534719Y-66803534D01*
X71501496Y-66779289D01*
X71469191Y-66755718D01*
X71437943Y-66732924D01*
X71407894Y-66711009D01*
X71379183Y-66690075D01*
X71351951Y-66670225D01*
X71326339Y-66651561D01*
X71302487Y-66634185D01*
X71280536Y-66618199D01*
X71260625Y-66603706D01*
X71242896Y-66590808D01*
X71227489Y-66579608D01*
X71214543Y-66570207D01*
X71204201Y-66562708D01*
X71196602Y-66557213D01*
X71191886Y-66553825D01*
X71190194Y-66552645D01*
X71189457Y-66553095D01*
X71185800Y-66555630D01*
X71179210Y-66560310D01*
X71169827Y-66567034D01*
X71157791Y-66575699D01*
X71143242Y-66586204D01*
X71126321Y-66598446D01*
X71107167Y-66612326D01*
X71085920Y-66627739D01*
X71062721Y-66644586D01*
X71037710Y-66662764D01*
X71011027Y-66682171D01*
X70982812Y-66702707D01*
X70953204Y-66724268D01*
X70922345Y-66746753D01*
X70890375Y-66770061D01*
X70857432Y-66794090D01*
X70823658Y-66818738D01*
X70801694Y-66834770D01*
X70768453Y-66859020D01*
X70736139Y-66882581D01*
X70704890Y-66905353D01*
X70674847Y-66927233D01*
X70646150Y-66948121D01*
X70618938Y-66967913D01*
X70593352Y-66986510D01*
X70569530Y-67003810D01*
X70547614Y-67019710D01*
X70527742Y-67034110D01*
X70510056Y-67046908D01*
X70494693Y-67058003D01*
X70481795Y-67067293D01*
X70471501Y-67074676D01*
X70463951Y-67080052D01*
X70459285Y-67083318D01*
X70457643Y-67084374D01*
X70457826Y-67083601D01*
X70459080Y-67079441D01*
X70461468Y-67071825D01*
X70464937Y-67060918D01*
X70469434Y-67046885D01*
X70474905Y-67029890D01*
X70481297Y-67010098D01*
X70488555Y-66987675D01*
X70496628Y-66962784D01*
X70505460Y-66935590D01*
X70514999Y-66906259D01*
X70525192Y-66874955D01*
X70535984Y-66841842D01*
X70547322Y-66807086D01*
X70559153Y-66770850D01*
X70571423Y-66733301D01*
X70584080Y-66694602D01*
X70597068Y-66654918D01*
X70605147Y-66630235D01*
X70617941Y-66591117D01*
X70630369Y-66553075D01*
X70642378Y-66516275D01*
X70653914Y-66480883D01*
X70664925Y-66447063D01*
X70675356Y-66414982D01*
X70685154Y-66384804D01*
X70694265Y-66356696D01*
X70702636Y-66330821D01*
X70710213Y-66307347D01*
X70716943Y-66286438D01*
X70722772Y-66268260D01*
X70727646Y-66252977D01*
X70731513Y-66240756D01*
X70734318Y-66231762D01*
X70736008Y-66226160D01*
X70736529Y-66224116D01*
X70736025Y-66223669D01*
X70732720Y-66221131D01*
X70726456Y-66216456D01*
X70717374Y-66209749D01*
X70705615Y-66201112D01*
X70691321Y-66190647D01*
X70674633Y-66178458D01*
X70655693Y-66164647D01*
X70634640Y-66149317D01*
X70611618Y-66132571D01*
X70586766Y-66114511D01*
X70560227Y-66095241D01*
X70532142Y-66074863D01*
X70502651Y-66053480D01*
X70471896Y-66031195D01*
X70440019Y-66008110D01*
X70407160Y-65984329D01*
X70373462Y-65959954D01*
X70355556Y-65947006D01*
X70322233Y-65922908D01*
X70289801Y-65899453D01*
X70258402Y-65876744D01*
X70228181Y-65854884D01*
X70199279Y-65833978D01*
X70171839Y-65814128D01*
X70146003Y-65795437D01*
X70121916Y-65778010D01*
X70099719Y-65761948D01*
X70079556Y-65747356D01*
X70061568Y-65734337D01*
X70045900Y-65722993D01*
X70032693Y-65713429D01*
X70022090Y-65705748D01*
X70014235Y-65700053D01*
X70009269Y-65696447D01*
X70007336Y-65695034D01*
X70007174Y-65694849D01*
X70007364Y-65694532D01*
X70008307Y-65694240D01*
X70010145Y-65693971D01*
X70013023Y-65693725D01*
X70017085Y-65693501D01*
X70022474Y-65693297D01*
X70029335Y-65693114D01*
X70037812Y-65692949D01*
X70048047Y-65692803D01*
X70060187Y-65692674D01*
X70074373Y-65692561D01*
X70090751Y-65692464D01*
X70109464Y-65692381D01*
X70130656Y-65692311D01*
X70154471Y-65692254D01*
X70181053Y-65692209D01*
X70210546Y-65692174D01*
X70243095Y-65692149D01*
X70278841Y-65692133D01*
X70317931Y-65692124D01*
X70360508Y-65692123D01*
X70406715Y-65692128D01*
X70456696Y-65692138D01*
X70484836Y-65692143D01*
X70526027Y-65692145D01*
X70566063Y-65692142D01*
X70604774Y-65692133D01*
X70641986Y-65692118D01*
X70677525Y-65692099D01*
X70711220Y-65692074D01*
X70742897Y-65692044D01*
X70772384Y-65692010D01*
X70799507Y-65691972D01*
X70824095Y-65691929D01*
X70845974Y-65691882D01*
X70864971Y-65691832D01*
X70880914Y-65691779D01*
X70893629Y-65691722D01*
X70902944Y-65691662D01*
X70908686Y-65691600D01*
X70910683Y-65691535D01*
X70910982Y-65690700D01*
X70912398Y-65686443D01*
X70914928Y-65678729D01*
X70918519Y-65667723D01*
X70923117Y-65653589D01*
X70928669Y-65636491D01*
X70935121Y-65616595D01*
X70942421Y-65594065D01*
X70950515Y-65569065D01*
X70959350Y-65541761D01*
X70968872Y-65512317D01*
X70979028Y-65480897D01*
X70989766Y-65447666D01*
X71001031Y-65412789D01*
X71012770Y-65376431D01*
X71024931Y-65338755D01*
X71037459Y-65299928D01*
X71050302Y-65260113D01*
X71058863Y-65233578D01*
X71071500Y-65194445D01*
X71083790Y-65156427D01*
X71095680Y-65119688D01*
X71107117Y-65084391D01*
X71118047Y-65050699D01*
X71128417Y-65018776D01*
X71138173Y-64988786D01*
X71147263Y-64960891D01*
X71155633Y-64935256D01*
X71163230Y-64912044D01*
X71170000Y-64891417D01*
X71175889Y-64873540D01*
X71180846Y-64858577D01*
X71184816Y-64846689D01*
X71187746Y-64838042D01*
X71189583Y-64832798D01*
X71190273Y-64831121D01*
X71190512Y-64831782D01*
G37*
D10*
X93232500Y-62853000D03*
D11*
X77892500Y-62792000D03*
X72112500Y-62792000D03*
D12*
X70702500Y-63343000D03*
D13*
X79302500Y-59143000D03*
D12*
X79302500Y-63343000D03*
D13*
X70702500Y-59143000D03*
D14*
X75212500Y-57510000D03*
D15*
X73882500Y-57530000D03*
D16*
X74222500Y-57710000D03*
D17*
X76862500Y-57540000D03*
D18*
X72852500Y-57540000D03*
D19*
X75542500Y-57600000D03*
D20*
X78102500Y-57820000D03*
D21*
X75902500Y-59410000D03*
D22*
X74482500Y-59350000D03*
M02*
