G04 #@! TF.GenerationSoftware,KiCad,Pcbnew,(6.0.0)*
G04 #@! TF.CreationDate,2022-01-15T11:29:00+07:00*
G04 #@! TF.ProjectId,Unified-Daughterboard,556e6966-6965-4642-9d44-617567687465,C3*
G04 #@! TF.SameCoordinates,Original*
G04 #@! TF.FileFunction,AssemblyDrawing,Top*
%FSLAX46Y46*%
G04 Gerber Fmt 4.6, Leading zero omitted, Abs format (unit mm)*
G04 Created by KiCad (PCBNEW (6.0.0)) date 2022-01-15 11:29:00*
%MOMM*%
%LPD*%
G01*
G04 APERTURE LIST*
%ADD10C,0.127000*%
%ADD11C,0.075000*%
%ADD12C,0.063500*%
%ADD13C,0.100000*%
%ADD14C,0.125000*%
%ADD15C,0.050800*%
%ADD16C,0.120000*%
%ADD17C,0.050000*%
G04 APERTURE END LIST*
D10*
X69358559Y-59607273D02*
X69358559Y-59849178D01*
X69600464Y-59873369D01*
X69576273Y-59849178D01*
X69552083Y-59800797D01*
X69552083Y-59679845D01*
X69576273Y-59631464D01*
X69600464Y-59607273D01*
X69648845Y-59583083D01*
X69769797Y-59583083D01*
X69818178Y-59607273D01*
X69842369Y-59631464D01*
X69866559Y-59679845D01*
X69866559Y-59800797D01*
X69842369Y-59849178D01*
X69818178Y-59873369D01*
X69818178Y-59365369D02*
X69842369Y-59341178D01*
X69866559Y-59365369D01*
X69842369Y-59389559D01*
X69818178Y-59365369D01*
X69866559Y-59365369D01*
X69866559Y-58857369D02*
X69866559Y-59147654D01*
X69866559Y-59002511D02*
X69358559Y-59002511D01*
X69431130Y-59050892D01*
X69479511Y-59099273D01*
X69503702Y-59147654D01*
X69866559Y-58639654D02*
X69358559Y-58639654D01*
X69673035Y-58591273D02*
X69866559Y-58446130D01*
X69527892Y-58446130D02*
X69721416Y-58639654D01*
D11*
X67792083Y-59467702D02*
X67658750Y-59277226D01*
X67563511Y-59467702D02*
X67563511Y-59067702D01*
X67715892Y-59067702D01*
X67753988Y-59086750D01*
X67773035Y-59105797D01*
X67792083Y-59143892D01*
X67792083Y-59201035D01*
X67773035Y-59239130D01*
X67753988Y-59258178D01*
X67715892Y-59277226D01*
X67563511Y-59277226D01*
X67944464Y-59105797D02*
X67963511Y-59086750D01*
X68001607Y-59067702D01*
X68096845Y-59067702D01*
X68134940Y-59086750D01*
X68153988Y-59105797D01*
X68173035Y-59143892D01*
X68173035Y-59181988D01*
X68153988Y-59239130D01*
X67925416Y-59467702D01*
X68173035Y-59467702D01*
D12*
X84379754Y-64930690D02*
X84379754Y-64785547D01*
X84633754Y-64858119D02*
X84379754Y-64858119D01*
X84633754Y-64700880D02*
X84379754Y-64700880D01*
X84379754Y-64604119D01*
X84391850Y-64579928D01*
X84403945Y-64567833D01*
X84428135Y-64555738D01*
X84464421Y-64555738D01*
X84488611Y-64567833D01*
X84500707Y-64579928D01*
X84512802Y-64604119D01*
X84512802Y-64700880D01*
X84633754Y-64446880D02*
X84379754Y-64446880D01*
X84379754Y-64386404D01*
X84391850Y-64350119D01*
X84416040Y-64325928D01*
X84440230Y-64313833D01*
X84488611Y-64301738D01*
X84524897Y-64301738D01*
X84573278Y-64313833D01*
X84597469Y-64325928D01*
X84621659Y-64350119D01*
X84633754Y-64386404D01*
X84633754Y-64446880D01*
X84464421Y-64084023D02*
X84633754Y-64084023D01*
X84367659Y-64144500D02*
X84549088Y-64204976D01*
X84549088Y-64047738D01*
X84500707Y-63950976D02*
X84500707Y-63866309D01*
X84633754Y-63830023D02*
X84633754Y-63950976D01*
X84379754Y-63950976D01*
X84379754Y-63830023D01*
X84379754Y-63672785D02*
X84379754Y-63648595D01*
X84391850Y-63624404D01*
X84403945Y-63612309D01*
X84428135Y-63600214D01*
X84476516Y-63588119D01*
X84536992Y-63588119D01*
X84585373Y-63600214D01*
X84609564Y-63612309D01*
X84621659Y-63624404D01*
X84633754Y-63648595D01*
X84633754Y-63672785D01*
X84621659Y-63696976D01*
X84609564Y-63709071D01*
X84585373Y-63721166D01*
X84536992Y-63733261D01*
X84476516Y-63733261D01*
X84428135Y-63721166D01*
X84403945Y-63709071D01*
X84391850Y-63696976D01*
X84379754Y-63672785D01*
X84379754Y-63358309D02*
X84379754Y-63479261D01*
X84500707Y-63491357D01*
X84488611Y-63479261D01*
X84476516Y-63455071D01*
X84476516Y-63394595D01*
X84488611Y-63370404D01*
X84500707Y-63358309D01*
X84524897Y-63346214D01*
X84585373Y-63346214D01*
X84609564Y-63358309D01*
X84621659Y-63370404D01*
X84633754Y-63394595D01*
X84633754Y-63455071D01*
X84621659Y-63479261D01*
X84609564Y-63491357D01*
X84379754Y-63237357D02*
X84585373Y-63237357D01*
X84609564Y-63225261D01*
X84621659Y-63213166D01*
X84633754Y-63188976D01*
X84633754Y-63140595D01*
X84621659Y-63116404D01*
X84609564Y-63104309D01*
X84585373Y-63092214D01*
X84379754Y-63092214D01*
X84379754Y-62922880D02*
X84379754Y-62898690D01*
X84391850Y-62874500D01*
X84403945Y-62862404D01*
X84428135Y-62850309D01*
X84476516Y-62838214D01*
X84536992Y-62838214D01*
X84585373Y-62850309D01*
X84609564Y-62862404D01*
X84621659Y-62874500D01*
X84633754Y-62898690D01*
X84633754Y-62922880D01*
X84621659Y-62947071D01*
X84609564Y-62959166D01*
X84585373Y-62971261D01*
X84536992Y-62983357D01*
X84476516Y-62983357D01*
X84428135Y-62971261D01*
X84403945Y-62959166D01*
X84391850Y-62947071D01*
X84379754Y-62922880D01*
X84379754Y-62620500D02*
X84379754Y-62668880D01*
X84391850Y-62693071D01*
X84403945Y-62705166D01*
X84440230Y-62729357D01*
X84488611Y-62741452D01*
X84585373Y-62741452D01*
X84609564Y-62729357D01*
X84621659Y-62717261D01*
X84633754Y-62693071D01*
X84633754Y-62644690D01*
X84621659Y-62620500D01*
X84609564Y-62608404D01*
X84585373Y-62596309D01*
X84524897Y-62596309D01*
X84500707Y-62608404D01*
X84488611Y-62620500D01*
X84476516Y-62644690D01*
X84476516Y-62693071D01*
X84488611Y-62717261D01*
X84500707Y-62729357D01*
X84524897Y-62741452D01*
X84633754Y-62487452D02*
X84379754Y-62487452D01*
X84379754Y-62426976D01*
X84391850Y-62390690D01*
X84416040Y-62366500D01*
X84440230Y-62354404D01*
X84488611Y-62342309D01*
X84524897Y-62342309D01*
X84573278Y-62354404D01*
X84597469Y-62366500D01*
X84621659Y-62390690D01*
X84633754Y-62426976D01*
X84633754Y-62487452D01*
X84657945Y-62064119D02*
X84645850Y-62088309D01*
X84621659Y-62112500D01*
X84585373Y-62148785D01*
X84573278Y-62172976D01*
X84573278Y-62197166D01*
X84633754Y-62185071D02*
X84621659Y-62209261D01*
X84597469Y-62233452D01*
X84549088Y-62245547D01*
X84464421Y-62245547D01*
X84416040Y-62233452D01*
X84391850Y-62209261D01*
X84379754Y-62185071D01*
X84379754Y-62136690D01*
X84391850Y-62112500D01*
X84416040Y-62088309D01*
X84464421Y-62076214D01*
X84549088Y-62076214D01*
X84597469Y-62088309D01*
X84621659Y-62112500D01*
X84633754Y-62136690D01*
X84633754Y-62185071D01*
X84561183Y-61979452D02*
X84561183Y-61858500D01*
X84633754Y-62003642D02*
X84379754Y-61918976D01*
X84633754Y-61834309D01*
X84633754Y-61604500D02*
X84512802Y-61689166D01*
X84633754Y-61749642D02*
X84379754Y-61749642D01*
X84379754Y-61652880D01*
X84391850Y-61628690D01*
X84403945Y-61616595D01*
X84428135Y-61604500D01*
X84464421Y-61604500D01*
X84488611Y-61616595D01*
X84500707Y-61628690D01*
X84512802Y-61652880D01*
X84512802Y-61749642D01*
D13*
X85020059Y-63674547D02*
X85465297Y-63674547D01*
X85517678Y-63648357D01*
X85543869Y-63622166D01*
X85570059Y-63569785D01*
X85570059Y-63465023D01*
X85543869Y-63412642D01*
X85517678Y-63386452D01*
X85465297Y-63360261D01*
X85020059Y-63360261D01*
X85570059Y-62810261D02*
X85570059Y-63124547D01*
X85570059Y-62967404D02*
X85020059Y-62967404D01*
X85098630Y-63019785D01*
X85151011Y-63072166D01*
X85177202Y-63124547D01*
D14*
X84412619Y-58773880D02*
X84484047Y-58797690D01*
X84603095Y-58797690D01*
X84650714Y-58773880D01*
X84674523Y-58750071D01*
X84698333Y-58702452D01*
X84698333Y-58654833D01*
X84674523Y-58607214D01*
X84650714Y-58583404D01*
X84603095Y-58559595D01*
X84507857Y-58535785D01*
X84460238Y-58511976D01*
X84436428Y-58488166D01*
X84412619Y-58440547D01*
X84412619Y-58392928D01*
X84436428Y-58345309D01*
X84460238Y-58321500D01*
X84507857Y-58297690D01*
X84626904Y-58297690D01*
X84698333Y-58321500D01*
X84912619Y-58797690D02*
X84912619Y-58297690D01*
X85079285Y-58654833D01*
X85245952Y-58297690D01*
X85245952Y-58797690D01*
X85650714Y-58535785D02*
X85484047Y-58535785D01*
X85484047Y-58797690D02*
X85484047Y-58297690D01*
X85722142Y-58297690D01*
X85936428Y-58797690D02*
X86031666Y-58797690D01*
X86079285Y-58773880D01*
X86103095Y-58750071D01*
X86150714Y-58678642D01*
X86174523Y-58583404D01*
X86174523Y-58392928D01*
X86150714Y-58345309D01*
X86126904Y-58321500D01*
X86079285Y-58297690D01*
X85984047Y-58297690D01*
X85936428Y-58321500D01*
X85912619Y-58345309D01*
X85888809Y-58392928D01*
X85888809Y-58511976D01*
X85912619Y-58559595D01*
X85936428Y-58583404D01*
X85984047Y-58607214D01*
X86079285Y-58607214D01*
X86126904Y-58583404D01*
X86150714Y-58559595D01*
X86174523Y-58511976D01*
X86388809Y-58750071D02*
X86412619Y-58773880D01*
X86388809Y-58797690D01*
X86365000Y-58773880D01*
X86388809Y-58750071D01*
X86388809Y-58797690D01*
X86722142Y-58297690D02*
X86769761Y-58297690D01*
X86817380Y-58321500D01*
X86841190Y-58345309D01*
X86865000Y-58392928D01*
X86888809Y-58488166D01*
X86888809Y-58607214D01*
X86865000Y-58702452D01*
X86841190Y-58750071D01*
X86817380Y-58773880D01*
X86769761Y-58797690D01*
X86722142Y-58797690D01*
X86674523Y-58773880D01*
X86650714Y-58750071D01*
X86626904Y-58702452D01*
X86603095Y-58607214D01*
X86603095Y-58488166D01*
X86626904Y-58392928D01*
X86650714Y-58345309D01*
X86674523Y-58321500D01*
X86722142Y-58297690D01*
X87388809Y-58750071D02*
X87365000Y-58773880D01*
X87293571Y-58797690D01*
X87245952Y-58797690D01*
X87174523Y-58773880D01*
X87126904Y-58726261D01*
X87103095Y-58678642D01*
X87079285Y-58583404D01*
X87079285Y-58511976D01*
X87103095Y-58416738D01*
X87126904Y-58369119D01*
X87174523Y-58321500D01*
X87245952Y-58297690D01*
X87293571Y-58297690D01*
X87365000Y-58321500D01*
X87388809Y-58345309D01*
X87579285Y-58654833D02*
X87817380Y-58654833D01*
X87531666Y-58797690D02*
X87698333Y-58297690D01*
X87865000Y-58797690D01*
D15*
X89254309Y-65741428D02*
X89254309Y-65838190D01*
X89278500Y-65886571D01*
X89302690Y-65910761D01*
X89375261Y-65959142D01*
X89472023Y-65983333D01*
X89665547Y-65983333D01*
X89713928Y-65959142D01*
X89738119Y-65934952D01*
X89762309Y-65886571D01*
X89762309Y-65789809D01*
X89738119Y-65741428D01*
X89713928Y-65717238D01*
X89665547Y-65693047D01*
X89544595Y-65693047D01*
X89496214Y-65717238D01*
X89472023Y-65741428D01*
X89447833Y-65789809D01*
X89447833Y-65886571D01*
X89472023Y-65934952D01*
X89496214Y-65959142D01*
X89544595Y-65983333D01*
X89254309Y-65378571D02*
X89254309Y-65330190D01*
X89278500Y-65281809D01*
X89302690Y-65257619D01*
X89351071Y-65233428D01*
X89447833Y-65209238D01*
X89568785Y-65209238D01*
X89665547Y-65233428D01*
X89713928Y-65257619D01*
X89738119Y-65281809D01*
X89762309Y-65330190D01*
X89762309Y-65378571D01*
X89738119Y-65426952D01*
X89713928Y-65451142D01*
X89665547Y-65475333D01*
X89568785Y-65499523D01*
X89447833Y-65499523D01*
X89351071Y-65475333D01*
X89302690Y-65451142D01*
X89278500Y-65426952D01*
X89254309Y-65378571D01*
X89762309Y-64701238D02*
X89520404Y-64870571D01*
X89762309Y-64991523D02*
X89254309Y-64991523D01*
X89254309Y-64798000D01*
X89278500Y-64749619D01*
X89302690Y-64725428D01*
X89351071Y-64701238D01*
X89423642Y-64701238D01*
X89472023Y-64725428D01*
X89496214Y-64749619D01*
X89520404Y-64798000D01*
X89520404Y-64991523D01*
X89520404Y-64169047D02*
X89496214Y-64193238D01*
X89472023Y-64241619D01*
X89472023Y-64290000D01*
X89496214Y-64338380D01*
X89520404Y-64362571D01*
X89568785Y-64386761D01*
X89617166Y-64386761D01*
X89665547Y-64362571D01*
X89689738Y-64338380D01*
X89713928Y-64290000D01*
X89713928Y-64241619D01*
X89689738Y-64193238D01*
X89665547Y-64169047D01*
X89472023Y-64169047D02*
X89665547Y-64169047D01*
X89689738Y-64144857D01*
X89689738Y-64120666D01*
X89665547Y-64072285D01*
X89617166Y-64048095D01*
X89496214Y-64048095D01*
X89423642Y-64096476D01*
X89375261Y-64169047D01*
X89351071Y-64265809D01*
X89375261Y-64362571D01*
X89423642Y-64435142D01*
X89496214Y-64483523D01*
X89592976Y-64507714D01*
X89689738Y-64483523D01*
X89762309Y-64435142D01*
X89810690Y-64362571D01*
X89834880Y-64265809D01*
X89810690Y-64169047D01*
X89762309Y-64096476D01*
X89762309Y-63564285D02*
X89762309Y-63854571D01*
X89762309Y-63709428D02*
X89254309Y-63709428D01*
X89326880Y-63757809D01*
X89375261Y-63806190D01*
X89399452Y-63854571D01*
X89254309Y-63249809D02*
X89254309Y-63201428D01*
X89278500Y-63153047D01*
X89302690Y-63128857D01*
X89351071Y-63104666D01*
X89447833Y-63080476D01*
X89568785Y-63080476D01*
X89665547Y-63104666D01*
X89713928Y-63128857D01*
X89738119Y-63153047D01*
X89762309Y-63201428D01*
X89762309Y-63249809D01*
X89738119Y-63298190D01*
X89713928Y-63322380D01*
X89665547Y-63346571D01*
X89568785Y-63370761D01*
X89447833Y-63370761D01*
X89351071Y-63346571D01*
X89302690Y-63322380D01*
X89278500Y-63298190D01*
X89254309Y-63249809D01*
X89254309Y-62766000D02*
X89254309Y-62717619D01*
X89278500Y-62669238D01*
X89302690Y-62645047D01*
X89351071Y-62620857D01*
X89447833Y-62596666D01*
X89568785Y-62596666D01*
X89665547Y-62620857D01*
X89713928Y-62645047D01*
X89738119Y-62669238D01*
X89762309Y-62717619D01*
X89762309Y-62766000D01*
X89738119Y-62814380D01*
X89713928Y-62838571D01*
X89665547Y-62862761D01*
X89568785Y-62886952D01*
X89447833Y-62886952D01*
X89351071Y-62862761D01*
X89302690Y-62838571D01*
X89278500Y-62814380D01*
X89254309Y-62766000D01*
X89762309Y-62378952D02*
X89254309Y-62378952D01*
X89617166Y-62209619D01*
X89254309Y-62040285D01*
X89762309Y-62040285D01*
X89762309Y-61798380D02*
X89254309Y-61798380D01*
X89496214Y-61798380D02*
X89496214Y-61508095D01*
X89762309Y-61508095D02*
X89254309Y-61508095D01*
X89423642Y-61314571D02*
X89423642Y-61048476D01*
X89762309Y-61314571D01*
X89762309Y-61048476D01*
D16*
X88624404Y-63676333D02*
X88624404Y-64057285D01*
X87824404Y-64057285D01*
X88624404Y-62990619D02*
X88624404Y-63447761D01*
X88624404Y-63219190D02*
X87824404Y-63219190D01*
X87938690Y-63295380D01*
X88014880Y-63371571D01*
X88052976Y-63447761D01*
D12*
X60271452Y-65597809D02*
X60307738Y-65609904D01*
X60368214Y-65609904D01*
X60392404Y-65597809D01*
X60404500Y-65585714D01*
X60416595Y-65561523D01*
X60416595Y-65537333D01*
X60404500Y-65513142D01*
X60392404Y-65501047D01*
X60368214Y-65488952D01*
X60319833Y-65476857D01*
X60295642Y-65464761D01*
X60283547Y-65452666D01*
X60271452Y-65428476D01*
X60271452Y-65404285D01*
X60283547Y-65380095D01*
X60295642Y-65368000D01*
X60319833Y-65355904D01*
X60380309Y-65355904D01*
X60416595Y-65368000D01*
X60525452Y-65609904D02*
X60525452Y-65355904D01*
X60610119Y-65537333D01*
X60694785Y-65355904D01*
X60694785Y-65609904D01*
X60864119Y-65355904D02*
X60888309Y-65355904D01*
X60912500Y-65368000D01*
X60924595Y-65380095D01*
X60936690Y-65404285D01*
X60948785Y-65452666D01*
X60948785Y-65513142D01*
X60936690Y-65561523D01*
X60924595Y-65585714D01*
X60912500Y-65597809D01*
X60888309Y-65609904D01*
X60864119Y-65609904D01*
X60839928Y-65597809D01*
X60827833Y-65585714D01*
X60815738Y-65561523D01*
X60803642Y-65513142D01*
X60803642Y-65452666D01*
X60815738Y-65404285D01*
X60827833Y-65380095D01*
X60839928Y-65368000D01*
X60864119Y-65355904D01*
X61166500Y-65440571D02*
X61166500Y-65609904D01*
X61106023Y-65343809D02*
X61045547Y-65525238D01*
X61202785Y-65525238D01*
X61384214Y-65476857D02*
X61420500Y-65488952D01*
X61432595Y-65501047D01*
X61444690Y-65525238D01*
X61444690Y-65561523D01*
X61432595Y-65585714D01*
X61420500Y-65597809D01*
X61396309Y-65609904D01*
X61299547Y-65609904D01*
X61299547Y-65355904D01*
X61384214Y-65355904D01*
X61408404Y-65368000D01*
X61420500Y-65380095D01*
X61432595Y-65404285D01*
X61432595Y-65428476D01*
X61420500Y-65452666D01*
X61408404Y-65464761D01*
X61384214Y-65476857D01*
X61299547Y-65476857D01*
X61553547Y-65513142D02*
X61747071Y-65513142D01*
X61855928Y-65597809D02*
X61892214Y-65609904D01*
X61952690Y-65609904D01*
X61976880Y-65597809D01*
X61988976Y-65585714D01*
X62001071Y-65561523D01*
X62001071Y-65537333D01*
X61988976Y-65513142D01*
X61976880Y-65501047D01*
X61952690Y-65488952D01*
X61904309Y-65476857D01*
X61880119Y-65464761D01*
X61868023Y-65452666D01*
X61855928Y-65428476D01*
X61855928Y-65404285D01*
X61868023Y-65380095D01*
X61880119Y-65368000D01*
X61904309Y-65355904D01*
X61964785Y-65355904D01*
X62001071Y-65368000D01*
X62255071Y-65609904D02*
X62170404Y-65488952D01*
X62109928Y-65609904D02*
X62109928Y-65355904D01*
X62206690Y-65355904D01*
X62230880Y-65368000D01*
X62242976Y-65380095D01*
X62255071Y-65404285D01*
X62255071Y-65440571D01*
X62242976Y-65464761D01*
X62230880Y-65476857D01*
X62206690Y-65488952D01*
X62109928Y-65488952D01*
X62351833Y-65597809D02*
X62388119Y-65609904D01*
X62448595Y-65609904D01*
X62472785Y-65597809D01*
X62484880Y-65585714D01*
X62496976Y-65561523D01*
X62496976Y-65537333D01*
X62484880Y-65513142D01*
X62472785Y-65501047D01*
X62448595Y-65488952D01*
X62400214Y-65476857D01*
X62376023Y-65464761D01*
X62363928Y-65452666D01*
X62351833Y-65428476D01*
X62351833Y-65404285D01*
X62363928Y-65380095D01*
X62376023Y-65368000D01*
X62400214Y-65355904D01*
X62460690Y-65355904D01*
X62496976Y-65368000D01*
X62593738Y-65597809D02*
X62630023Y-65609904D01*
X62690500Y-65609904D01*
X62714690Y-65597809D01*
X62726785Y-65585714D01*
X62738880Y-65561523D01*
X62738880Y-65537333D01*
X62726785Y-65513142D01*
X62714690Y-65501047D01*
X62690500Y-65488952D01*
X62642119Y-65476857D01*
X62617928Y-65464761D01*
X62605833Y-65452666D01*
X62593738Y-65428476D01*
X62593738Y-65404285D01*
X62605833Y-65380095D01*
X62617928Y-65368000D01*
X62642119Y-65355904D01*
X62702595Y-65355904D01*
X62738880Y-65368000D01*
X62847738Y-65513142D02*
X63041261Y-65513142D01*
X63125928Y-65355904D02*
X63271071Y-65355904D01*
X63198500Y-65609904D02*
X63198500Y-65355904D01*
X63440404Y-65476857D02*
X63476690Y-65488952D01*
X63488785Y-65501047D01*
X63500880Y-65525238D01*
X63500880Y-65561523D01*
X63488785Y-65585714D01*
X63476690Y-65597809D01*
X63452500Y-65609904D01*
X63355738Y-65609904D01*
X63355738Y-65355904D01*
X63440404Y-65355904D01*
X63464595Y-65368000D01*
X63476690Y-65380095D01*
X63488785Y-65404285D01*
X63488785Y-65428476D01*
X63476690Y-65452666D01*
X63464595Y-65464761D01*
X63440404Y-65476857D01*
X63355738Y-65476857D01*
X63682309Y-65706666D02*
X63670214Y-65694571D01*
X63646023Y-65658285D01*
X63633928Y-65634095D01*
X63621833Y-65597809D01*
X63609738Y-65537333D01*
X63609738Y-65488952D01*
X63621833Y-65428476D01*
X63633928Y-65392190D01*
X63646023Y-65368000D01*
X63670214Y-65331714D01*
X63682309Y-65319619D01*
X63900023Y-65609904D02*
X63779071Y-65609904D01*
X63779071Y-65355904D01*
X64069357Y-65476857D02*
X63984690Y-65476857D01*
X63984690Y-65609904D02*
X63984690Y-65355904D01*
X64105642Y-65355904D01*
X64178214Y-65706666D02*
X64190309Y-65694571D01*
X64214500Y-65658285D01*
X64226595Y-65634095D01*
X64238690Y-65597809D01*
X64250785Y-65537333D01*
X64250785Y-65488952D01*
X64238690Y-65428476D01*
X64226595Y-65392190D01*
X64214500Y-65368000D01*
X64190309Y-65331714D01*
X64178214Y-65319619D01*
X64444309Y-65706666D02*
X64432214Y-65694571D01*
X64408023Y-65658285D01*
X64395928Y-65634095D01*
X64383833Y-65597809D01*
X64371738Y-65537333D01*
X64371738Y-65488952D01*
X64383833Y-65428476D01*
X64395928Y-65392190D01*
X64408023Y-65368000D01*
X64432214Y-65331714D01*
X64444309Y-65319619D01*
X64528976Y-65597809D02*
X64565261Y-65609904D01*
X64625738Y-65609904D01*
X64649928Y-65597809D01*
X64662023Y-65585714D01*
X64674119Y-65561523D01*
X64674119Y-65537333D01*
X64662023Y-65513142D01*
X64649928Y-65501047D01*
X64625738Y-65488952D01*
X64577357Y-65476857D01*
X64553166Y-65464761D01*
X64541071Y-65452666D01*
X64528976Y-65428476D01*
X64528976Y-65404285D01*
X64541071Y-65380095D01*
X64553166Y-65368000D01*
X64577357Y-65355904D01*
X64637833Y-65355904D01*
X64674119Y-65368000D01*
X64782976Y-65609904D02*
X64782976Y-65355904D01*
X64928119Y-65609904D01*
X64928119Y-65355904D01*
X65024880Y-65706666D02*
X65036976Y-65694571D01*
X65061166Y-65658285D01*
X65073261Y-65634095D01*
X65085357Y-65597809D01*
X65097452Y-65537333D01*
X65097452Y-65488952D01*
X65085357Y-65428476D01*
X65073261Y-65392190D01*
X65061166Y-65368000D01*
X65036976Y-65331714D01*
X65024880Y-65319619D01*
X81321833Y-64825476D02*
X81321833Y-64704523D01*
X81394404Y-64849666D02*
X81140404Y-64765000D01*
X81394404Y-64680333D01*
X81382309Y-64607761D02*
X81394404Y-64571476D01*
X81394404Y-64511000D01*
X81382309Y-64486809D01*
X81370214Y-64474714D01*
X81346023Y-64462619D01*
X81321833Y-64462619D01*
X81297642Y-64474714D01*
X81285547Y-64486809D01*
X81273452Y-64511000D01*
X81261357Y-64559380D01*
X81249261Y-64583571D01*
X81237166Y-64595666D01*
X81212976Y-64607761D01*
X81188785Y-64607761D01*
X81164595Y-64595666D01*
X81152500Y-64583571D01*
X81140404Y-64559380D01*
X81140404Y-64498904D01*
X81152500Y-64462619D01*
X81394404Y-64353761D02*
X81140404Y-64353761D01*
X81321833Y-64269095D01*
X81140404Y-64184428D01*
X81394404Y-64184428D01*
X81394404Y-64063476D02*
X81140404Y-64063476D01*
X81140404Y-64003000D01*
X81152500Y-63966714D01*
X81176690Y-63942523D01*
X81200880Y-63930428D01*
X81249261Y-63918333D01*
X81285547Y-63918333D01*
X81333928Y-63930428D01*
X81358119Y-63942523D01*
X81382309Y-63966714D01*
X81394404Y-64003000D01*
X81394404Y-64063476D01*
X81394404Y-63676428D02*
X81394404Y-63821571D01*
X81394404Y-63749000D02*
X81140404Y-63749000D01*
X81176690Y-63773190D01*
X81200880Y-63797380D01*
X81212976Y-63821571D01*
X81164595Y-63579666D02*
X81152500Y-63567571D01*
X81140404Y-63543380D01*
X81140404Y-63482904D01*
X81152500Y-63458714D01*
X81164595Y-63446619D01*
X81188785Y-63434523D01*
X81212976Y-63434523D01*
X81249261Y-63446619D01*
X81394404Y-63591761D01*
X81394404Y-63434523D01*
X81140404Y-63277285D02*
X81140404Y-63253095D01*
X81152500Y-63228904D01*
X81164595Y-63216809D01*
X81188785Y-63204714D01*
X81237166Y-63192619D01*
X81297642Y-63192619D01*
X81346023Y-63204714D01*
X81370214Y-63216809D01*
X81382309Y-63228904D01*
X81394404Y-63253095D01*
X81394404Y-63277285D01*
X81382309Y-63301476D01*
X81370214Y-63313571D01*
X81346023Y-63325666D01*
X81297642Y-63337761D01*
X81237166Y-63337761D01*
X81188785Y-63325666D01*
X81164595Y-63313571D01*
X81152500Y-63301476D01*
X81140404Y-63277285D01*
X81140404Y-62974904D02*
X81140404Y-63023285D01*
X81152500Y-63047476D01*
X81164595Y-63059571D01*
X81200880Y-63083761D01*
X81249261Y-63095857D01*
X81346023Y-63095857D01*
X81370214Y-63083761D01*
X81382309Y-63071666D01*
X81394404Y-63047476D01*
X81394404Y-62999095D01*
X81382309Y-62974904D01*
X81370214Y-62962809D01*
X81346023Y-62950714D01*
X81285547Y-62950714D01*
X81261357Y-62962809D01*
X81249261Y-62974904D01*
X81237166Y-62999095D01*
X81237166Y-63047476D01*
X81249261Y-63071666D01*
X81261357Y-63083761D01*
X81285547Y-63095857D01*
X81297642Y-62841857D02*
X81297642Y-62648333D01*
X81394404Y-62394333D02*
X81394404Y-62539476D01*
X81394404Y-62466904D02*
X81140404Y-62466904D01*
X81176690Y-62491095D01*
X81200880Y-62515285D01*
X81212976Y-62539476D01*
X81140404Y-62164523D02*
X81140404Y-62285476D01*
X81261357Y-62297571D01*
X81249261Y-62285476D01*
X81237166Y-62261285D01*
X81237166Y-62200809D01*
X81249261Y-62176619D01*
X81261357Y-62164523D01*
X81285547Y-62152428D01*
X81346023Y-62152428D01*
X81370214Y-62164523D01*
X81382309Y-62176619D01*
X81394404Y-62200809D01*
X81394404Y-62261285D01*
X81382309Y-62285476D01*
X81370214Y-62297571D01*
X81140404Y-61995190D02*
X81140404Y-61971000D01*
X81152500Y-61946809D01*
X81164595Y-61934714D01*
X81188785Y-61922619D01*
X81237166Y-61910523D01*
X81297642Y-61910523D01*
X81346023Y-61922619D01*
X81370214Y-61934714D01*
X81382309Y-61946809D01*
X81394404Y-61971000D01*
X81394404Y-61995190D01*
X81382309Y-62019380D01*
X81370214Y-62031476D01*
X81346023Y-62043571D01*
X81297642Y-62055666D01*
X81237166Y-62055666D01*
X81188785Y-62043571D01*
X81164595Y-62031476D01*
X81152500Y-62019380D01*
X81140404Y-61995190D01*
D16*
X82365357Y-63837166D02*
X82365357Y-64103833D01*
X82784404Y-64103833D02*
X81984404Y-64103833D01*
X81984404Y-63722880D01*
X82784404Y-62999071D02*
X82784404Y-63456214D01*
X82784404Y-63227642D02*
X81984404Y-63227642D01*
X82098690Y-63303833D01*
X82174880Y-63380023D01*
X82212976Y-63456214D01*
D10*
X81698726Y-58119559D02*
X81456821Y-58119559D01*
X81432630Y-58361464D01*
X81456821Y-58337273D01*
X81505202Y-58313083D01*
X81626154Y-58313083D01*
X81674535Y-58337273D01*
X81698726Y-58361464D01*
X81722916Y-58409845D01*
X81722916Y-58530797D01*
X81698726Y-58579178D01*
X81674535Y-58603369D01*
X81626154Y-58627559D01*
X81505202Y-58627559D01*
X81456821Y-58603369D01*
X81432630Y-58579178D01*
X81940630Y-58579178D02*
X81964821Y-58603369D01*
X81940630Y-58627559D01*
X81916440Y-58603369D01*
X81940630Y-58579178D01*
X81940630Y-58627559D01*
X82448630Y-58627559D02*
X82158345Y-58627559D01*
X82303488Y-58627559D02*
X82303488Y-58119559D01*
X82255107Y-58192130D01*
X82206726Y-58240511D01*
X82158345Y-58264702D01*
X82666345Y-58627559D02*
X82666345Y-58119559D01*
X82714726Y-58434035D02*
X82859869Y-58627559D01*
X82859869Y-58288892D02*
X82666345Y-58482416D01*
D11*
X82079583Y-59467702D02*
X81946250Y-59277226D01*
X81851011Y-59467702D02*
X81851011Y-59067702D01*
X82003392Y-59067702D01*
X82041488Y-59086750D01*
X82060535Y-59105797D01*
X82079583Y-59143892D01*
X82079583Y-59201035D01*
X82060535Y-59239130D01*
X82041488Y-59258178D01*
X82003392Y-59277226D01*
X81851011Y-59277226D01*
X82460535Y-59467702D02*
X82231964Y-59467702D01*
X82346250Y-59467702D02*
X82346250Y-59067702D01*
X82308154Y-59124845D01*
X82270059Y-59162940D01*
X82231964Y-59181988D01*
D14*
X71035833Y-57219190D02*
X71321547Y-57219190D01*
X71178690Y-57719190D02*
X71178690Y-57219190D01*
X71583452Y-57481095D02*
X71583452Y-57719190D01*
X71416785Y-57219190D02*
X71583452Y-57481095D01*
X71750119Y-57219190D01*
X71916785Y-57719190D02*
X71916785Y-57219190D01*
X72107261Y-57219190D01*
X72154880Y-57243000D01*
X72178690Y-57266809D01*
X72202500Y-57314428D01*
X72202500Y-57385857D01*
X72178690Y-57433476D01*
X72154880Y-57457285D01*
X72107261Y-57481095D01*
X71916785Y-57481095D01*
X72416785Y-57457285D02*
X72583452Y-57457285D01*
X72654880Y-57719190D02*
X72416785Y-57719190D01*
X72416785Y-57219190D01*
X72654880Y-57219190D01*
X72869166Y-57528714D02*
X73250119Y-57528714D01*
X73773928Y-57671571D02*
X73750119Y-57695380D01*
X73678690Y-57719190D01*
X73631071Y-57719190D01*
X73559642Y-57695380D01*
X73512023Y-57647761D01*
X73488214Y-57600142D01*
X73464404Y-57504904D01*
X73464404Y-57433476D01*
X73488214Y-57338238D01*
X73512023Y-57290619D01*
X73559642Y-57243000D01*
X73631071Y-57219190D01*
X73678690Y-57219190D01*
X73750119Y-57243000D01*
X73773928Y-57266809D01*
X73988214Y-57528714D02*
X74369166Y-57528714D01*
X74559642Y-57219190D02*
X74869166Y-57219190D01*
X74702500Y-57409666D01*
X74773928Y-57409666D01*
X74821547Y-57433476D01*
X74845357Y-57457285D01*
X74869166Y-57504904D01*
X74869166Y-57623952D01*
X74845357Y-57671571D01*
X74821547Y-57695380D01*
X74773928Y-57719190D01*
X74631071Y-57719190D01*
X74583452Y-57695380D01*
X74559642Y-57671571D01*
X75345357Y-57719190D02*
X75059642Y-57719190D01*
X75202500Y-57719190D02*
X75202500Y-57219190D01*
X75154880Y-57290619D01*
X75107261Y-57338238D01*
X75059642Y-57362047D01*
X75559642Y-57528714D02*
X75940595Y-57528714D01*
X76178690Y-57719190D02*
X76178690Y-57219190D01*
X76345357Y-57576333D01*
X76512023Y-57219190D01*
X76512023Y-57719190D01*
X77012023Y-57719190D02*
X76726309Y-57719190D01*
X76869166Y-57719190D02*
X76869166Y-57219190D01*
X76821547Y-57290619D01*
X76773928Y-57338238D01*
X76726309Y-57362047D01*
X77202500Y-57266809D02*
X77226309Y-57243000D01*
X77273928Y-57219190D01*
X77392976Y-57219190D01*
X77440595Y-57243000D01*
X77464404Y-57266809D01*
X77488214Y-57314428D01*
X77488214Y-57362047D01*
X77464404Y-57433476D01*
X77178690Y-57719190D01*
X77488214Y-57719190D01*
X77583452Y-57766809D02*
X77964404Y-57766809D01*
X78345357Y-57719190D02*
X78059642Y-57719190D01*
X78202500Y-57719190D02*
X78202500Y-57219190D01*
X78154880Y-57290619D01*
X78107261Y-57338238D01*
X78059642Y-57362047D01*
X78512023Y-57219190D02*
X78821547Y-57219190D01*
X78654880Y-57409666D01*
X78726309Y-57409666D01*
X78773928Y-57433476D01*
X78797738Y-57457285D01*
X78821547Y-57504904D01*
X78821547Y-57623952D01*
X78797738Y-57671571D01*
X78773928Y-57695380D01*
X78726309Y-57719190D01*
X78583452Y-57719190D01*
X78535833Y-57695380D01*
X78512023Y-57671571D01*
X72276309Y-61069190D02*
X72276309Y-60569190D01*
X72562023Y-61069190D02*
X72347738Y-60783476D01*
X72562023Y-60569190D02*
X72276309Y-60854904D01*
X72776309Y-60807285D02*
X72942976Y-60807285D01*
X73014404Y-61069190D02*
X72776309Y-61069190D01*
X72776309Y-60569190D01*
X73014404Y-60569190D01*
X73228690Y-60807285D02*
X73395357Y-60807285D01*
X73466785Y-61069190D02*
X73228690Y-61069190D01*
X73228690Y-60569190D01*
X73466785Y-60569190D01*
X73681071Y-61069190D02*
X73681071Y-60569190D01*
X73871547Y-60569190D01*
X73919166Y-60593000D01*
X73942976Y-60616809D01*
X73966785Y-60664428D01*
X73966785Y-60735857D01*
X73942976Y-60783476D01*
X73919166Y-60807285D01*
X73871547Y-60831095D01*
X73681071Y-60831095D01*
X74276309Y-60569190D02*
X74371547Y-60569190D01*
X74419166Y-60593000D01*
X74466785Y-60640619D01*
X74490595Y-60735857D01*
X74490595Y-60902523D01*
X74466785Y-60997761D01*
X74419166Y-61045380D01*
X74371547Y-61069190D01*
X74276309Y-61069190D01*
X74228690Y-61045380D01*
X74181071Y-60997761D01*
X74157261Y-60902523D01*
X74157261Y-60735857D01*
X74181071Y-60640619D01*
X74228690Y-60593000D01*
X74276309Y-60569190D01*
X74704880Y-60569190D02*
X74704880Y-60973952D01*
X74728690Y-61021571D01*
X74752500Y-61045380D01*
X74800119Y-61069190D01*
X74895357Y-61069190D01*
X74942976Y-61045380D01*
X74966785Y-61021571D01*
X74990595Y-60973952D01*
X74990595Y-60569190D01*
X75157261Y-60569190D02*
X75442976Y-60569190D01*
X75300119Y-61069190D02*
X75300119Y-60569190D01*
X75942976Y-60569190D02*
X76276309Y-60569190D01*
X75942976Y-61069190D01*
X76276309Y-61069190D01*
X76562023Y-60569190D02*
X76657261Y-60569190D01*
X76704880Y-60593000D01*
X76752500Y-60640619D01*
X76776309Y-60735857D01*
X76776309Y-60902523D01*
X76752500Y-60997761D01*
X76704880Y-61045380D01*
X76657261Y-61069190D01*
X76562023Y-61069190D01*
X76514404Y-61045380D01*
X76466785Y-60997761D01*
X76442976Y-60902523D01*
X76442976Y-60735857D01*
X76466785Y-60640619D01*
X76514404Y-60593000D01*
X76562023Y-60569190D01*
X76990595Y-61069190D02*
X76990595Y-60569190D01*
X77276309Y-61069190D01*
X77276309Y-60569190D01*
X77514404Y-60807285D02*
X77681071Y-60807285D01*
X77752500Y-61069190D02*
X77514404Y-61069190D01*
X77514404Y-60569190D01*
X77752500Y-60569190D01*
D13*
X68658750Y-58886750D02*
X68658750Y-59686750D01*
X67058750Y-59686750D02*
X67058750Y-58886750D01*
X67058750Y-58886750D02*
X68658750Y-58886750D01*
X68658750Y-59686750D02*
X67058750Y-59686750D01*
X85821250Y-62005500D02*
X84821250Y-62005500D01*
X84821250Y-64505500D02*
X84821250Y-62005500D01*
X85821250Y-64255500D02*
X85821250Y-62005500D01*
X85571250Y-64505500D02*
X85821250Y-64255500D01*
X84821250Y-64505500D02*
X85571250Y-64505500D01*
X87515000Y-59180500D02*
X87515000Y-60980500D01*
X87515000Y-60980500D02*
X84715000Y-60980500D01*
X85765000Y-60080500D02*
X85765000Y-59530500D01*
X86365000Y-60480500D02*
X85765000Y-60080500D01*
X86365000Y-60080500D02*
X86865000Y-60080500D01*
X86365000Y-59680500D02*
X86365000Y-60480500D01*
X84715000Y-60980500D02*
X84715000Y-59180500D01*
X84715000Y-59180500D02*
X87515000Y-59180500D01*
X85765000Y-60080500D02*
X86365000Y-59680500D01*
X85365000Y-60080500D02*
X85765000Y-60080500D01*
X85765000Y-60080500D02*
X85765000Y-60630500D01*
X89062500Y-65143000D02*
X87462500Y-65143000D01*
X87462500Y-65143000D02*
X87462500Y-61943000D01*
X89062500Y-61943000D02*
X89062500Y-65143000D01*
X87462500Y-61943000D02*
X89062500Y-61943000D01*
X81622500Y-64983000D02*
X81622500Y-61783000D01*
X81622500Y-61783000D02*
X83222500Y-61783000D01*
X83222500Y-61783000D02*
X83222500Y-64983000D01*
X83222500Y-64983000D02*
X81622500Y-64983000D01*
X82946250Y-58886750D02*
X82946250Y-59686750D01*
X82946250Y-59686750D02*
X81346250Y-59686750D01*
X81346250Y-59686750D02*
X81346250Y-58886750D01*
X81346250Y-58886750D02*
X82946250Y-58886750D01*
D17*
X71302500Y-58043000D02*
X70002500Y-59343000D01*
X72902500Y-61443000D02*
X70902500Y-63443000D01*
D16*
X80002500Y-63443000D02*
X80002500Y-58043000D01*
D17*
X80002500Y-59343000D02*
X75902500Y-63443000D01*
D16*
X70002500Y-58043000D02*
X70002500Y-63443000D01*
D17*
X71902500Y-61443000D02*
X70002500Y-63343000D01*
X80002500Y-60343000D02*
X76902500Y-63443000D01*
X80002500Y-61343000D02*
X77902500Y-63443000D01*
X78302500Y-58043000D02*
X75902500Y-60343000D01*
X73902500Y-61443000D02*
X71902500Y-63443000D01*
X74902500Y-61443000D02*
X72902500Y-63443000D01*
X72302500Y-58043000D02*
X70002500Y-60343000D01*
X76302500Y-58043000D02*
X73902500Y-60343000D01*
X73302500Y-58043000D02*
X70002500Y-61343000D01*
D16*
X70002500Y-63443000D02*
X80002500Y-63443000D01*
D17*
X80002500Y-62343000D02*
X78902500Y-63443000D01*
X75902500Y-61443000D02*
X73902500Y-63443000D01*
X79302500Y-58043000D02*
X76902500Y-60343000D01*
X77302500Y-58043000D02*
X74902500Y-60343000D01*
X76902500Y-61443000D02*
X74902500Y-63443000D01*
D16*
X80002500Y-58043000D02*
X70002500Y-58043000D01*
D17*
X80002500Y-58343000D02*
X77902500Y-60343000D01*
X75302500Y-58043000D02*
X72902500Y-60343000D01*
X74302500Y-58043000D02*
X70002500Y-62343000D01*
M02*
